SplineFontDB: 3.2
FontName: Inconsolata-ExtraCondensed
FullName: Inconsolata Extra Condensed
FamilyName: Inconsolata Extra Condensed
Weight: Book
Copyright: Copyright 2006 The Inconsolata Project Authors (https://github.com/cyrealtype/Inconsolata)
Version: 3.000; ttfautohint (v1.8.3)
ItalicAngle: -9
UnderlinePosition: -297
UnderlineWidth: 102
Ascent: 1802
Descent: 246
InvalidEm: 0
sfntRevision: 0x00030000
LayerCount: 2
Layer: 0 1 "Back" 1
Layer: 1 1 "Fore" 0
XUID: [1021 574 1207189599 4510]
StyleMap: 0x0040
FSType: 0
OS2Version: 4
OS2_WeightWidthSlopeOnly: 0
OS2_UseTypoMetrics: 1
CreationTime: 1576097233
ModificationTime: 1732402468
PfmFamily: 81
TTFWeight: 400
TTFWidth: 2
LineGap: 0
VLineGap: 0
Panose: 0 0 0 0 0 0 0 0 0 0
OS2TypoAscent: 1759
OS2TypoAOffset: 0
OS2TypoDescent: -389
OS2TypoDOffset: 0
OS2TypoLinegap: 0
OS2WinAscent: 2056
OS2WinAOffset: 0
OS2WinDescent: 930
OS2WinDOffset: 0
HheadAscent: 1759
HheadAOffset: 0
HheadDescent: -389
HheadDOffset: 0
OS2SubXSize: 1331
OS2SubYSize: 1229
OS2SubXOff: 0
OS2SubYOff: 154
OS2SupXSize: 1331
OS2SupYSize: 1229
OS2SupXOff: 0
OS2SupYOff: 717
OS2StrikeYSize: 102
OS2StrikeYPos: 561
OS2CapHeight: 1276
OS2XHeight: 936
OS2Vendor: 'CYRE'
OS2CodePages: 60000193.cdd40000
OS2UnicodeRanges: a00000ff.0000f9eb.00000020.00000000
Lookup: 1 0 0 "'aalt' Access All Alternates in Latin lookup 0" { "'aalt' Access All Alternates in Latin lookup 0 subtable"  } ['aalt' ('DFLT' <'dflt' > 'latn' <'AZE ' 'CAT ' 'CRT ' 'KAZ ' 'MOL ' 'ROM ' 'TAT ' 'TRK ' 'dflt' > ) ]
Lookup: 3 0 0 "'aalt' Access All Alternates in Latin lookup 1" { "'aalt' Access All Alternates in Latin lookup 1 subtable"  } ['aalt' ('DFLT' <'dflt' > 'latn' <'AZE ' 'CAT ' 'CRT ' 'KAZ ' 'MOL ' 'ROM ' 'TAT ' 'TRK ' 'dflt' > ) ]

StartChar: A
Encoding: 65 65 1
Width: 739
VWidth: 2441
GlyphClass: 2
Flags: HW
AnchorPoint: "Anchor-3" 513 0 basechar 0
AnchorPoint: "Anchor-2" 271 0 basechar 0
AnchorPoint: "Anchor-0" 511.902 1521 basechar 0
LayerCount: 2
Fore
SplineSet
446.6484375 1109 m 1,0,-1
 253.229492188 576 l 1,1,-1
 471.229492188 576 l 1,2,-1
 446.6484375 1109 l 1,0,-1
495 0 m 1,3,-1
 475.481445312 445 l 1,4,-1
 206.481445312 445 l 1,5,-1
 44 0 l 1,6,-1
 -80 0 l 1,7,-1
 498.020507812 1547 l 1,8,-1
 536.020507812 1547 l 1,9,-1
 624 0 l 1,10,-1
 495 0 l 1,3,-1
EndSplineSet
Substitution2: "Single Substitution lookup 29 subtable" ordfeminine
Substitution2: "'aalt' Access All Alternates in Latin lookup 0 subtable" ordfeminine
EndChar

StartChar: AE
Encoding: 198 198 26
Width: 704
VWidth: 2441
GlyphClass: 1
Flags: HW
LayerCount: 2
Fore
SplineSet
207.111328125 550 m 1,0,-1
 349.111328125 550 l 1,1,-1
 500.620117188 1374 l 1,2,-1
 485.620117188 1374 l 1,3,-1
 207.111328125 550 l 1,0,-1
-98 0 m 1,4,-1
 430.219726562 1523 l 1,5,-1
 847.219726562 1523 l 1,6,-1
 824.887695312 1382 l 1,7,-1
 602.887695312 1382 l 1,8,-1
 521.319335938 867 l 1,9,-1
 705.319335938 867 l 1,10,-1
 682.037109375 720 l 1,11,-1
 498.037109375 720 l 1,12,-1
 406.490234375 142 l 1,13,-1
 624.490234375 142 l 1,14,-1
 602 0 l 1,15,-1
 262 0 l 1,16,-1
 328.045898438 417 l 1,17,-1
 164.045898438 417 l 1,18,-1
 21 0 l 1,19,-1
 -98 0 l 1,4,-1
EndSplineSet
EndChar

StartChar: B
Encoding: 66 66 28
Width: 761
VWidth: 2441
GlyphClass: 2
Flags: HW
AnchorPoint: "Anchor-2" 281 0 basechar 0
AnchorPoint: "Anchor-0" 521.902 1521 basechar 0
LayerCount: 2
Fore
SplineSet
101.490234375 142 m 1,0,-1
 279.490234375 142 l 2,1,2
 384.490234375 142 384.490234375 142 458.760742188 210 c 128,-1,3
 533.03125 278 533.03125 278 558.213867188 437 c 0,4,5
 579.913085938 574 579.913085938 574 531.850585938 662 c 128,-1,6
 483.788085938 750 483.788085938 750 348.788085938 750 c 2,7,-1
 197.788085938 750 l 1,8,-1
 101.490234375 142 l 1,0,-1
219.645507812 888 m 1,9,-1
 363.645507812 888 l 2,10,11
 498.645507812 888 498.645507812 888 557.232421875 958 c 128,-1,12
 615.819335938 1028 615.819335938 1028 632.291015625 1132 c 0,13,14
 648.129882812 1232 648.129882812 1232 612.508789062 1307 c 128,-1,15
 576.887695312 1382 576.887695312 1382 459.887695312 1382 c 2,16,-1
 297.887695312 1382 l 1,17,-1
 219.645507812 888 l 1,9,-1
-62 0 m 1,18,-1
 178.90234375 1521 l 1,19,-1
 481.90234375 1521 l 2,20,21
 644.90234375 1521 644.90234375 1521 724.46484375 1433 c 128,-1,22
 804.02734375 1345 804.02734375 1345 773.6171875 1153 c 0,23,24
 751.126953125 1011 751.126953125 1011 700.03515625 931.5 c 128,-1,25
 648.943359375 852 648.943359375 852 562.083007812 815 c 1,26,27
 643.90625 776 643.90625 776 685.068359375 676 c 128,-1,28
 726.229492188 576 726.229492188 576 702.629882812 427 c 0,29,30
 669.844726562 220 669.844726562 220 557.921875 110 c 128,-1,31
 446 0 446 0 238 0 c 2,32,-1
 -62 0 l 1,18,-1
EndSplineSet
EndChar

StartChar: C
Encoding: 67 67 29
Width: 768
VWidth: 2441
GlyphClass: 2
Flags: HW
AnchorPoint: "Anchor-2" 332 0 basechar 0
AnchorPoint: "Anchor-0" 556.902 1521 basechar 0
LayerCount: 2
Fore
SplineSet
336.19921875 -24 m 0,0,1
 226.19921875 -24 226.19921875 -24 147.577148438 51 c 128,-1,2
 68.9560546875 126 68.9560546875 126 41.5400390625 297 c 128,-1,3
 14.1240234375 468 14.1240234375 468 57.10546875 752 c 0,4,5
 94.3251953125 987 94.3251953125 987 153.899414062 1139 c 128,-1,6
 213.474609375 1291 213.474609375 1291 285.75390625 1378 c 128,-1,7
 358.033203125 1465 358.033203125 1465 433.91796875 1499 c 128,-1,8
 509.803710938 1533 509.803710938 1533 580.803710938 1533 c 0,9,10
 690.803710938 1533 690.803710938 1533 758.270507812 1466.5 c 128,-1,11
 825.73828125 1400 825.73828125 1400 843.782226562 1274 c 1,12,-1
 730.5859375 1197 l 1,13,-1
 708.735351562 1179 l 1,14,-1
 701.953125 1193 l 1,15,16
 706.961914062 1212 706.961914062 1212 709.3671875 1233.5 c 128,-1,17
 711.772460938 1255 711.772460938 1255 701.474609375 1291 c 1,18,19
 673.135742188 1352 673.135742188 1352 634.961914062 1373 c 128,-1,20
 596.788085938 1394 596.788085938 1394 552.788085938 1394 c 0,21,22
 435.788085938 1394 435.788085938 1394 340.73828125 1239 c 128,-1,23
 245.688476562 1084 245.688476562 1084 195.005859375 764 c 0,24,25
 145.90625 454 145.90625 454 196.876953125 286.5 c 128,-1,26
 247.84765625 119 247.84765625 119 358.84765625 119 c 0,27,28
 483.84765625 119 483.84765625 119 578.981445312 284 c 1,29,-1
 657.459960938 186 l 1,30,31
 588.512695312 79 588.512695312 79 512.85546875 27.5 c 128,-1,32
 437.19921875 -24 437.19921875 -24 336.19921875 -24 c 0,0,1
EndSplineSet
EndChar

StartChar: D
Encoding: 68 68 36
Width: 763
VWidth: 2441
GlyphClass: 2
Flags: HW
AnchorPoint: "Anchor-4" 394.688 762 basechar 0
AnchorPoint: "Anchor-2" 274 0 basechar 0
AnchorPoint: "Anchor-0" 463.902 1521 basechar 0
LayerCount: 2
Fore
SplineSet
103.381835938 135 m 1,0,-1
 183.381835938 135 l 2,1,2
 353.381835938 135 353.381835938 135 461.381835938 296 c 0,3,4
 566.825195312 453.189453125 566.825195312 453.189453125 610.59375 729.53125 c 0,5,6
 611.655273438 736.23046875 611.655273438 736.23046875 612.6796875 743 c 0,7,8
 643.248046875 936 643.248046875 936 635.317382812 1078.5 c 128,-1,9
 627.387695312 1221 627.387695312 1221 571.637695312 1301.5 c 128,-1,10
 515.887695312 1382 515.887695312 1382 400.887695312 1382 c 2,11,-1
 300.887695312 1382 l 1,12,-1
 103.381835938 135 l 1,0,-1
-62.31640625 -2 m 1,13,-1
 178.90234375 1521 l 1,14,-1
 430.90234375 1521 l 2,15,16
 567.90234375 1521 567.90234375 1521 638.983398438 1471 c 128,-1,17
 710.064453125 1421 710.064453125 1421 745.225585938 1321 c 128,-1,18
 780.387695312 1221 780.387695312 1221 783.767578125 1084.5 c 128,-1,19
 787.1484375 948 787.1484375 948 756.10546875 752 c 0,20,21
 695.037109375 398 695.037109375 398 555.360351562 198 c 128,-1,22
 415.68359375 -2 415.68359375 -2 166.68359375 -2 c 2,23,-1
 -62.31640625 -2 l 1,13,-1
EndSplineSet
EndChar

StartChar: Eth
Encoding: 208 208 37
Width: 768
VWidth: 2441
GlyphClass: 1
Flags: HW
LayerCount: 2
Fore
SplineSet
161.698242188 137 m 1,0,-1
 235.698242188 137 l 2,1,2
 387.698242188 137 387.698242188 137 487.198242188 298 c 128,-1,3
 586.698242188 459 586.698242188 459 632.313476562 747 c 0,4,5
 678.719726562 1040 678.719726562 1040 636.06640625 1209.5 c 128,-1,6
 593.412109375 1379 593.412109375 1379 450.412109375 1379 c 2,7,-1
 358.412109375 1379 l 1,8,-1
 278.745117188 876 l 1,9,-1
 424.745117188 876 l 1,10,-1
 402.25390625 734 l 1,11,-1
 256.25390625 734 l 1,12,-1
 161.698242188 137 l 1,0,-1
10.68359375 -2 m 1,13,-1
 127.25390625 734 l 1,14,-1
 54.25390625 734 l 1,15,-1
 76.7451171875 876 l 1,16,-1
 149.745117188 876 l 1,17,-1
 251.90234375 1521 l 1,18,-1
 478.90234375 1521 l 2,19,20
 576.90234375 1521 576.90234375 1521 636.830078125 1479.5 c 128,-1,21
 696.756835938 1438 696.756835938 1438 727.541015625 1373.5 c 128,-1,22
 758.325195312 1309 758.325195312 1309 772.921875 1237 c 0,23,24
 783.735351562 1179 783.735351562 1179 787.704101562 1062 c 128,-1,25
 791.672851562 945 791.672851562 945 761.580078125 755 c 0,26,27
 699.65234375 364 699.65234375 364 558.66796875 181 c 128,-1,28
 417.68359375 -2 417.68359375 -2 217.68359375 -2 c 2,29,-1
 10.68359375 -2 l 1,13,-1
EndSplineSet
EndChar

StartChar: E
Encoding: 69 69 42
Width: 723
VWidth: 2441
GlyphClass: 2
Flags: HW
AnchorPoint: "Anchor-3" 612.801 24 basechar 0
AnchorPoint: "Anchor-2" 267 0 basechar 0
AnchorPoint: "Anchor-0" 527.902 1521 basechar 0
LayerCount: 2
Fore
SplineSet
-62 0 m 1,0,-1
 179.219726562 1523 l 1,1,-1
 838.219726562 1523 l 1,2,-1
 815.887695312 1382 l 1,3,-1
 295.887695312 1382 l 1,4,-1
 214.319335938 867 l 1,5,-1
 639.319335938 867 l 1,6,-1
 616.037109375 720 l 1,7,-1
 191.037109375 720 l 1,8,-1
 99.490234375 142 l 1,9,-1
 614.490234375 142 l 1,10,-1
 592 0 l 1,11,-1
 -62 0 l 1,0,-1
EndSplineSet
EndChar

StartChar: uni01B8
Encoding: 440 440 65
Width: 684
VWidth: 2441
GlyphClass: 1
Flags: HW
LayerCount: 2
Fore
SplineSet
278.723632812 -27 m 0,0,1
 110.723632812 -27 110.723632812 -27 41.705078125 96 c 128,-1,2
 -27.3134765625 219 -27.3134765625 219 4.521484375 420 c 0,3,4
 37.7822265625 630 37.7822265625 630 149.030273438 761 c 128,-1,5
 260.279296875 892 260.279296875 892 406.49609375 906 c 1,6,-1
 193.095703125 1377 l 1,7,-1
 215.90234375 1521 l 1,8,-1
 735.90234375 1521 l 1,9,-1
 713.095703125 1377 l 1,10,-1
 340.095703125 1377 l 1,11,-1
 545.813476562 908 l 1,12,-1
 525.698242188 781 l 1,13,14
 504.720703125 782.44140625 504.720703125 782.44140625 484.913085938 782.44140625 c 0,15,16
 408.514648438 782.44140625 408.514648438 782.44140625 349.530273438 761 c 0,17,18
 275.25390625 734 275.25390625 734 224.400390625 656 c 128,-1,19
 173.545898438 578 173.545898438 578 150.421875 432 c 0,20,21
 100.213867188 115 100.213867188 115 312.055664062 114 c 0,22,23
 358.055664062 114 358.055664062 114 391.431640625 129 c 128,-1,24
 424.807617188 144 424.807617188 144 456.716796875 175 c 1,25,26
 483.260742188 210 483.260742188 210 491.453125 227 c 128,-1,27
 499.645507812 244 499.645507812 244 499.655273438 263 c 1,28,-1
 512.03125 278 l 1,29,-1
 530.129882812 266 l 1,30,-1
 578.58984375 130 l 1,31,32
 508.96875 44 508.96875 44 434.346679688 8.5 c 128,-1,33
 359.723632812 -27 359.723632812 -27 278.723632812 -27 c 0,0,1
EndSplineSet
EndChar

StartChar: F
Encoding: 70 70 66
Width: 677
VWidth: 2441
GlyphClass: 2
Flags: HW
AnchorPoint: "Anchor-2" 230 0 basechar 0
AnchorPoint: "Anchor-0" 470.902 1521 basechar 0
LayerCount: 2
Fore
SplineSet
-62 0 m 1,0,-1
 179.219726562 1523 l 1,1,-1
 792.219726562 1523 l 1,2,-1
 769.887695312 1382 l 1,3,-1
 297.887695312 1382 l 1,4,-1
 220.279296875 892 l 1,5,-1
 596.279296875 892 l 1,6,-1
 574.10546875 752 l 1,7,-1
 198.10546875 752 l 1,8,-1
 79 0 l 1,9,-1
 -62 0 l 1,0,-1
EndSplineSet
EndChar

StartChar: G
Encoding: 71 71 67
Width: 768
VWidth: 2441
GlyphClass: 2
Flags: HW
AnchorPoint: "Anchor-2" 320 0 basechar 0
AnchorPoint: "Anchor-0" 574.902 1521 basechar 0
LayerCount: 2
Fore
SplineSet
335.19921875 -24 m 0,0,1
 150.19921875 -24 150.19921875 -24 73.2421875 172 c 128,-1,2
 -3.71484375 368 -3.71484375 368 55.6796875 743 c 0,3,4
 57.6240234375 755.922851562 57.6240234375 755.922851562 59.630859375 768.59375 c 0,5,6
 96.7568359375 1003 96.7568359375 1003 155.30078125 1151 c 0,7,8
 217.008789062 1307 217.008789062 1307 291.970703125 1392 c 128,-1,9
 366.93359375 1477 366.93359375 1477 441.764648438 1507.5 c 128,-1,10
 516.595703125 1538 516.595703125 1538 577.595703125 1538 c 0,11,12
 681.595703125 1538 681.595703125 1538 753.483398438 1471 c 128,-1,13
 825.372070312 1404 825.372070312 1404 846.216796875 1302 c 1,14,-1
 745.912109375 1218 l 1,15,-1
 722.903320312 1199 l 1,16,-1
 715.803710938 1211 l 1,17,18
 717.129882812 1232 717.129882812 1232 717.796875 1252 c 128,-1,19
 718.46484375 1272 718.46484375 1272 700.008789062 1307 c 0,20,21
 672.977539062 1351 672.977539062 1351 638.8828125 1372.5 c 128,-1,22
 604.788085938 1394 604.788085938 1394 552.788085938 1394 c 0,23,24
 481.788085938 1394 481.788085938 1394 414.338867188 1337.5 c 128,-1,25
 346.890625 1281 346.890625 1281 291.666992188 1147 c 128,-1,26
 236.443359375 1013 236.443359375 1013 199.22265625 778 c 0,27,28
 149.015625 461 149.015625 461 192.7734375 289 c 128,-1,29
 236.53125 117 236.53125 117 352.53125 117 c 0,30,31
 395.53125 117 395.53125 117 445.9609375 135.5 c 128,-1,32
 496.391601562 154 496.391601562 154 539.04296875 196 c 1,33,-1
 600.971679688 587 l 1,34,-1
 424.971679688 587 l 1,35,-1
 446.829101562 725 l 1,36,-1
 756.829101562 725 l 1,37,-1
 661.956054688 126 l 1,38,39
 576.444335938 47 576.444335938 47 495.321289062 11.5 c 128,-1,40
 414.19921875 -24 414.19921875 -24 335.19921875 -24 c 0,0,1
EndSplineSet
EndChar

StartChar: H
Encoding: 72 72 74
Width: 747
VWidth: 2441
GlyphClass: 2
Flags: HW
AnchorPoint: "Anchor-4" 583.688 762 basechar 0
AnchorPoint: "Anchor-2" 463 0 basechar 0
AnchorPoint: "Anchor-0" 703.902 1521 basechar 0
LayerCount: 2
Fore
SplineSet
178.90234375 1521 m 1,0,-1
 339.90234375 1521 l 1,1,-1
 337.209960938 1504 l 1,2,3
 324.993164062 1490 324.993164062 1490 320.299804688 1473 c 128,-1,4
 315.607421875 1456 315.607421875 1456 308.956054688 1414 c 2,5,-1
 222.635742188 869 l 1,6,-1
 595.635742188 869 l 1,7,-1
 698.90234375 1521 l 1,8,-1
 861.90234375 1521 l 1,9,-1
 859.209960938 1504 l 1,10,11
 844.993164062 1490 844.993164062 1490 839.799804688 1473 c 128,-1,12
 834.607421875 1456 834.607421875 1456 827.956054688 1414 c 2,13,-1
 604 0 l 1,14,-1
 455 0 l 1,15,-1
 570.145507812 727 l 1,16,-1
 200.145507812 727 l 1,17,-1
 85 0 l 1,18,-1
 -62 0 l 1,19,-1
 178.90234375 1521 l 1,0,-1
EndSplineSet
EndChar

StartChar: Hbar
Encoding: 294 294 75
Width: 717
VWidth: 2441
GlyphClass: 2
Flags: HW
AnchorPoint: "Anchor-4" 536.688 762 basechar 0
AnchorPoint: "Anchor-2" 416 0 basechar 0
AnchorPoint: "Anchor-0" 656.902 1521 basechar 0
LayerCount: 2
Fore
SplineSet
228.635742188 869 m 1,0,-1
 549.635742188 869 l 1,1,-1
 604.278320312 1214 l 1,2,-1
 283.278320312 1214 l 1,3,-1
 228.635742188 869 l 1,0,-1
94.2783203125 1214 m 1,4,-1
 115.977539062 1351 l 1,5,-1
 178.977539062 1351 l 1,6,-1
 205.90234375 1521 l 1,7,-1
 344.90234375 1521 l 1,8,-1
 342.209960938 1504 l 1,9,10
 331.993164062 1490 331.993164062 1490 326.799804688 1473 c 128,-1,11
 321.607421875 1456 321.607421875 1456 314.956054688 1414 c 2,12,-1
 304.977539062 1351 l 1,13,-1
 625.977539062 1351 l 1,14,-1
 652.90234375 1521 l 1,15,-1
 792.90234375 1521 l 1,16,-1
 790.209960938 1504 l 1,17,18
 777.993164062 1490 777.993164062 1490 772.799804688 1473 c 128,-1,19
 767.607421875 1456 767.607421875 1456 760.956054688 1414 c 2,20,-1
 750.977539062 1351 l 1,21,-1
 819.977539062 1351 l 1,22,-1
 798.278320312 1214 l 1,23,-1
 729.278320312 1214 l 1,24,-1
 537 0 l 1,25,-1
 410 0 l 1,26,-1
 525.145507812 727 l 1,27,-1
 206.145507812 727 l 1,28,-1
 91 0 l 1,29,-1
 -35 0 l 1,30,-1
 157.278320312 1214 l 1,31,-1
 94.2783203125 1214 l 1,4,-1
EndSplineSet
EndChar

StartChar: I
Encoding: 73 73 79
Width: 614
VWidth: 2441
GlyphClass: 2
Flags: HW
AnchorPoint: "Anchor-3" 402 0 basechar 0
AnchorPoint: "Anchor-2" 228 0 basechar 0
AnchorPoint: "Anchor-0" 449.902 1521 basechar 0
LayerCount: 2
Fore
SplineSet
-62 0 m 1,0,-1
 -39.984375 139 l 1,1,-1
 160.015625 139 l 1,2,-1
 356.887695312 1382 l 1,3,-1
 163.887695312 1382 l 1,4,-1
 185.90234375 1521 l 1,5,-1
 717.90234375 1521 l 1,6,-1
 695.887695312 1382 l 1,7,-1
 497.887695312 1382 l 1,8,-1
 300.698242188 137 l 1,9,-1
 509.698242188 137 l 1,10,-1
 488 0 l 1,11,-1
 -62 0 l 1,0,-1
EndSplineSet
EndChar

StartChar: J
Encoding: 74 74 94
Width: 767
VWidth: 2441
GlyphClass: 2
Flags: HW
AnchorPoint: "Anchor-2" 283 0 basechar 0
AnchorPoint: "Anchor-0" 660.902 1521 basechar 0
LayerCount: 2
Fore
SplineSet
185.723632812 -27 m 0,0,1
 29.7236328125 -27 29.7236328125 -27 -43.9443359375 114 c 1,2,-1
 51.6552734375 263 l 1,3,-1
 64.2978515625 286 l 1,4,-1
 77.03125 278 l 1,5,6
 81.021484375 259 81.021484375 259 80.1416015625 234.5 c 128,-1,7
 79.2607421875 210 79.2607421875 210 98.3505859375 179 c 1,8,9
 145.1640625 121 145.1640625 121 208.84765625 119 c 0,10,11
 281.84765625 119 281.84765625 119 334.865234375 207.5 c 128,-1,12
 387.881835938 296 387.881835938 296 421.458984375 508 c 2,13,-1
 559.887695312 1382 l 1,14,-1
 359.887695312 1382 l 1,15,-1
 381.90234375 1521 l 1,16,-1
 881.90234375 1521 l 1,17,-1
 859.887695312 1382 l 1,18,-1
 701.887695312 1382 l 1,19,-1
 563.776367188 510 l 2,20,21
 562.287109375 499.975585938 562.287109375 499.975585938 560.732421875 490.15625 c 0,22,23
 530.795898438 301.1484375 530.795898438 301.1484375 476.35546875 188.5 c 0,24,25
 419.086914062 70 419.086914062 70 342.905273438 21.5 c 128,-1,26
 266.723632812 -27 266.723632812 -27 185.723632812 -27 c 0,0,1
EndSplineSet
EndChar

StartChar: K
Encoding: 75 75 96
Width: 768
VWidth: 2441
GlyphClass: 1
Flags: HW
LayerCount: 2
Fore
SplineSet
271.204101562 740 m 1,0,-1
 175.614257812 610 l 1,1,-1
 79 0 l 1,2,-1
 -62 0 l 1,3,-1
 178.90234375 1521 l 1,4,-1
 341.90234375 1521 l 1,5,-1
 339.209960938 1504 l 1,6,7
 322.993164062 1490 322.993164062 1490 316.299804688 1473 c 128,-1,8
 309.607421875 1456 309.607421875 1456 302.956054688 1414 c 2,9,-1
 209.666992188 825 l 1,10,-1
 712.803710938 1533 l 1,11,12
 728.01171875 1528 728.01171875 1528 758.45703125 1524.5 c 128,-1,13
 788.90234375 1521 788.90234375 1521 813.90234375 1521 c 2,14,-1
 856.90234375 1521 l 1,15,-1
 387.943359375 852 l 1,16,-1
 642 0 l 1,17,-1
 479.416015625 -10 l 1,18,-1
 271.204101562 740 l 1,0,-1
EndSplineSet
EndChar

StartChar: uni0198
Encoding: 408 408 98
Width: 768
VWidth: 2441
GlyphClass: 1
Flags: HW
LayerCount: 2
Fore
SplineSet
178.90234375 1521 m 1,0,-1
 340.90234375 1521 l 1,1,-1
 338.209960938 1504 l 1,2,3
 321.993164062 1490 321.993164062 1490 315.299804688 1473 c 128,-1,4
 308.607421875 1456 308.607421875 1456 301.956054688 1414 c 2,5,-1
 208.666992188 825 l 1,6,7
 357.22265625 1100 357.22265625 1100 469.03515625 1253.5 c 128,-1,8
 580.846679688 1407 580.846679688 1407 665.666992188 1469 c 128,-1,9
 750.486328125 1531 750.486328125 1531 819.486328125 1531 c 0,10,11
 855.486328125 1531 855.486328125 1531 875.90234375 1521 c 1,12,-1
 846.02734375 1345 l 1,13,-1
 842.225585938 1321 l 1,14,-1
 833.225585938 1321 l 1,15,16
 824.443359375 1335 824.443359375 1335 814.52734375 1345 c 128,-1,17
 804.611328125 1355 804.611328125 1355 777.0859375 1358 c 2,18,-1
 770.0859375 1358 l 2,19,20
 754.0859375 1358 754.0859375 1358 727.051757812 1342 c 128,-1,21
 700.017578125 1326 700.017578125 1326 655.653320312 1279.5 c 128,-1,22
 611.288085938 1233 611.288085938 1233 544.137695312 1140.5 c 128,-1,23
 476.987304688 1048 476.987304688 1048 377.595703125 894 c 1,24,-1
 642 0 l 1,25,-1
 478.416015625 -10 l 1,26,-1
 272.829101562 725 l 1,27,28
 222 644 222 644 165.427734375 552 c 1,29,-1
 78 0 l 1,30,-1
 -62 0 l 1,31,-1
 178.90234375 1521 l 1,0,-1
EndSplineSet
EndChar

StartChar: L
Encoding: 76 76 99
Width: 714
VWidth: 2441
GlyphClass: 2
Flags: HW
AnchorPoint: "Anchor-4" 134.688 762 basechar 0
AnchorPoint: "Anchor-2" 257 0 basechar 0
AnchorPoint: "Anchor-1" 314.757 1116 basechar 0
AnchorPoint: "Anchor-0" 413.902 1521 basechar 0
LayerCount: 2
Fore
SplineSet
178.90234375 1521 m 1,0,-1
 346.90234375 1521 l 1,1,-1
 344.209960938 1504 l 1,2,3
 327.993164062 1490 327.993164062 1490 321.799804688 1473 c 128,-1,4
 315.607421875 1456 315.607421875 1456 308.956054688 1414 c 2,5,-1
 108.599609375 149 l 1,6,-1
 611.599609375 149 l 1,7,-1
 588 0 l 1,8,-1
 -62 0 l 1,9,-1
 178.90234375 1521 l 1,0,-1
EndSplineSet
EndChar

StartChar: uni01C7
Encoding: 455 455 100
Width: 690
VWidth: 2380
GlyphClass: 1
Flags: HW
LayerCount: 2
Fore
SplineSet
-46.478515625 98 m 1,0,-1
 178.90234375 1521 l 1,1,-1
 333.90234375 1521 l 1,2,3
 330.52734375 1506 330.52734375 1506 325.893554688 1502 c 0,4,5
 321.259765625 1498 321.259765625 1498 315.833984375 1489 c 0,6,7
 310.409179688 1480 310.409179688 1480 303.548828125 1443 c 2,8,-1
 111.586914062 231 l 1,9,-1
 355.586914062 231 l 1,10,11
 355.428710938 230 355.428710938 230 334.521484375 98 c 1,12,-1
 -46.478515625 98 l 1,0,-1
262.037109375 -246 m 0,13,14
 116.037109375 -246 116.037109375 -246 34.15234375 -119 c 1,15,-1
 142.900390625 12 l 1,16,17
 156.366210938 -4 156.366210938 -4 152.149414062 -18 c 0,18,19
 147.931640625 -32 147.931640625 -32 168.655273438 -59 c 0,20,21
 178.962890625 -76 178.962890625 -76 204.745117188 -90 c 0,22,23
 230.528320312 -104 230.528320312 -104 276.528320312 -104 c 0,24,25
 344.528320312 -104 344.528320312 -104 392.19921875 -24 c 0,26,27
 439.869140625 56 439.869140625 56 471.071289062 253 c 2,28,-1
 651.3125 1391 l 1,29,-1
 467.3125 1391 l 1,30,-1
 487.90234375 1521 l 1,31,-1
 803.90234375 1521 l 1,32,-1
 603.546875 256 l 1,33,34
 601.426757812 241.081054688 601.426757812 241.081054688 599.140625 226.6484375 c 0,0,0
 573.234375 63.0810546875 573.234375 63.0810546875 525.981445312 -38 c 0,1,2
 474.559570312 -148 474.559570312 -148 404.797851562 -197 c 0,3,4
 335.037109375 -246 335.037109375 -246 262.037109375 -246 c 0,13,14
EndSplineSet
EndChar

StartChar: Lcaron
Encoding: 317 317 102
Width: 714
VWidth: 2441
GlyphClass: 2
Flags: HW
AnchorPoint: "Anchor-4" 134.688 762 basechar 0
AnchorPoint: "Anchor-2" 257 0 basechar 0
AnchorPoint: "Anchor-1" 314.757 1116 basechar 0
AnchorPoint: "Anchor-0" 413.902 1521 basechar 0
LayerCount: 2
Fore
SplineSet
569.126953125 1011 m 1,0,-1
 522.887695312 1060 l 1,1,2
 569.96484375 1111 569.96484375 1111 602.780273438 1163.5 c 128,-1,3
 635.595703125 1216 635.595703125 1216 640.98046875 1250 c 0,4,5
 645.256835938 1277 645.256835938 1277 631.741210938 1299 c 128,-1,6
 618.225585938 1321 618.225585938 1321 604.869140625 1344 c 128,-1,7
 591.51171875 1367 591.51171875 1367 597.0546875 1402 c 0,8,9
 604.815429688 1451 604.815429688 1451 635.409179688 1480 c 128,-1,10
 666.001953125 1509 666.001953125 1509 702.001953125 1509 c 0,11,12
 737.001953125 1509 737.001953125 1509 761.379882812 1473.5 c 128,-1,13
 785.756835938 1438 785.756835938 1438 774.51171875 1367 c 0,14,15
 761.999023438 1288 761.999023438 1288 709.036132812 1203 c 128,-1,16
 656.07421875 1118 656.07421875 1118 569.126953125 1011 c 1,0,-1
178.90234375 1521 m 1,17,-1
 346.90234375 1521 l 1,18,-1
 344.209960938 1504 l 1,19,20
 327.993164062 1490 327.993164062 1490 321.799804688 1473 c 128,-1,21
 315.607421875 1456 315.607421875 1456 308.956054688 1414 c 2,22,-1
 108.599609375 149 l 1,23,-1
 611.599609375 149 l 1,24,-1
 588 0 l 1,25,-1
 -62 0 l 1,26,-1
 178.90234375 1521 l 1,17,-1
EndSplineSet
EndChar

StartChar: uni01C8
Encoding: 456 456 106
Width: 660
VWidth: 2363
GlyphClass: 1
Flags: HW
LayerCount: 2
Fore
SplineSet
186.037109375 -246 m 0,0,1
 108.037109375 -246 108.037109375 -246 58.4765625 -208.5 c 128,-1,2
 8.916015625 -171 8.916015625 -171 -24.421875 -110 c 1,3,-1
 85.384765625 34 l 1,4,5
 94.009765625 19 94.009765625 19 93.158203125 1 c 128,-1,6
 92.3076171875 -17 92.3076171875 -17 100.481445312 -38 c 128,-1,7
 108.655273438 -59 108.655273438 -59 143.903320312 -89 c 0,8,9
 161.528320312 -104 161.528320312 -104 178.2109375 -106 c 128,-1,10
 194.89453125 -108 194.89453125 -108 215.89453125 -108 c 0,11,12
 257.89453125 -108 257.89453125 -108 299.720703125 -87 c 128,-1,13
 341.546875 -66 341.546875 -66 374.866210938 -4 c 128,-1,14
 408.186523438 58 408.186523438 58 427.66796875 181 c 2,15,-1
 562.453125 1032 l 1,16,-1
 343.453125 1032 l 1,17,-1
 363.250976562 1157 l 1,18,-1
 706.250976562 1157 l 1,19,-1
 553.092773438 190 l 2,20,21
 528.2265625 33 528.2265625 33 473.1796875 -62 c 128,-1,22
 418.133789062 -157 418.133789062 -157 344.744140625 -200.5 c 128,-1,23
 271.354492188 -244 271.354492188 -244 186.037109375 -246 c 0,0,1
-39.66796875 141 m 1,24,-1
 179.853515625 1527 l 1,25,-1
 326.853515625 1527 l 1,26,27
 323.368164062 1505 323.368164062 1505 314.17578125 1488 c 128,-1,28
 304.983398438 1471 304.983398438 1471 301.657226562 1450 c 2,29,-1
 115.713867188 276 l 1,30,-1
 355.713867188 276 l 1,31,-1
 331.33203125 141 l 1,32,-1
 -39.66796875 141 l 1,24,-1
662.204101562 1384 m 0,33,34
 626.204101562 1384 626.204101562 1384 605.296875 1413 c 128,-1,35
 584.390625 1442 584.390625 1442 590.725585938 1482 c 0,36,37
 597.377929688 1524 597.377929688 1524 627.470703125 1553 c 128,-1,38
 657.564453125 1582 657.564453125 1582 693.564453125 1582 c 0,39,40
 731.564453125 1582 731.564453125 1582 753.3125 1552 c 128,-1,41
 775.061523438 1522 775.061523438 1522 768.725585938 1482 c 128,-1,42
 762.390625 1442 762.390625 1442 731.296875 1413 c 128,-1,43
 700.204101562 1384 700.204101562 1384 662.204101562 1384 c 0,33,34
EndSplineSet
EndChar

StartChar: Lslash
Encoding: 321 321 108
Width: 768
VWidth: 2441
GlyphClass: 1
Flags: HW
LayerCount: 2
Fore
SplineSet
18 0 m 1,0,-1
 111.60546875 591 l 1,1,-1
 25.111328125 550 l 1,2,-1
 49.3447265625 703 l 1,3,-1
 136.313476562 747 l 1,4,-1
 258.90234375 1521 l 1,5,-1
 411.90234375 1521 l 2,6,7
 418.90234375 1521 418.90234375 1521 419.110351562 1516 c 0,8,9
 417.52734375 1506 417.52734375 1506 406.73046875 1491.5 c 128,-1,10
 395.93359375 1477 395.93359375 1477 387.756835938 1438 c 2,11,-1
 287.182617188 803 l 1,12,-1
 567.08984375 935 l 2,13,14
 582.198242188 942 582.198242188 942 594.227539062 948.5 c 128,-1,15
 606.256835938 955 606.256835938 955 614.048828125 960 c 1,16,-1
 588.548828125 799 l 1,17,-1
 262.950195312 650 l 1,18,-1
 183.599609375 149 l 1,19,-1
 665.599609375 149 l 1,20,-1
 642 0 l 1,21,-1
 18 0 l 1,0,-1
EndSplineSet
EndChar

StartChar: M
Encoding: 77 77 109
Width: 768
VWidth: 2441
GlyphClass: 2
Flags: HW
AnchorPoint: "Anchor-2" 289 0 basechar 0
AnchorPoint: "Anchor-0" 529.902 1521 basechar 0
LayerCount: 2
Fore
SplineSet
-62 0 m 1,0,-1
 178.90234375 1521 l 1,1,-1
 288.90234375 1521 l 1,2,-1
 418.875 820 l 1,3,-1
 775.219726562 1523 l 1,4,-1
 883.219726562 1523 l 1,5,-1
 642 0 l 1,6,-1
 513 0 l 1,7,-1
 687.856445312 1104 l 1,8,-1
 388.735351562 535 l 1,9,-1
 343.735351562 535 l 1,10,-1
 237.748046875 1097 l 1,11,-1
 64 0 l 1,12,-1
 -62 0 l 1,0,-1
EndSplineSet
EndChar

StartChar: N
Encoding: 78 78 111
Width: 768
VWidth: 2441
GlyphClass: 2
Flags: HW
AnchorPoint: "Anchor-2" 280 0 basechar 0
AnchorPoint: "Anchor-0" 520.902 1521 basechar 0
LayerCount: 2
Fore
SplineSet
178.90234375 1521 m 1,0,-1
 311.90234375 1521 l 1,1,-1
 560.213867188 437 l 1,2,-1
 731.90234375 1521 l 1,3,-1
 882.90234375 1521 l 1,4,-1
 880.209960938 1504 l 1,5,6
 863.993164062 1490 863.993164062 1490 856.799804688 1473 c 128,-1,7
 849.607421875 1456 849.607421875 1456 842.956054688 1414 c 2,8,-1
 619 0 l 1,9,-1
 508 0 l 1,10,-1
 251.6171875 1153 l 1,11,-1
 69 0 l 1,12,-1
 -62 0 l 1,13,-1
 178.90234375 1521 l 1,0,-1
EndSplineSet
EndChar

StartChar: Eng
Encoding: 330 330 117
Width: 691
VWidth: 2344
GlyphClass: 2
Flags: HW
AnchorPoint: "Anchor-2" 271.184 159 basechar 0
AnchorPoint: "Anchor-0" 486.902 1521 basechar 0
LayerCount: 2
Fore
SplineSet
679.90234375 1521 m 1,0,-1
 805.90234375 1521 l 1,1,2
 803.84375 1508 803.84375 1508 797.6015625 1497 c 128,-1,3
 791.359375 1486 791.359375 1486 787.557617188 1462 c 2,4,-1
 581.18359375 159 l 2,5,6
 546.497070312 -60 546.497070312 -60 465.267578125 -153 c 128,-1,7
 384.037109375 -246 384.037109375 -246 277.037109375 -246 c 0,8,9
 202.037109375 -246 202.037109375 -246 152.58984375 -192 c 1,10,-1
 226.130859375 -56 l 1,11,12
 238.1796875 -62 238.1796875 -62 243.279296875 -74 c 128,-1,13
 248.37890625 -86 248.37890625 -86 259.13671875 -97 c 128,-1,14
 269.89453125 -108 269.89453125 -108 302.89453125 -108 c 0,15,16
 372.89453125 -108 372.89453125 -108 408.510742188 -31.5 c 128,-1,17
 444.126953125 45 444.126953125 45 471.78515625 207 c 1,18,-1
 243.635742188 1191 l 1,19,-1
 80.18359375 159 l 1,20,-1
 -36.81640625 159 l 1,21,-1
 178.90234375 1521 l 1,22,-1
 300.90234375 1521 l 1,23,-1
 526.26953125 551 l 1,24,-1
 679.90234375 1521 l 1,0,-1
EndSplineSet
EndChar

StartChar: O
Encoding: 79 79 120
Width: 768
VWidth: 2441
GlyphClass: 2
Flags: HW
AnchorPoint: "Anchor-4" 409.688 762 basechar 0
AnchorPoint: "Anchor-3" 352.801 24 basechar 0
AnchorPoint: "Anchor-2" 289 0 basechar 0
AnchorPoint: "Anchor-1" 718.856 1426 basechar 0
AnchorPoint: "Anchor-0" 529.902 1521 basechar 0
LayerCount: 2
Fore
SplineSet
307.055664062 114 m 0,0,1
 374.055664062 114 374.055664062 114 433.137695312 174.5 c 128,-1,2
 492.220703125 235 492.220703125 235 541.235351562 374 c 128,-1,3
 590.250976562 513 590.250976562 513 628.10546875 752 c 0,4,5
 682.272460938 1094 682.272460938 1094 646.134765625 1241.5 c 128,-1,6
 609.99609375 1389 609.99609375 1389 508.99609375 1389 c 0,7,8
 409.99609375 1389 409.99609375 1389 326.134765625 1241.5 c 128,-1,9
 242.272460938 1094 242.272460938 1094 188.10546875 752 c 0,10,11
 150.092773438 512 150.092773438 512 156.15625 373.5 c 128,-1,12
 162.220703125 235 162.220703125 235 202.137695312 174.5 c 128,-1,13
 242.055664062 114 242.055664062 114 307.055664062 114 c 0,0,1
284.723632812 -27 m 128,-1,15
 114.723632812 -27 114.723632812 -27 52.8916015625 154 c 128,-1,16
 -8.94140625 335 -8.94140625 335 57.10546875 752 c 0,17,18
 121.250976562 1157 121.250976562 1157 242.369140625 1344 c 128,-1,19
 363.486328125 1531 363.486328125 1531 531.486328125 1531 c 0,20,21
 701.486328125 1531 701.486328125 1531 763.448242188 1344.5 c 128,-1,22
 825.409179688 1158 825.409179688 1158 761.10546875 752 c 0,23,24
 695.05859375 335 695.05859375 335 574.891601562 154 c 128,-1,14
 454.723632812 -27 454.723632812 -27 284.723632812 -27 c 128,-1,15
EndSplineSet
Substitution2: "Single Substitution lookup 29 subtable" ordmasculine
Substitution2: "'aalt' Access All Alternates in Latin lookup 0 subtable" ordmasculine
EndChar

StartChar: Oslash
Encoding: 216 216 148
Width: 768
VWidth: 2441
GlyphClass: 2
Flags: HW
AnchorPoint: "Anchor-4" 409.688 762 basechar 0
AnchorPoint: "Anchor-3" 352.801 24 basechar 0
AnchorPoint: "Anchor-2" 289 0 basechar 0
AnchorPoint: "Anchor-1" 718.856 1426 basechar 0
AnchorPoint: "Anchor-0" 529.902 1521 basechar 0
LayerCount: 2
Fore
SplineSet
307.055664062 114 m 0,0,1
 374.055664062 114 374.055664062 114 433.137695312 174.5 c 128,-1,2
 492.220703125 235 492.220703125 235 541.235351562 374 c 128,-1,3
 590.250976562 513 590.250976562 513 628.10546875 752 c 0,4,5
 649.803710938 889 649.803710938 889 656.434570312 994 c 128,-1,6
 663.064453125 1099 663.064453125 1099 655.943359375 1174 c 1,7,-1
 180.577148438 212 l 1,8,9
 202.5 161 202.5 161 233.278320312 137.5 c 128,-1,10
 264.055664062 114 264.055664062 114 307.055664062 114 c 0,0,1
188.10546875 752 m 0,11,12
 168.1484375 626 168.1484375 626 160.547851562 527.5 c 128,-1,13
 152.947265625 429 152.947265625 429 156.860351562 359 c 1,14,-1
 625.008789062 1307 l 1,15,16
 588.592773438 1389.01171875 588.592773438 1389.01171875 510.875 1389.01171875 c 0,17,18
 509.938476562 1389.01171875 509.938476562 1389.01171875 508.99609375 1389 c 0,19,20
 409.99609375 1389 409.99609375 1389 326.134765625 1241.5 c 128,-1,21
 242.272460938 1094 242.272460938 1094 188.10546875 752 c 0,11,12
27.6865234375 -103 m 1,22,-1
 -49.1865234375 -58 l 1,23,-1
 54.599609375 149 l 1,24,25
 24.6455078125 244 24.6455078125 244 24.2451171875 393 c 128,-1,26
 23.8447265625 542 23.8447265625 542 57.10546875 752 c 0,27,28
 121.250976562 1157 121.250976562 1157 242.369140625 1344 c 128,-1,29
 363.486328125 1531 363.486328125 1531 531.486328125 1531 c 0,30,31
 637.486328125 1531 637.486328125 1531 701.241210938 1460 c 1,32,-1
 801.709960938 1665 l 1,33,-1
 874.94921875 1616 l 1,34,-1
 753.303710938 1372 l 1,35,36
 790.256835938 1277 790.256835938 1277 792.866210938 1123 c 128,-1,37
 795.474609375 969 795.474609375 969 761.10546875 752 c 0,38,39
 695.05859375 335 695.05859375 335 574.891601562 154 c 128,-1,40
 454.723632812 -27 454.723632812 -27 284.723632812 -27 c 0,41,42
 167.723632812 -27 167.723632812 -27 104.552734375 54 c 1,43,-1
 27.6865234375 -103 l 1,22,-1
EndSplineSet
EndChar

StartChar: OE
Encoding: 338 338 154
Width: 729
VWidth: 2441
GlyphClass: 1
Flags: HW
LayerCount: 2
Fore
SplineSet
183.58984375 130 m 0,0,1
 219.58984375 130 219.58984375 130 252.405273438 182.5 c 128,-1,2
 285.220703125 235 285.220703125 235 305.890625 315 c 1,3,-1
 443.52734375 1184 l 1,4,5
 446.573242188 1279 446.573242188 1279 431.97265625 1341.5 c 128,-1,6
 417.372070312 1404 417.372070312 1404 372.372070312 1404 c 0,7,8
 338.372070312 1404 338.372070312 1404 302.764648438 1346.5 c 128,-1,9
 267.157226562 1289 267.157226562 1289 228.142578125 1150 c 128,-1,10
 189.126953125 1011 189.126953125 1011 150.005859375 764 c 0,11,12
 102.490234375 464 102.490234375 464 109.040039062 297 c 128,-1,13
 115.58984375 130 115.58984375 130 183.58984375 130 c 0,0,1
139.307617188 -17 m 0,14,15
 69.3076171875 -17 69.3076171875 -17 28.6318359375 54.5 c 128,-1,16
 -12.0439453125 126 -12.0439453125 126 -14.1181640625 296 c 128,-1,17
 -16.1923828125 466 -16.1923828125 466 30.6884765625 762 c 0,18,19
 97.52734375 1184 97.52734375 1184 187.45703125 1363.5 c 128,-1,20
 277.38671875 1543 277.38671875 1543 388.38671875 1543 c 0,21,22
 420.38671875 1543 420.38671875 1543 446.194335938 1526 c 128,-1,23
 472.001953125 1509 472.001953125 1509 488.924804688 1458 c 1,24,-1
 499.219726562 1523 l 1,25,-1
 855.219726562 1523 l 1,26,-1
 832.887695312 1382 l 1,27,-1
 595.887695312 1382 l 1,28,-1
 514.319335938 867 l 1,29,-1
 718.319335938 867 l 1,30,-1
 695.037109375 720 l 1,31,-1
 491.037109375 720 l 1,32,-1
 399.490234375 142 l 1,33,-1
 632.490234375 142 l 1,34,-1
 610 0 l 1,35,-1
 256 0 l 1,36,-1
 267.086914062 70 l 1,37,38
 235.326171875 21 235.326171875 21 204.31640625 2 c 128,-1,39
 173.307617188 -17 173.307617188 -17 139.307617188 -17 c 0,14,15
EndSplineSet
EndChar

StartChar: P
Encoding: 80 80 155
Width: 754
VWidth: 2441
GlyphClass: 2
Flags: HW
AnchorPoint: "Anchor-2" 1 0 basechar 0
AnchorPoint: "Anchor-0" 509.902 1521 basechar 0
LayerCount: 2
Fore
SplineSet
213.766601562 813 m 1,0,-1
 393.766601562 813 l 2,1,2
 505.766601562 813 505.766601562 813 571.961914062 890 c 128,-1,3
 638.158203125 967 638.158203125 967 657.797851562 1091 c 0,4,5
 679.1796875 1226 679.1796875 1226 637.399414062 1300 c 128,-1,6
 595.620117188 1374 595.620117188 1374 484.620117188 1374 c 2,7,-1
 302.620117188 1374 l 1,8,-1
 213.766601562 813 l 1,0,-1
-62 0 m 1,9,-1
 178.90234375 1521 l 1,10,-1
 509.90234375 1521 l 2,11,12
 695.90234375 1521 695.90234375 1521 764.346679688 1407 c 128,-1,13
 832.791015625 1293 832.791015625 1293 801.748046875 1097 c 0,14,15
 770.071289062 897 770.071289062 897 662.014648438 783 c 128,-1,16
 553.958984375 669 553.958984375 669 385.958984375 669 c 2,17,-1
 190.958984375 669 l 1,18,-1
 85 0 l 1,19,-1
 -62 0 l 1,9,-1
EndSplineSet
EndChar

StartChar: Thorn
Encoding: 222 222 156
Width: 765
VWidth: 2441
GlyphClass: 1
Flags: HW
LayerCount: 2
Fore
SplineSet
163.46875 527 m 1,0,-1
 368.46875 527 l 2,1,2
 482.46875 527 482.46875 527 543.297851562 608 c 128,-1,3
 604.126953125 689 604.126953125 689 621.866210938 801 c 128,-1,4
 639.60546875 913 639.60546875 913 601.409179688 997 c 128,-1,5
 563.213867188 1081 563.213867188 1081 443.213867188 1081 c 2,6,-1
 251.213867188 1081 l 1,7,-1
 163.46875 527 l 1,0,-1
-62 0 m 1,8,-1
 178.90234375 1521 l 1,9,-1
 334.90234375 1521 l 2,10,11
 339.5859375 1519 339.5859375 1519 338.793945312 1514 c 0,12,13
 337.685546875 1507 337.685546875 1507 326.651367188 1491 c 128,-1,14
 315.6171875 1475 315.6171875 1475 310.1328125 1453 c 2,15,-1
 274.49609375 1228 l 1,16,-1
 484.49609375 1228 l 2,17,18
 603.49609375 1228 603.49609375 1228 671.388671875 1170.5 c 128,-1,19
 739.282226562 1113 739.282226562 1113 762.235351562 1018 c 128,-1,20
 785.188476562 923 785.188476562 923 766.658203125 806 c 0,21,22
 738.940429688 631 738.940429688 631 633.092773438 512 c 128,-1,23
 527.245117188 393 527.245117188 393 347.245117188 393 c 2,24,-1
 142.245117188 393 l 1,25,-1
 80 0 l 1,26,-1
 -62 0 l 1,8,-1
EndSplineSet
EndChar

StartChar: Q
Encoding: 81 81 157
Width: 768
VWidth: 2389
GlyphClass: 2
Flags: HW
AnchorPoint: "Anchor-2" 304.463 85 basechar 0
AnchorPoint: "Anchor-0" 532.062 1522 basechar 0
LayerCount: 2
Fore
SplineSet
333.46875 205 m 0,0,1
 390.46875 205 390.46875 205 447.758789062 260.5 c 128,-1,2
 505.049804688 316 505.049804688 316 554.951171875 438.5 c 128,-1,3
 604.853515625 561 604.853515625 561 636.84765625 763 c 0,4,5
 676.28515625 1012 676.28515625 1012 663.379882812 1151.5 c 128,-1,6
 650.474609375 1291 650.474609375 1291 608.422851562 1347.5 c 128,-1,7
 566.372070312 1404 566.372070312 1404 515.372070312 1404 c 0,8,9
 413.372070312 1404 413.372070312 1404 329.3515625 1255.5 c 128,-1,10
 245.33203125 1107 245.33203125 1107 201.6171875 831 c 0,11,12
 150.458984375 508 150.458984375 508 189.463867188 356.5 c 128,-1,13
 228.46875 205 228.46875 205 333.46875 205 c 0,0,1
491.196289062 -245 m 1,14,15
 470.911132812 -246.423828125 470.911132812 -246.423828125 452.342773438 -246.423828125 c 0,16,17
 327.428710938 -246.423828125 327.428710938 -246.423828125 280.173828125 -182 c 0,18,19
 225.89453125 -108 225.89453125 -108 254.086914062 70 c 1,20,21
 172.729492188 93 172.729492188 93 116.083984375 171 c 128,-1,22
 59.4375 249 59.4375 249 42.591796875 401.5 c 128,-1,23
 25.7451171875 554 25.7451171875 554 64.07421875 796 c 0,24,25
 98.9189453125 1016 98.9189453125 1016 152.909179688 1158 c 128,-1,26
 206.899414062 1300 206.899414062 1300 271.783203125 1384.5 c 128,-1,27
 336.666992188 1469 336.666992188 1469 404.630859375 1503.5 c 128,-1,28
 472.595703125 1538 472.595703125 1538 534.595703125 1538 c 0,29,30
 627.595703125 1538 627.595703125 1538 697.587890625 1468.5 c 128,-1,31
 767.580078125 1399 767.580078125 1399 791.080078125 1238 c 0,32,33
 813.658203125 1083.31347656 813.658203125 1083.31347656 772.637695312 824.31640625 c 0,34,35
 770.962890625 813.745117188 770.962890625 813.745117188 769.182617188 803 c 0,36,37
 712.956054688 448 712.956054688 448 615.768554688 279.5 c 128,-1,38
 518.581054688 111 518.581054688 111 370.086914062 70 c 1,39,40
 361.891601562 -7 361.891601562 -7 373.051757812 -56.5 c 128,-1,41
 384.2109375 -106 384.2109375 -106 449.2109375 -106 c 2,42,-1
 580.3203125 -99 l 1,43,-1
 555.196289062 -245 l 1,44,-1
 491.196289062 -245 l 1,14,15
EndSplineSet
EndChar

StartChar: R
Encoding: 82 82 158
Width: 763
VWidth: 2441
GlyphClass: 2
Flags: HW
AnchorPoint: "Anchor-2" 269 0 basechar 0
AnchorPoint: "Anchor-0" 509.902 1521 basechar 0
LayerCount: 2
Fore
SplineSet
211.55859375 818 m 1,0,-1
 386.55859375 818 l 2,1,2
 486.55859375 818 486.55859375 818 550.961914062 890 c 128,-1,3
 615.366210938 962 615.366210938 962 636.748046875 1097 c 0,4,5
 680.62109375 1374.00390625 680.62109375 1374.00390625 476.094726562 1374.00390625 c 0,6,7
 475.359375 1374.00390625 475.359375 1374.00390625 474.620117188 1374 c 2,8,-1
 299.620117188 1374 l 1,9,-1
 211.55859375 818 l 1,0,-1
-62 0 m 1,10,-1
 178.90234375 1521 l 1,11,-1
 483.90234375 1521 l 2,12,13
 671.90234375 1521 671.90234375 1521 741.688476562 1406 c 128,-1,14
 811.474609375 1291 811.474609375 1291 780.748046875 1097 c 0,15,16
 757.1484375 948 757.1484375 948 680.196289062 831.5 c 128,-1,17
 603.245117188 715 603.245117188 715 495.493164062 685 c 1,18,-1
 637 0 l 1,19,-1
 483 0 l 1,20,-1
 345.068359375 676 l 1,21,-1
 189.068359375 676 l 1,22,-1
 82 0 l 1,23,-1
 -62 0 l 1,10,-1
EndSplineSet
EndChar

StartChar: S
Encoding: 83 83 166
Width: 752
VWidth: 2441
GlyphClass: 2
Flags: HW
AnchorPoint: "Anchor-2" 272 0 basechar 0
AnchorPoint: "Anchor-0" 534.902 1521 basechar 0
LayerCount: 2
Fore
SplineSet
268.19921875 -24 m 0,0,1
 56.19921875 -24 56.19921875 -24 -37.6083984375 154 c 1,2,-1
 52 322 l 1,3,-1
 60.958984375 347 l 1,4,-1
 76.8505859375 340 l 1,5,6
 83.841796875 321 83.841796875 321 81.14453125 294.5 c 128,-1,7
 78.447265625 268 78.447265625 268 92.220703125 235 c 1,8,9
 126.142578125 184 126.142578125 184 176.995117188 151.5 c 128,-1,10
 227.84765625 119 227.84765625 119 299.84765625 119 c 0,11,12
 394.84765625 119 394.84765625 119 463.092773438 190 c 128,-1,13
 531.337890625 261 531.337890625 261 551.928710938 391 c 0,14,15
 561.90625 454 561.90625 454 554.826171875 504 c 128,-1,16
 547.745117188 554 547.745117188 554 508.1640625 604 c 128,-1,17
 468.583007812 654 468.583007812 654 378.245117188 715 c 1,18,19
 226.974609375 808 226.974609375 808 181.267578125 923.5 c 128,-1,20
 135.561523438 1039 135.561523438 1039 155.517578125 1165 c 0,21,22
 185.76953125 1356 185.76953125 1356 287.340820312 1448 c 128,-1,23
 388.912109375 1540 388.912109375 1540 540.912109375 1540 c 0,24,25
 724.912109375 1540 724.912109375 1540 808.194335938 1365 c 1,26,-1
 719.704101562 1223 l 1,27,-1
 704.377929688 1202 l 1,28,-1
 690.486328125 1209 l 1,29,30
 686.49609375 1228 686.49609375 1228 690.376953125 1252.5 c 128,-1,31
 694.256835938 1277 694.256835938 1277 677.641601562 1311 c 0,32,33
 646.403320312 1360 646.403320312 1360 605.728515625 1381 c 128,-1,34
 565.0546875 1402 565.0546875 1402 503.0546875 1402 c 0,35,36
 338.048828125 1402 338.048828125 1402 302.837890625 1179.68652344 c 0,37,38
 286.892578125 1079.00976562 286.892578125 1079.00976562 321.04296875 1001 c 128,-1,39
 355.188476562 923 355.188476562 923 492.567382812 837 c 0,40,41
 633.837890625 744 633.837890625 744 673.079101562 644.5 c 128,-1,42
 712.319335938 545 712.319335938 545 691.729492188 415 c 0,43,44
 672.881835938 296 672.881835938 296 620.463867188 195.5 c 128,-1,45
 568.046875 95 568.046875 95 480.123046875 35.5 c 128,-1,46
 392.19921875 -24 392.19921875 -24 268.19921875 -24 c 0,0,1
EndSplineSet
EndChar

StartChar: uni1E9E
Encoding: 7838 7838 177
Width: 768
VWidth: 2441
GlyphClass: 1
Flags: HW
LayerCount: 2
Fore
SplineSet
326.19921875 -24 m 0,0,1
 224.19921875 -24 224.19921875 -24 157.65234375 42 c 1,2,-1
 225.350585938 179 l 1,3,4
 274.1640625 121 274.1640625 121 338.84765625 119 c 0,5,6
 421.84765625 119 421.84765625 119 485.96875 205 c 128,-1,7
 550.08984375 291 550.08984375 291 577.490234375 464 c 0,8,9
 592.219726562 557 592.219726562 557 585.51953125 631.5 c 128,-1,10
 578.819335938 706 578.819335938 706 535.129882812 749 c 128,-1,11
 491.440429688 792 491.440429688 792 389.440429688 792 c 2,12,-1
 338.440429688 792 l 1,13,-1
 359.505859375 925 l 1,14,-1
 629.704101562 1223 l 1,15,16
 640.791015625 1293 640.791015625 1293 636.427734375 1357 c 128,-1,17
 632.064453125 1421 632.064453125 1421 602.478515625 1461.5 c 128,-1,18
 572.893554688 1502 572.893554688 1502 506.893554688 1502 c 0,19,20
 428.893554688 1502 428.893554688 1502 360.459960938 1423.5 c 128,-1,21
 292.02734375 1345 292.02734375 1345 262.725585938 1160 c 2,22,-1
 79 0 l 1,23,-1
 -62 0 l 1,24,-1
 116.657226562 1128 l 2,25,26
 148.334960938 1328 148.334960938 1328 212.677734375 1437.5 c 128,-1,27
 277.020507812 1547 277.020507812 1547 360.331054688 1590 c 128,-1,28
 443.641601562 1633 443.641601562 1633 527.641601562 1633 c 0,29,30
 679.641601562 1633 679.641601562 1633 736.71484375 1513.5 c 128,-1,31
 793.788085938 1394 793.788085938 1394 763.6953125 1204 c 1,32,-1
 489.713867188 920 l 1,33,34
 779.953125 871 779.953125 871 712.005859375 442 c 0,35,36
 672.884765625 195 672.884765625 195 567.541992188 85.5 c 128,-1,37
 462.19921875 -24 462.19921875 -24 326.19921875 -24 c 0,0,1
EndSplineSet
EndChar

StartChar: T
Encoding: 84 84 179
Width: 768
VWidth: 2441
GlyphClass: 2
Flags: HW
AnchorPoint: "Anchor-4" 405.688 762 basechar 0
AnchorPoint: "Anchor-2" 294 0 basechar 0
AnchorPoint: "Anchor-0" 534.902 1521 basechar 0
LayerCount: 2
Fore
SplineSet
216 0 m 1,0,-1
 434.412109375 1379 l 1,1,-1
 156.412109375 1379 l 1,2,-1
 179.219726562 1523 l 1,3,-1
 883.219726562 1523 l 1,4,-1
 860.412109375 1379 l 1,5,-1
 571.412109375 1379 l 1,6,-1
 353 0 l 1,7,-1
 216 0 l 1,0,-1
EndSplineSet
EndChar

StartChar: Tbar
Encoding: 358 358 180
Width: 768
VWidth: 2441
GlyphClass: 2
Flags: HW
AnchorPoint: "Anchor-4" 405.688 762 basechar 0
AnchorPoint: "Anchor-2" 294 0 basechar 0
AnchorPoint: "Anchor-0" 534.902 1521 basechar 0
LayerCount: 2
Fore
SplineSet
216 0 m 1,0,-1
 325.918945312 694 l 1,1,-1
 140.918945312 694 l 1,2,-1
 162.458984375 830 l 1,3,-1
 347.458984375 830 l 1,4,-1
 434.412109375 1379 l 1,5,-1
 156.412109375 1379 l 1,6,-1
 179.219726562 1523 l 1,7,-1
 883.219726562 1523 l 1,8,-1
 860.412109375 1379 l 1,9,-1
 571.412109375 1379 l 1,10,-1
 484.458984375 830 l 1,11,-1
 691.458984375 830 l 1,12,-1
 669.918945312 694 l 1,13,-1
 462.918945312 694 l 1,14,-1
 353 0 l 1,15,-1
 216 0 l 1,0,-1
EndSplineSet
EndChar

StartChar: U
Encoding: 85 85 186
Width: 754
VWidth: 2441
GlyphClass: 2
Flags: HW
AnchorPoint: "Anchor-3" 370.801 24 basechar 0
AnchorPoint: "Anchor-2" 279 0 basechar 0
AnchorPoint: "Anchor-1" 868.902 1521 basechar 0
AnchorPoint: "Anchor-0" 519.902 1521 basechar 0
LayerCount: 2
Fore
SplineSet
276.723632812 -27 m 0,0,1
 90.7236328125 -27 90.7236328125 -27 33.1298828125 105 c 128,-1,2
 -24.462890625 237 -24.462890625 237 16.55859375 496 c 2,3,-1
 178.90234375 1521 l 1,4,-1
 341.90234375 1521 l 1,5,-1
 339.209960938 1504 l 1,6,7
 322.993164062 1490 322.993164062 1490 316.299804688 1473 c 128,-1,8
 309.607421875 1456 309.607421875 1456 302.956054688 1414 c 2,9,-1
 157.2421875 494 l 2,10,11
 127.465820312 306 127.465820312 306 156.944335938 208 c 128,-1,12
 186.421875 110 186.421875 110 298.421875 110 c 0,13,14
 415.421875 110 415.421875 110 475.815429688 213.5 c 128,-1,15
 536.208007812 317 536.208007812 317 565.350585938 501 c 2,16,-1
 726.90234375 1521 l 1,17,-1
 868.90234375 1521 l 1,18,-1
 707.666992188 503 l 2,19,20
 662.369140625 217 662.369140625 217 553.546875 95 c 128,-1,21
 444.723632812 -27 444.723632812 -27 276.723632812 -27 c 0,0,1
EndSplineSet
EndChar

StartChar: V
Encoding: 86 86 209
Width: 776
VWidth: 2441
GlyphClass: 2
Flags: HW
AnchorPoint: "Anchor-2" 288 0 basechar 0
AnchorPoint: "Anchor-0" 528.902 1521 basechar 0
LayerCount: 2
Fore
SplineSet
258.416015625 -10 m 1,0,-1
 179.219726562 1523 l 1,1,-1
 312.219726562 1523 l 1,2,-1
 365.25390625 412 l 1,3,-1
 755.90234375 1521 l 1,4,-1
 882.90234375 1521 l 1,5,-1
 324.416015625 -10 l 1,6,-1
 258.416015625 -10 l 1,0,-1
EndSplineSet
EndChar

StartChar: W
Encoding: 87 87 210
Width: 729
VWidth: 2441
GlyphClass: 2
Flags: HW
AnchorPoint: "Anchor-2" 271 0 basechar 0
AnchorPoint: "Anchor-0" 521.902 1521 basechar 0
LayerCount: 2
Fore
SplineSet
65 0 m 1,0,-1
 156.90234375 1521 l 1,1,-1
 269.90234375 1521 l 1,2,-1
 205.645507812 566 l 1,3,-1
 480.1640625 1409 l 1,4,-1
 525.1640625 1409 l 1,5,-1
 530.329101562 564 l 1,6,-1
 756.90234375 1521 l 1,7,-1
 860.90234375 1521 l 1,8,-1
 473 0 l 1,9,-1
 422 0 l 1,10,-1
 423.46484375 950 l 1,11,-1
 120 0 l 1,12,-1
 65 0 l 1,0,-1
EndSplineSet
EndChar

StartChar: X
Encoding: 88 88 215
Width: 768
VWidth: 2441
GlyphClass: 2
Flags: HW
AnchorPoint: "Anchor-2" 284 0 basechar 0
AnchorPoint: "Anchor-0" 524.902 1521 basechar 0
LayerCount: 2
Fore
SplineSet
-62 0 m 1,0,-1
 329.90625 776 l 1,1,-1
 184.219726562 1523 l 1,2,-1
 325.219726562 1523 l 1,3,-1
 438.266601562 974 l 1,4,-1
 722.219726562 1523 l 1,5,-1
 852.219726562 1523 l 1,6,-1
 485.22265625 778 l 1,7,-1
 642 0 l 1,8,-1
 498 0 l 1,9,-1
 374.75390625 573 l 1,10,-1
 77 0 l 1,11,-1
 -62 0 l 1,0,-1
EndSplineSet
EndChar

StartChar: Y
Encoding: 89 89 216
Width: 768
VWidth: 2441
GlyphClass: 2
Flags: HW
AnchorPoint: "Anchor-2" 303 0 basechar 0
AnchorPoint: "Anchor-0" 528.902 1521 basechar 0
LayerCount: 2
Fore
SplineSet
232 0 m 1,0,-1
 324.971679688 587 l 1,1,-1
 178.90234375 1521 l 1,2,-1
 321.90234375 1521 l 1,3,-1
 433.450195312 811 l 1,4,-1
 748.90234375 1521 l 1,5,-1
 882.90234375 1521 l 1,6,-1
 462.971679688 587 l 1,7,-1
 370 0 l 1,8,-1
 232 0 l 1,0,-1
EndSplineSet
EndChar

StartChar: Z
Encoding: 90 90 226
Width: 768
VWidth: 2441
GlyphClass: 2
Flags: HW
AnchorPoint: "Anchor-2" 313 0 basechar 0
AnchorPoint: "Anchor-0" 536.902 1521 basechar 0
LayerCount: 2
Fore
SplineSet
-43.9443359375 114 m 1,0,-1
 677.095703125 1377 l 1,1,-1
 175.095703125 1377 l 1,2,-1
 197.90234375 1521 l 1,3,-1
 855.90234375 1521 l 1,4,-1
 837.846679688 1407 l 1,5,-1
 125.490234375 142 l 1,6,-1
 556.490234375 142 l 2,7,8
 598.490234375 142 598.490234375 142 616.203125 146.5 c 128,-1,9
 633.916015625 151 633.916015625 151 650.291992188 166 c 1,10,-1
 668.291992188 166 l 1,11,-1
 642 0 l 1,12,-1
 -62 0 l 1,13,-1
 -43.9443359375 114 l 1,0,-1
EndSplineSet
EndChar

StartChar: a
Encoding: 97 97 232
Width: 742
VWidth: 2441
GlyphClass: 2
Flags: HW
AnchorPoint: "Anchor-3" 535 0 basechar 0
AnchorPoint: "Anchor-2" 260 0 basechar 0
AnchorPoint: "Anchor-0" 455.856 1104 basechar 0
LayerCount: 2
Fore
SplineSet
118.881835938 296 m 0,0,1
 103.04296875 196 103.04296875 196 141.232421875 153 c 128,-1,2
 179.421875 110 179.421875 110 245.421875 110 c 0,3,4
 362.421875 110 362.421875 110 448.869140625 217 c 128,-1,5
 535.31640625 324 535.31640625 324 572.46875 527 c 1,6,7
 536.577148438 534 536.577148438 534 499.7109375 538 c 128,-1,8
 462.844726562 542 462.844726562 542 428.844726562 542 c 0,9,10
 304.844726562 542 304.844726562 542 222.712890625 487.5 c 128,-1,11
 140.580078125 433 140.580078125 433 118.881835938 296 c 0,0,1
211.723632812 -27 m 0,12,13
 76.7236328125 -27 76.7236328125 -27 19.7158203125 64.5 c 128,-1,14
 -37.2919921875 156 -37.2919921875 156 -15.91015625 291 c 0,15,16
 16.875 498 16.875 498 142.813476562 586 c 128,-1,17
 268.750976562 674 268.750976562 674 436.750976562 674 c 0,18,19
 504.750976562 674 504.750976562 674 593.375 659 c 1,20,21
 617.418945312 855 617.418945312 855 577.1640625 926 c 128,-1,22
 536.909179688 997 536.909179688 997 419.909179688 997 c 0,23,24
 309.909179688 997 309.909179688 997 198.595703125 894 c 1,25,-1
 153.809570312 1009 l 1,26,27
 287.702148438 1140.0078125 287.702148438 1140.0078125 450.095703125 1140.0078125 c 0,28,29
 451.326171875 1140.0078125 451.326171875 1140.0078125 452.55859375 1140 c 0,30,31
 564.55859375 1140 564.55859375 1140 634.272460938 1094 c 128,-1,32
 703.987304688 1048 703.987304688 1048 723.98046875 928 c 128,-1,33
 743.974609375 808 743.974609375 808 710.080078125 594 c 2,34,-1
 616 0 l 1,35,-1
 477 0 l 1,36,-1
 503.92578125 170 l 1,37,38
 438.602539062 48 438.602539062 48 359.163085938 10.5 c 128,-1,39
 279.723632812 -27 279.723632812 -27 211.723632812 -27 c 0,12,13
EndSplineSet
Substitution2: "Single Substitution lookup 29 subtable" ordfeminine
Substitution2: "'aalt' Access All Alternates in Latin lookup 0 subtable" ordfeminine
EndChar

StartChar: ae
Encoding: 230 230 257
Width: 697
VWidth: 2441
GlyphClass: 1
Flags: HW
LayerCount: 2
Fore
SplineSet
113.739257812 112 m 0,0,1
 159.739257812 112 159.739257812 112 188.583984375 171 c 128,-1,2
 217.428710938 230 217.428710938 230 236.474609375 325 c 128,-1,3
 255.521484375 420 255.521484375 420 273.260742188 532 c 1,4,5
 173.151367188 525 173.151367188 525 126.890625 476 c 128,-1,6
 80.6298828125 427 80.6298828125 427 60.1982421875 298 c 0,7,8
 43.884765625 195 43.884765625 195 57.8115234375 153.5 c 128,-1,9
 71.7392578125 112 71.7392578125 112 113.739257812 112 c 0,0,1
408.384765625 678 m 1,10,-1
 591.443359375 691 l 1,11,12
 615.834960938 845 615.834960938 845 611.426757812 924.5 c 128,-1,13
 607.017578125 1004 607.017578125 1004 562.017578125 1004 c 0,14,15
 512.017578125 1004 512.017578125 1004 472.555664062 919 c 128,-1,16
 433.092773438 834 433.092773438 834 408.384765625 678 c 1,10,-1
80.7236328125 -27 m 0,17,18
 -20.2763671875 -27 -20.2763671875 -27 -50.2294921875 68 c 128,-1,19
 -80.18359375 163 -80.18359375 163 -58.484375 300 c 0,20,21
 -28.7080078125 488 -28.7080078125 488 54.6748046875 572.5 c 128,-1,22
 138.05859375 657 138.05859375 657 295.750976562 674 c 1,23,24
 320.934570312 833 320.934570312 833 313.4765625 918.5 c 128,-1,25
 306.017578125 1004 306.017578125 1004 244.017578125 1004 c 0,26,27
 184.017578125 1004 184.017578125 1004 124.080078125 916 c 1,28,-1
 88.5517578125 1020 l 1,29,30
 167.399414062 1139 167.399414062 1139 274.55859375 1140 c 0,31,32
 326.55859375 1140 326.55859375 1140 363.22265625 1100 c 128,-1,33
 399.887695312 1060 399.887695312 1060 412.225585938 999 c 1,34,35
 441.887695312 1060 441.887695312 1060 491.72265625 1100 c 128,-1,36
 541.55859375 1140 541.55859375 1140 585.55859375 1140 c 0,37,38
 684.55859375 1140 684.55859375 1140 709.130859375 1020.5 c 128,-1,39
 733.704101562 901 733.704101562 901 694.583007812 654 c 2,40,-1
 680.329101562 564 l 1,41,-1
 388.111328125 550 l 1,42,-1
 368.629882812 427 l 2,43,44
 346.139648438 285 346.139648438 285 365.884765625 195 c 128,-1,45
 385.629882812 105 385.629882812 105 452.629882812 105 c 0,46,47
 485.629882812 105 485.629882812 105 516.510742188 129.5 c 128,-1,48
 547.391601562 154 547.391601562 154 571.568359375 193 c 1,49,-1
 611.9375 88 l 1,50,51
 574.384765625 34 574.384765625 34 527.0546875 3.5 c 128,-1,52
 479.723632812 -27 479.723632812 -27 427.723632812 -27 c 0,53,54
 371.723632812 -27 371.723632812 -27 326.138671875 13.5 c 128,-1,55
 280.552734375 54 280.552734375 54 266.323242188 122 c 1,56,57
 232.552734375 54 232.552734375 54 183.638671875 13.5 c 128,-1,58
 134.723632812 -27 134.723632812 -27 80.7236328125 -27 c 0,17,18
EndSplineSet
EndChar

StartChar: b
Encoding: 98 98 259
Width: 760
VWidth: 2441
GlyphClass: 2
Flags: HW
AnchorPoint: "Anchor-2" 448 0 basechar 0
AnchorPoint: "Anchor-0" 624.757 1116 basechar 0
LayerCount: 2
Fore
SplineSet
304.639648438 124 m 0,0,1
 358.639648438 124 358.639648438 124 411.049804688 155 c 128,-1,2
 463.459960938 186 463.459960938 186 506.110351562 278.5 c 128,-1,3
 548.760742188 371 548.760742188 371 578.537109375 559 c 0,4,5
 605.461914062 729 605.461914062 729 596.087890625 824.5 c 128,-1,6
 586.713867188 920 586.713867188 920 547.311523438 958.5 c 128,-1,7
 507.909179688 997 507.909179688 997 449.909179688 997 c 0,8,9
 358.909179688 997 358.909179688 997 281.9375 893 c 128,-1,10
 204.96484375 789 204.96484375 789 167.745117188 554 c 0,11,12
 133.375976562 337 133.375976562 337 164.0078125 230.5 c 128,-1,13
 194.639648438 124 194.639648438 124 304.639648438 124 c 0,0,1
299.723632812 -27 m 0,14,15
 229.723632812 -27 229.723632812 -27 174.088867188 19.5 c 128,-1,16
 118.453125 66 118.453125 66 100.282226562 147 c 1,17,-1
 45 0 l 1,18,-1
 -62 0 l 1,19,-1
 195.216796875 1624 l 1,20,-1
 354.216796875 1624 l 1,21,-1
 351.5234375 1607 l 1,22,23
 339.306640625 1593 339.306640625 1593 333.03515625 1575.5 c 128,-1,24
 326.762695312 1558 326.762695312 1558 320.110351562 1516 c 2,25,-1
 229.672851562 945 l 1,26,27
 282.51171875 1045 282.51171875 1045 360.193359375 1093.5 c 128,-1,28
 437.875 1142 437.875 1142 498.875 1142 c 0,29,30
 593.875 1142 593.875 1142 657.059570312 1089.5 c 128,-1,31
 720.245117188 1037 720.245117188 1037 739.60546875 913 c 128,-1,32
 758.96484375 789 758.96484375 789 724.12109375 569 c 0,33,34
 688.326171875 343 688.326171875 343 618.736328125 213 c 128,-1,35
 549.145507812 83 549.145507812 83 464.934570312 28 c 128,-1,36
 380.723632812 -27 380.723632812 -27 299.723632812 -27 c 0,14,15
EndSplineSet
EndChar

StartChar: c
Encoding: 99 99 261
Width: 749
VWidth: 2441
GlyphClass: 2
Flags: HW
AnchorPoint: "Anchor-2" 334 0 basechar 0
AnchorPoint: "Anchor-0" 510.757 1116 basechar 0
LayerCount: 2
Fore
SplineSet
326.723632812 -27 m 0,0,1
 142.723632812 -27 142.723632812 -27 62.615234375 127 c 128,-1,2
 -17.494140625 281 -17.494140625 281 26.2197265625 557 c 0,3,4
 57.8974609375 757 57.8974609375 757 131.908203125 886.5 c 128,-1,5
 205.918945312 1016 205.918945312 1016 304.500976562 1076.5 c 128,-1,6
 403.083007812 1137 403.083007812 1137 509.083007812 1137 c 0,7,8
 714.083007812 1137 714.083007812 1137 774.57421875 957 c 1,9,-1
 680.626953125 850 l 1,10,-1
 665.458984375 830 l 1,11,-1
 652.04296875 840 l 1,12,13
 653.051757812 859 653.051757812 859 651.616210938 881.5 c 128,-1,14
 650.1796875 904 650.1796875 904 631.08984375 935 c 1,15,16
 578.54296875 1001 578.54296875 1001 476.54296875 1001 c 0,17,18
 418.54296875 1001 418.54296875 1001 358.07421875 957 c 128,-1,19
 297.60546875 913 297.60546875 913 245.821289062 816.5 c 128,-1,20
 194.037109375 720 194.037109375 720 168.853515625 561 c 0,21,22
 132.424804688 331 132.424804688 331 185.740234375 222.5 c 128,-1,23
 239.055664062 114 239.055664062 114 354.055664062 114 c 0,24,25
 415.055664062 114 415.055664062 114 470.88671875 144.5 c 128,-1,26
 526.716796875 175 526.716796875 175 582.012695312 240 c 1,27,-1
 630.055664062 114 l 1,28,29
 562.494140625 41 562.494140625 41 485.108398438 7 c 128,-1,30
 407.723632812 -27 407.723632812 -27 326.723632812 -27 c 0,0,1
EndSplineSet
EndChar

StartChar: d
Encoding: 100 100 268
Width: 760
VWidth: 2441
GlyphClass: 2
Flags: HW
AnchorPoint: "Anchor-4" 692.235 1340 basechar 0
AnchorPoint: "Anchor-2" 292 0 basechar 0
AnchorPoint: "Anchor-1" 845.757 1116 basechar 0
AnchorPoint: "Anchor-0" 468.757 1116 basechar 0
LayerCount: 2
Fore
SplineSet
293.84765625 119 m 0,0,1
 391.84765625 119 391.84765625 119 457.953125 227 c 128,-1,2
 524.05859375 335 524.05859375 335 560.329101562 564 c 0,3,4
 595.490234375 786 595.490234375 786 560.858398438 892.5 c 128,-1,5
 526.225585938 999 526.225585938 999 431.225585938 999 c 0,6,7
 331.225585938 999 331.225585938 999 267.05078125 909.5 c 128,-1,8
 202.875 820 202.875 820 167.397460938 596 c 0,9,10
 138.25390625 412 138.25390625 412 147.361328125 308.5 c 128,-1,11
 156.46875 205 156.46875 205 196.158203125 162 c 128,-1,12
 235.84765625 119 235.84765625 119 293.84765625 119 c 0,0,1
248.19921875 -24 m 0,13,14
 167.19921875 -24 167.19921875 -24 103.013671875 28.5 c 128,-1,15
 38.8291015625 81 38.8291015625 81 15.33984375 210.5 c 128,-1,16
 -8.1494140625 340 -8.1494140625 340 28.12109375 569 c 0,17,18
 63.5986328125 793 63.5986328125 793 129.055664062 919 c 128,-1,19
 194.51171875 1045 194.51171875 1045 276.693359375 1093.5 c 128,-1,20
 358.875 1142 358.875 1142 443.875 1142 c 0,21,22
 609.875 1142 609.875 1142 630.366210938 962 c 1,23,-1
 735.216796875 1624 l 1,24,-1
 891.216796875 1624 l 1,25,-1
 888.5234375 1607 l 1,26,27
 872.306640625 1593 872.306640625 1593 866.03515625 1575.5 c 128,-1,28
 859.762695312 1558 859.762695312 1558 853.110351562 1516 c 2,29,-1
 642.400390625 173 l 2,30,31
 635.431640625 129 635.431640625 129 629.700195312 86.5 c 128,-1,32
 623.96875 44 623.96875 44 632 0 c 1,33,-1
 495 0 l 1,34,35
 486.54296875 35 486.54296875 35 487.641601562 73.5 c 128,-1,36
 488.739257812 112 488.739257812 112 495.708007812 156 c 1,37,38
 451.1953125 77 451.1953125 77 387.197265625 26.5 c 128,-1,39
 323.19921875 -24 323.19921875 -24 248.19921875 -24 c 0,13,14
EndSplineSet
EndChar

StartChar: eth
Encoding: 240 240 269
Width: 768
VWidth: 2441
GlyphClass: 1
Flags: HW
LayerCount: 2
Fore
SplineSet
318.421875 110 m 0,0,1
 375.421875 110 375.421875 110 427.940429688 148 c 128,-1,2
 480.459960938 186 480.459960938 186 525.139648438 285 c 128,-1,3
 569.819335938 384 569.819335938 384 598.645507812 566 c 0,4,5
 636.182617188 803 636.182617188 803 584.758789062 904.5 c 128,-1,6
 534.328125 1004.0390625 534.328125 1004.0390625 457.073242188 1004.0390625 c 0,0,0
 455.55078125 1004.0390625 455.55078125 1004.0390625 454.017578125 1004 c 0,7,8
 363.017578125 1004 363.017578125 1004 283.837890625 905 c 128,-1,9
 204.658203125 806 204.658203125 806 166.645507812 566 c 0,10,11
 128 322 128 322 175.2109375 216 c 128,-1,12
 222.421875 110 222.421875 110 318.421875 110 c 0,0,1
296.248046875 -30 m 0,13,14
 200.248046875 -30 200.248046875 -30 126.989257812 31.5 c 128,-1,15
 53.7294921875 93 53.7294921875 93 23.3447265625 220 c 128,-1,16
 -7.041015625 347 -7.041015625 347 24.3193359375 545 c 0,17,18
 72.3095703125 848 72.3095703125 848 195.934570312 994 c 128,-1,19
 319.55859375 1140 319.55859375 1140 456.55859375 1140 c 0,20,21
 518.55859375 1140 518.55859375 1140 565.415039062 1117 c 128,-1,22
 612.272460938 1094 612.272460938 1094 641.245117188 1037 c 1,23,24
 631.07421875 1118 631.07421875 1118 609.665039062 1197.5 c 128,-1,25
 588.256835938 1277 588.256835938 1277 551.34375 1347 c 1,26,-1
 339.672851562 1267 l 1,27,-1
 315.095703125 1377 l 1,28,-1
 495.865234375 1445 l 1,29,30
 467.151367188 1491 467.151367188 1491 431.407226562 1530.5 c 128,-1,31
 395.663085938 1570 395.663085938 1570 352.573242188 1601 c 1,32,-1
 507.75 1640 l 1,33,34
 541.682617188 1608 541.682617188 1608 571.401367188 1571.5 c 128,-1,35
 601.120117188 1535 601.120117188 1535 628.833984375 1489 c 1,36,-1
 815.080078125 1560 l 1,37,-1
 837.1328125 1453 l 1,38,-1
 682.104492188 1396 l 1,39,40
 751.396484375 1240 751.396484375 1240 765.674804688 1055.5 c 128,-1,41
 779.953125 871 779.953125 871 739.723632812 617 c 0,42,43
 684.447265625 268 684.447265625 268 573.84765625 119 c 128,-1,44
 463.248046875 -30 463.248046875 -30 296.248046875 -30 c 0,13,14
EndSplineSet
EndChar

StartChar: dcaron
Encoding: 271 271 270
Width: 790
VWidth: 2441
GlyphClass: 1
Flags: HW
LayerCount: 2
Fore
SplineSet
202.84765625 119 m 0,0,1
 262.84765625 119 262.84765625 119 316.02734375 218 c 128,-1,2
 369.208007812 317 369.208007812 317 408.329101562 564 c 0,3,4
 446.340820312 804 446.340820312 804 425.283203125 901.5 c 128,-1,5
 404.225585938 999 404.225585938 999 348.225585938 999 c 0,6,7
 301.225585938 999 301.225585938 999 263.76171875 964.5 c 128,-1,8
 226.297851562 930 226.297851562 930 198.59765625 843.5 c 128,-1,9
 170.897460938 757 170.897460938 757 145.397460938 596 c 0,10,11
 113.720703125 396 113.720703125 396 114.985351562 293.5 c 128,-1,12
 116.250976562 191 116.250976562 191 141.549804688 155 c 128,-1,13
 166.84765625 119 166.84765625 119 202.84765625 119 c 0,0,1
158.19921875 -24 m 0,14,15
 96.19921875 -24 96.19921875 -24 52.484375 22 c 128,-1,16
 8.7705078125 68 8.7705078125 68 -0.95703125 196 c 128,-1,17
 -10.68359375 324 -10.68359375 324 28.12109375 569 c 0,18,19
 65.3408203125 804 65.3408203125 804 115.059570312 928.5 c 128,-1,20
 164.779296875 1053 164.779296875 1053 224.827148438 1097.5 c 128,-1,21
 284.875 1142 284.875 1142 351.875 1142 c 0,22,23
 475.875 1142 475.875 1142 474.474609375 969 c 1,24,-1
 578.216796875 1624 l 1,25,-1
 715.216796875 1624 l 1,26,-1
 712.5234375 1607 l 1,27,28
 697.306640625 1593 697.306640625 1593 691.03515625 1575.5 c 128,-1,29
 684.762695312 1558 684.762695312 1558 678.110351562 1516 c 2,30,-1
 465.400390625 173 l 2,31,32
 458.431640625 129 458.431640625 129 453.200195312 86.5 c 128,-1,33
 447.96875 44 447.96875 44 451 0 c 1,34,-1
 338 0 l 1,35,36
 334.068359375 32 334.068359375 32 333.849609375 68.5 c 128,-1,37
 333.629882812 105 333.629882812 105 340.599609375 149 c 1,38,39
 307.037109375 76 307.037109375 76 259.618164062 26 c 128,-1,40
 212.19921875 -24 212.19921875 -24 158.19921875 -24 c 0,14,15
829.325195312 1631 m 0,41,42
 856.325195312 1631 856.325195312 1631 872.940429688 1597 c 128,-1,43
 889.5546875 1563 889.5546875 1563 880.209960938 1504 c 0,44,45
 868.331054688 1429 868.331054688 1429 822.967773438 1332 c 128,-1,46
 777.604492188 1235 777.604492188 1235 713.55859375 1140 c 1,47,-1
 666.051757812 1181 l 1,48,49
 698.020507812 1225 698.020507812 1225 728.3359375 1277.5 c 128,-1,50
 758.651367188 1330 758.651367188 1330 766.887695312 1382 c 0,51,52
 770.688476562 1406 770.688476562 1406 760.5390625 1424 c 128,-1,53
 750.390625 1442 750.390625 1442 741.270507812 1466.5 c 128,-1,54
 732.151367188 1491 732.151367188 1491 738.803710938 1533 c 128,-1,55
 745.455078125 1575 745.455078125 1575 770.390625 1603 c 128,-1,56
 795.325195312 1631 795.325195312 1631 829.325195312 1631 c 0,41,42
EndSplineSet
EndChar

StartChar: e
Encoding: 101 101 274
Width: 742
VWidth: 2441
GlyphClass: 2
Flags: HW
AnchorPoint: "Anchor-3" 412.801 24 basechar 0
AnchorPoint: "Anchor-2" 346 0 basechar 0
AnchorPoint: "Anchor-0" 473.757 1116 basechar 0
LayerCount: 2
Fore
SplineSet
186.484375 666 m 1,0,-1
 577.484375 666 l 1,1,2
 632.443359375 1013 632.443359375 1013 448.443359375 1013 c 0,3,4
 362.443359375 1013 362.443359375 1013 298.643554688 938.5 c 128,-1,5
 234.84375 864 234.84375 864 186.484375 666 c 1,0,-1
317.19921875 -24 m 0,6,7
 133.19921875 -24 133.19921875 -24 55.5556640625 114 c 128,-1,8
 -22.0869140625 252 -22.0869140625 252 25.7451171875 554 c 0,9,10
 74.0517578125 859 74.0517578125 859 193.463867188 1000.5 c 128,-1,11
 312.875 1142 312.875 1142 477.875 1142 c 0,12,13
 575.875 1142 575.875 1142 637.956054688 1092 c 128,-1,14
 700.036132812 1042 700.036132812 1042 722.243164062 926.5 c 128,-1,15
 744.450195312 811 744.450195312 811 713.08984375 613 c 0,16,17
 706.913085938 574 706.913085938 574 696.735351562 535 c 1,18,-1
 160.735351562 535 l 1,19,20
 128.198242188 298 128.198242188 298 178.46875 205 c 128,-1,21
 228.739257812 112 228.739257812 112 340.739257812 112 c 0,22,23
 406.739257812 112 406.739257812 112 456.173828125 140 c 128,-1,24
 505.608398438 168 505.608398438 168 548.686523438 219 c 1,25,-1
 614.907226562 132 l 1,26,27
 554.344726562 59 554.344726562 59 479.771484375 17.5 c 128,-1,28
 405.19921875 -24 405.19921875 -24 317.19921875 -24 c 0,6,7
EndSplineSet
EndChar

StartChar: uni029A
Encoding: 666 666 296
Width: 765
VWidth: 2441
GlyphClass: 1
Flags: HW
LayerCount: 2
Fore
SplineSet
286.53125 117 m 0,0,1
 396.53125 117 396.53125 117 471.02734375 218 c 128,-1,2
 545.524414062 319 545.524414062 319 583.853515625 561 c 0,3,4
 621.07421875 796 621.07421875 796 579.045898438 900 c 128,-1,5
 537.017578125 1004 537.017578125 1004 437.017578125 1004 c 0,6,7
 364.017578125 1004 364.017578125 1004 319.653320312 957.5 c 128,-1,8
 275.288085938 911 275.288085938 911 261.984375 827 c 0,9,10
 251.213867188 759 251.213867188 759 278.586914062 714 c 128,-1,11
 305.958984375 669 305.958984375 669 383.958984375 669 c 0,12,13
 393.958984375 669 393.958984375 669 403.958984375 669 c 128,-1,14
 413.958984375 669 413.958984375 669 423.276367188 671 c 1,15,-1
 399.676757812 522 l 1,16,17
 382.993164062 524 382.993164062 524 369.889648438 526.5 c 128,-1,18
 356.78515625 529 356.78515625 529 339.78515625 529 c 0,19,20
 266.78515625 529 266.78515625 529 209.866210938 479 c 128,-1,21
 152.947265625 429 152.947265625 429 138.05859375 335 c 0,22,23
 121.428710938 230 121.428710938 230 162.479492188 173.5 c 128,-1,24
 203.53125 117 203.53125 117 286.53125 117 c 0,0,1
264.990234375 -19 m 0,25,26
 118.307617188 -17 118.307617188 -17 42.8837890625 84.5 c 128,-1,27
 -32.5400390625 186 -32.5400390625 186 -6.7236328125 349 c 0,28,29
 9.58984375 452 9.58984375 452 63.8349609375 523 c 128,-1,30
 118.080078125 594 118.080078125 594 190.40625 615 c 1,31,32
 97.02734375 701 97.02734375 701 117.04296875 840 c 0,33,34
 139.850585938 984 139.850585938 984 239.704101562 1062 c 128,-1,35
 339.55859375 1140 339.55859375 1140 460.55859375 1140 c 0,36,37
 635.55859375 1140 635.55859375 1140 704.434570312 994 c 128,-1,38
 773.309570312 848 773.309570312 848 727.537109375 559 c 0,39,40
 681.921875 271 681.921875 271 560.797851562 125 c 128,-1,41
 441.310546875 -19.02734375 441.310546875 -19.02734375 269.702148438 -19.02734375 c 0,0,0
 267.3515625 -19.02734375 267.3515625 -19.02734375 264.990234375 -19 c 0,25,26
EndSplineSet
EndChar

StartChar: f
Encoding: 102 102 300
Width: 768
VWidth: 2441
GlyphClass: 1
Flags: HW
LayerCount: 2
Fore
SplineSet
251.958984375 991 m 1,0,-1
 94.958984375 991 l 1,1,-1
 114.756835938 1116 l 1,2,-1
 271.756835938 1116 l 1,3,-1
 286.486328125 1209 l 2,4,5
 321.96484375 1433 321.96484375 1433 424.69921875 1535.5 c 128,-1,6
 527.43359375 1638 527.43359375 1638 649.43359375 1638 c 0,7,8
 720.43359375 1638 720.43359375 1638 784.494140625 1600.5 c 128,-1,9
 848.5546875 1563 848.5546875 1563 877.04296875 1484 c 1,10,-1
 787.303710938 1372 l 1,11,-1
 769.977539062 1351 l 1,12,-1
 757.403320312 1360 l 1,13,14
 758.412109375 1379 758.412109375 1379 759.633789062 1402.5 c 128,-1,15
 760.856445312 1426 760.856445312 1426 743.924804688 1458 c 1,16,17
 702.477539062 1512 702.477539062 1512 634.477539062 1512 c 0,18,19
 561.477539062 1512 561.477539062 1512 501.994140625 1439.5 c 128,-1,20
 442.51171875 1367 442.51171875 1367 417.486328125 1209 c 2,21,-1
 402.756835938 1116 l 1,22,-1
 644.756835938 1116 l 1,23,-1
 624.958984375 991 l 1,24,-1
 382.958984375 991 l 1,25,-1
 226 0 l 1,26,-1
 95 0 l 1,27,-1
 251.958984375 991 l 1,0,-1
EndSplineSet
EndChar

StartChar: g
Encoding: 103 103 301
Width: 762
VWidth: 2298
GlyphClass: 2
Flags: HW
AnchorPoint: "Anchor-2" 217.363 -225 basechar 0
AnchorPoint: "Anchor-0" 400.391 1120 basechar 0
LayerCount: 2
Fore
SplineSet
62.4345703125 28 m 0,0,1
 50.7138671875 -46 50.7138671875 -46 97.4580078125 -85.5 c 128,-1,2
 144.202148438 -125 144.202148438 -125 237.202148438 -125 c 0,3,4
 335.202148438 -125 335.202148438 -125 383.43359375 -82.5 c 128,-1,5
 431.665039062 -40 431.665039062 -40 442.751953125 30 c 0,6,7
 454.155273438 102 454.155273438 102 430.119140625 136.5 c 128,-1,8
 406.083984375 171 406.083984375 171 304.083984375 171 c 0,9,10
 204.083984375 171 204.083984375 171 142.7265625 194 c 1,11,12
 106.5 161 106.5 161 89.21875 124.5 c 128,-1,13
 71.9375 88 71.9375 88 62.4345703125 28 c 0,0,1
316.447265625 590 m 0,14,15
 383.447265625 590 383.447265625 590 426.108398438 651 c 128,-1,16
 468.76953125 712 468.76953125 712 484.608398438 812 c 128,-1,17
 500.446289062 912 500.446289062 912 477.029296875 972.5 c 128,-1,18
 453.611328125 1033 453.611328125 1033 386.611328125 1033 c 0,19,20
 321.611328125 1033 321.611328125 1033 278.44921875 972 c 128,-1,21
 235.288085938 911 235.288085938 911 219.608398438 812 c 0,22,23
 203.76953125 712 203.76953125 712 227.608398438 651 c 128,-1,24
 251.447265625 590 251.447265625 590 316.447265625 590 c 0,14,15
296.490234375 464 m 0,25,26
 242.490234375 464 242.490234375 464 201.291992188 488 c 1,27,28
 170.481445312 445 170.481445312 445 162.829101562 403 c 0,29,30
 154.592773438 351 154.592773438 351 191.37109375 327.5 c 128,-1,31
 228.1484375 304 228.1484375 304 349.1484375 304 c 0,32,33
 501.1484375 304 501.1484375 304 542.403320312 233 c 128,-1,34
 583.658203125 162 583.658203125 162 566.39453125 53 c 0,35,36
 554.357421875 -23 554.357421875 -23 513.928710938 -92 c 128,-1,37
 473.5 -161 473.5 -161 400.768554688 -203.5 c 128,-1,38
 328.037109375 -246 328.037109375 -246 216.037109375 -246 c 0,39,40
 71.037109375 -246 71.037109375 -246 -4.826171875 -182 c 128,-1,41
 -80.689453125 -118 -80.689453125 -118 -60.416015625 10 c 0,42,43
 -47.5869140625 91 -47.5869140625 91 -7.638671875 147.5 c 128,-1,44
 32.310546875 204 32.310546875 204 81.5869140625 231 c 1,45,46
 35.189453125 279 35.189453125 279 48.96875 366 c 0,47,48
 56.5712890625 414 56.5712890625 414 81.619140625 458.5 c 128,-1,49
 106.666992188 503 106.666992188 503 142.477539062 546 c 1,50,51
 81.5244140625 641 81.5244140625 641 107.608398438 812 c 0,52,53
 131.999023438 966 131.999023438 966 212.704101562 1062 c 128,-1,54
 293.409179688 1158 293.409179688 1158 406.409179688 1158 c 0,55,56
 522.409179688 1158 522.409179688 1158 571.5703125 1058 c 1,57,58
 618.490234375 1108 618.490234375 1108 665.053710938 1130.5 c 0,59,60
 701.814453125 1148.26269531 701.814453125 1148.26269531 745.734375 1148.26269531 c 0,61,62
 757.446289062 1148.26269531 757.446289062 1148.26269531 769.666992188 1147 c 1,63,-1
 764.393554688 1019 l 1,64,65
 746.374023438 1021.40039062 746.374023438 1021.40039062 728.93359375 1021.40039062 c 0,66,67
 702.7734375 1021.40039062 702.7734375 1021.40039062 677.918945312 1016 c 0,68,69
 636.493164062 1007 636.493164062 1007 597.741210938 977 c 1,70,71
 609.530273438 905.959960938 609.530273438 905.959960938 595.796875 819.252929688 c 0,72,73
 595.224609375 815.639648438 595.224609375 815.639648438 594.608398438 812 c 0,74,75
 570.216796875 658 570.216796875 658 489.353515625 561 c 128,-1,76
 408.490234375 464 408.490234375 464 296.490234375 464 c 0,25,26
EndSplineSet
EndChar

StartChar: h
Encoding: 104 104 308
Width: 692
VWidth: 2441
GlyphClass: 2
Flags: HW
AnchorPoint: "Anchor-4" 255.235 1340 basechar 0
AnchorPoint: "Anchor-2" 248 0 basechar 0
AnchorPoint: "Anchor-0" 281.217 1624 basechar 0
LayerCount: 2
Fore
SplineSet
195.216796875 1624 m 1,0,-1
 351.216796875 1624 l 1,1,-1
 348.5234375 1607 l 1,2,3
 332.306640625 1593 332.306640625 1593 326.03515625 1575.5 c 128,-1,4
 319.762695312 1558 319.762695312 1558 313.110351562 1516 c 2,5,-1
 220.614257812 932 l 1,6,7
 282.927734375 1035 282.927734375 1035 355.901367188 1088.5 c 128,-1,8
 428.875 1142 428.875 1142 502.875 1142 c 0,9,10
 619.875 1142 619.875 1142 667.298828125 1040.5 c 128,-1,11
 714.72265625 939 714.72265625 939 673.068359375 676 c 2,12,-1
 566 0 l 1,13,-1
 432 0 l 1,14,-1
 538.276367188 671 l 2,15,16
 565.993164062 846 565.993164062 846 542.767578125 923.5 c 128,-1,17
 519.54296875 1001 519.54296875 1001 455.54296875 1001 c 0,18,19
 401.54296875 1001 401.54296875 1001 343.57421875 957 c 128,-1,20
 285.60546875 913 285.60546875 913 238.85546875 832.5 c 128,-1,21
 192.10546875 752 192.10546875 752 174.840820312 643 c 2,22,-1
 73 0 l 1,23,-1
 -62 0 l 1,24,-1
 195.216796875 1624 l 1,0,-1
EndSplineSet
EndChar

StartChar: i
Encoding: 105 105 313
Width: 584
VWidth: 2441
GlyphClass: 2
Flags: HW
AnchorPoint: "Anchor-3" 366 0 basechar 0
AnchorPoint: "Anchor-2" 201 0 basechar 0
AnchorPoint: "Anchor-0" 434.934 1477 basechar 0
LayerCount: 2
Fore
SplineSet
-62 0 m 1,0,-1
 -40.3017578125 137 l 1,1,-1
 159.698242188 137 l 1,2,-1
 293.05859375 979 l 1,3,-1
 103.05859375 979 l 1,4,-1
 124.756835938 1116 l 1,5,-1
 451.756835938 1116 l 1,6,-1
 296.698242188 137 l 1,7,-1
 479.698242188 137 l 1,8,-1
 458 0 l 1,9,-1
 -62 0 l 1,0,-1
415.51171875 1367 m 0,10,11
 376.51171875 1367 376.51171875 1367 352.080078125 1399 c 128,-1,12
 327.6484375 1431 327.6484375 1431 334.6171875 1475 c 0,13,14
 341.90234375 1521 341.90234375 1521 375.891601562 1552.5 c 128,-1,15
 409.880859375 1584 409.880859375 1584 449.880859375 1584 c 0,16,17
 491.880859375 1584 491.880859375 1584 515.733398438 1551.5 c 128,-1,18
 539.5859375 1519 539.5859375 1519 532.6171875 1475 c 128,-1,19
 525.6484375 1431 525.6484375 1431 491.580078125 1399 c 128,-1,20
 457.51171875 1367 457.51171875 1367 415.51171875 1367 c 0,10,11
EndSplineSet
Substitution2: "'locl' Localized Forms in Latin lookup 18 subtable" i.loclTRK
Substitution2: "'locl' Localized Forms in Latin lookup 17 subtable" i.loclTRK
Substitution2: "'locl' Localized Forms in Latin lookup 16 subtable" i.loclTRK
Substitution2: "'locl' Localized Forms in Latin lookup 15 subtable" i.loclTRK
Substitution2: "'locl' Localized Forms in Latin lookup 14 subtable" i.loclTRK
Substitution2: "Single Substitution lookup 4 subtable" dotlessi
Substitution2: "Single Substitution lookup 3 subtable" dotlessi
AlternateSubs2: "'aalt' Access All Alternates in Latin lookup 1 subtable" dotlessi i.loclTRK
EndChar

StartChar: dotlessi
Encoding: 305 305 314
Width: 584
VWidth: 2441
GlyphClass: 2
Flags: HW
AnchorPoint: "Anchor-3" 366 0 basechar 0
AnchorPoint: "Anchor-2" 201 0 basechar 0
AnchorPoint: "Anchor-0" 377.757 1116 basechar 0
LayerCount: 2
Fore
SplineSet
-62 0 m 1,0,-1
 -40.3017578125 137 l 1,1,-1
 159.698242188 137 l 1,2,-1
 293.05859375 979 l 1,3,-1
 103.05859375 979 l 1,4,-1
 124.756835938 1116 l 1,5,-1
 451.756835938 1116 l 1,6,-1
 296.698242188 137 l 1,7,-1
 479.698242188 137 l 1,8,-1
 458 0 l 1,9,-1
 -62 0 l 1,0,-1
EndSplineSet
EndChar

StartChar: j
Encoding: 106 106 329
Width: 614
VWidth: 2363
GlyphClass: 2
Flags: HW
AnchorPoint: "Anchor-2" 232.336 -282 basechar 0
AnchorPoint: "Anchor-0" 634.518 1487 basechar 0
LayerCount: 2
Fore
SplineSet
138.037109375 -246 m 0,0,1
 72.037109375 -246 72.037109375 -246 12.630859375 -217 c 128,-1,2
 -46.7763671875 -188 -46.7763671875 -188 -82.748046875 -131 c 1,3,-1
 8.7333984375 -8 l 1,4,-1
 22.42578125 9 l 1,5,-1
 35.4755859375 3 l 1,6,7
 39.7822265625 -14 39.7822265625 -14 39.5361328125 -34.5 c 128,-1,8
 39.2890625 -55 39.2890625 -55 58.6953125 -84 c 1,9,10
 94.994140625 -120 94.994140625 -120 157.994140625 -120 c 0,11,12
 225.994140625 -120 225.994140625 -120 280.213867188 -46 c 128,-1,13
 334.434570312 28 334.434570312 28 358.66796875 181 c 2,14,-1
 493.453125 1032 l 1,15,-1
 222.453125 1032 l 1,16,-1
 242.250976562 1157 l 1,17,-1
 638.250976562 1157 l 1,18,-1
 485.092773438 190 l 2,19,20
 459.276367188 27 459.276367188 27 409.571289062 -69 c 128,-1,21
 359.866210938 -165 359.866210938 -165 291.452148438 -205.5 c 128,-1,22
 223.037109375 -246 223.037109375 -246 138.037109375 -246 c 0,0,1
615.6796875 1387 m 0,23,24
 579.6796875 1387 579.6796875 1387 557.693359375 1415.5 c 128,-1,25
 535.70703125 1444 535.70703125 1444 542.04296875 1484 c 0,26,27
 548.694335938 1526 548.694335938 1526 579.288085938 1555 c 128,-1,28
 609.880859375 1584 609.880859375 1584 646.880859375 1584 c 0,29,30
 684.880859375 1584 684.880859375 1584 707.208984375 1554.5 c 128,-1,31
 729.536132812 1525 729.536132812 1525 723.04296875 1484 c 0,32,33
 716.70703125 1444 716.70703125 1444 685.193359375 1415.5 c 128,-1,34
 653.6796875 1387 653.6796875 1387 615.6796875 1387 c 0,23,24
EndSplineSet
Substitution2: "Single Substitution lookup 4 subtable" uni0237
Substitution2: "Single Substitution lookup 3 subtable" uni0237
Substitution2: "'aalt' Access All Alternates in Latin lookup 0 subtable" uni0237
EndChar

StartChar: uni0237
Encoding: 567 567 330
Width: 566
VWidth: 2286
GlyphClass: 2
Flags: HW
AnchorPoint: "Anchor-2" 222.494 -281 basechar 0
AnchorPoint: "Anchor-0" 561.757 1116 basechar 0
LayerCount: 2
Fore
SplineSet
131.037109375 -246 m 0,0,1
 67.037109375 -246 67.037109375 -246 8.97265625 -218 c 128,-1,2
 -49.0927734375 -190 -49.0927734375 -190 -83.2236328125 -134 c 1,3,-1
 5.6240234375 -15 l 1,4,-1
 18.31640625 2 l 1,5,-1
 31.2080078125 -5 l 1,6,7
 34.515625 -22 34.515625 -22 34.505859375 -41 c 128,-1,8
 34.4970703125 -60 34.4970703125 -60 53.9033203125 -89 c 1,9,10
 89.3603515625 -124 89.3603515625 -124 150.360351562 -124 c 0,11,12
 216.360351562 -124 216.360351562 -124 268.763671875 -52 c 128,-1,13
 321.16796875 20 321.16796875 20 344.608398438 168 c 2,14,-1
 475.592773438 995 l 1,15,-1
 212.592773438 995 l 1,16,-1
 231.756835938 1116 l 1,17,-1
 616.756835938 1116 l 1,18,-1
 468.034179688 177 l 2,19,20
 443.009765625 19 443.009765625 19 394.279296875 -74 c 128,-1,21
 345.549804688 -167 345.549804688 -167 279.293945312 -206.5 c 128,-1,22
 213.037109375 -246 213.037109375 -246 131.037109375 -246 c 0,0,1
EndSplineSet
EndChar

StartChar: k
Encoding: 107 107 332
Width: 768
VWidth: 2441
GlyphClass: 2
Flags: HW
AnchorPoint: "Anchor-2" 254 0 basechar 0
AnchorPoint: "Anchor-0" 264.217 1624 basechar 0
LayerCount: 2
Fore
SplineSet
255.844726562 542 m 1,0,-1
 140.62109375 408 l 1,1,-1
 73 0 l 1,2,-1
 -62 0 l 1,3,-1
 195.216796875 1624 l 1,4,-1
 352.216796875 1624 l 1,5,-1
 349.5234375 1607 l 1,6,7
 333.306640625 1593 333.306640625 1593 326.53515625 1575.5 c 128,-1,8
 319.762695312 1558 319.762695312 1558 313.110351562 1516 c 2,9,-1
 168.189453125 601 l 1,10,-1
 621.548828125 1121 l 1,11,12
 663.6484375 1109 663.6484375 1109 718.6484375 1109 c 2,13,-1
 762.6484375 1109 l 1,14,-1
 369.583007812 654 l 1,15,-1
 642 0 l 1,16,-1
 481.416015625 -10 l 1,17,-1
 255.844726562 542 l 1,0,-1
EndSplineSet
EndChar

StartChar: kgreenlandic
Encoding: 312 312 334
Width: 768
VWidth: 2441
GlyphClass: 2
Flags: HW
AnchorPoint: "Anchor-2" 258 0 basechar 0
AnchorPoint: "Anchor-0" 189.757 1116 basechar 0
LayerCount: 2
Fore
SplineSet
255.844726562 542 m 1,0,-1
 140.62109375 408 l 1,1,-1
 73 0 l 1,2,-1
 -62 0 l 1,3,-1
 114.756835938 1116 l 1,4,-1
 271.756835938 1116 l 1,5,-1
 269.064453125 1099 l 1,6,7
 252.846679688 1085 252.846679688 1085 246.075195312 1067.5 c 128,-1,8
 239.303710938 1050 239.303710938 1050 232.809570312 1009 c 2,9,-1
 168.189453125 601 l 1,10,-1
 621.548828125 1121 l 1,11,12
 663.6484375 1109 663.6484375 1109 718.6484375 1109 c 2,13,-1
 762.6484375 1109 l 1,14,-1
 369.583007812 654 l 1,15,-1
 642 0 l 1,16,-1
 481.416015625 -10 l 1,17,-1
 255.844726562 542 l 1,0,-1
EndSplineSet
EndChar

StartChar: l
Encoding: 108 108 335
Width: 647
VWidth: 2441
GlyphClass: 2
Flags: HW
AnchorPoint: "Anchor-4" 318.537 559 basechar 0
AnchorPoint: "Anchor-2" 230 0 basechar 0
AnchorPoint: "Anchor-1" 799.757 1116 basechar 0
AnchorPoint: "Anchor-0" 487.217 1624 basechar 0
LayerCount: 2
Fore
SplineSet
-62 0 m 1,0,-1
 -40.3017578125 137 l 1,1,-1
 183.698242188 137 l 1,2,-1
 397.517578125 1487 l 1,3,-1
 183.517578125 1487 l 1,4,-1
 205.216796875 1624 l 1,5,-1
 556.216796875 1624 l 1,6,-1
 320.698242188 137 l 1,7,-1
 542.698242188 137 l 1,8,-1
 521 0 l 1,9,-1
 -62 0 l 1,0,-1
EndSplineSet
EndChar

StartChar: ldot
Encoding: 320 320 339
Width: 723
VWidth: 2441
GlyphClass: 1
Flags: HW
LayerCount: 2
Fore
SplineSet
597.126953125 689 m 128,-1,1
 551.126953125 689 551.126953125 689 524.669921875 724 c 128,-1,2
 498.213867188 759 498.213867188 759 506.450195312 811 c 0,3,4
 514.2109375 860 514.2109375 860 552.25390625 895 c 128,-1,5
 590.297851562 930 590.297851562 930 635.297851562 930 c 0,6,7
 679.297851562 930 679.297851562 930 706.174804688 894.5 c 128,-1,8
 733.051757812 859 733.051757812 859 725.450195312 811 c 0,9,10
 717.688476562 762 717.688476562 762 680.408203125 725.5 c 128,-1,0
 643.126953125 689 643.126953125 689 597.126953125 689 c 128,-1,1
-62 0 m 1,11,-1
 -38.3017578125 137 l 1,12,-1
 157.698242188 137 l 1,13,-1
 371.517578125 1487 l 1,14,-1
 186.517578125 1487 l 1,15,-1
 208.216796875 1624 l 1,16,-1
 530.216796875 1624 l 1,17,-1
 294.698242188 137 l 1,18,-1
 546.698242188 137 l 1,19,-1
 525 0 l 1,20,-1
 -62 0 l 1,11,-1
EndSplineSet
EndChar

StartChar: uni01C9
Encoding: 457 457 341
Width: 750
VWidth: 2368
GlyphClass: 1
Flags: HW
LayerCount: 2
Fore
SplineSet
254.037109375 -246 m 0,0,1
 185.037109375 -246 185.037109375 -246 134.447265625 -215 c 128,-1,2
 83.857421875 -184 83.857421875 -184 55.7265625 -128 c 1,3,-1
 151.791992188 5 l 1,4,5
 160.416015625 -10 160.416015625 -10 160.936523438 -22.5 c 128,-1,6
 161.45703125 -35 161.45703125 -35 169.763671875 -52 c 128,-1,7
 178.071289062 -69 178.071289062 -69 211.953125 -95 c 0,8,9
 240.786132812 -115 240.786132812 -115 281.786132812 -115 c 0,10,11
 357.786132812 -115 357.786132812 -115 410.818359375 -48.5 c 128,-1,12
 463.850585938 18 463.850585938 18 489.826171875 182 c 2,13,-1
 624.927734375 1035 l 1,14,-1
 405.927734375 1035 l 1,15,-1
 425.725585938 1160 l 1,16,-1
 769.725585938 1160 l 1,17,-1
 616.092773438 190 l 2,18,19
 590.276367188 27 590.276367188 27 538.30859375 -67.5 c 128,-1,20
 486.341796875 -162 486.341796875 -162 412.84765625 -203 c 128,-1,21
 339.354492188 -244 339.354492188 -244 254.037109375 -246 c 0,0,1
726.154296875 1390 m 128,-1,23
 690.154296875 1390 690.154296875 1390 667.66796875 1418.5 c 128,-1,24
 645.182617188 1447 645.182617188 1447 651.67578125 1488 c 0,25,26
 658.328125 1530 658.328125 1530 688.920898438 1559 c 128,-1,27
 719.514648438 1588 719.514648438 1588 757.514648438 1588 c 0,28,29
 793.514648438 1588 793.514648438 1588 815.262695312 1558 c 128,-1,30
 837.01171875 1528 837.01171875 1528 830.67578125 1488 c 128,-1,31
 824.340820312 1448 824.340820312 1448 793.247070312 1419 c 128,-1,22
 762.154296875 1390 762.154296875 1390 726.154296875 1390 c 128,-1,23
-42.66796875 141 m 1,32,-1
 -19.7109375 267 l 1,33,-1
 75.2890625 267 l 1,34,-1
 270.259765625 1498 l 1,35,-1
 183.259765625 1498 l 1,36,-1
 203.216796875 1624 l 1,37,-1
 414.216796875 1624 l 1,38,-1
 199.2890625 267 l 1,39,-1
 387.2890625 267 l 1,40,-1
 367.33203125 141 l 1,41,-1
 -42.66796875 141 l 1,32,-1
EndSplineSet
EndChar

StartChar: lslash
Encoding: 322 322 343
Width: 649
VWidth: 2441
GlyphClass: 1
Flags: HW
LayerCount: 2
Fore
SplineSet
-62 0 m 1,0,-1
 -38.3017578125 137 l 1,1,-1
 183.698242188 137 l 1,2,-1
 270.176757812 683 l 1,3,-1
 133.723632812 617 l 1,4,-1
 159.22265625 778 l 1,5,-1
 295.834960938 845 l 1,6,-1
 397.517578125 1487 l 1,7,-1
 185.517578125 1487 l 1,8,-1
 207.216796875 1624 l 1,9,-1
 559.216796875 1624 l 1,10,-1
 445.49609375 906 l 1,11,-1
 607.166992188 986 l 1,12,-1
 580.55859375 818 l 1,13,-1
 419.6796875 743 l 1,14,-1
 323.698242188 137 l 1,15,-1
 544.698242188 137 l 1,16,-1
 523 0 l 1,17,-1
 -62 0 l 1,0,-1
EndSplineSet
EndChar

StartChar: m
Encoding: 109 109 344
Width: 768
VWidth: 2441
GlyphClass: 2
Flags: HW
AnchorPoint: "Anchor-2" 286 0 basechar 0
AnchorPoint: "Anchor-0" 632.757 1116 basechar 0
LayerCount: 2
Fore
SplineSet
-62 0 m 1,0,-1
 114.756835938 1116 l 1,1,-1
 240.756835938 1116 l 1,2,-1
 223.334960938 1006 l 1,3,4
 255.99609375 1067 255.99609375 1067 297.935546875 1104.5 c 128,-1,5
 339.875 1142 339.875 1142 383.875 1142 c 0,6,7
 432.875 1142 432.875 1142 460.088867188 1096 c 128,-1,8
 487.303710938 1050 487.303710938 1050 485.05859375 979 c 1,9,10
 516.620117188 1052 516.620117188 1052 569.748046875 1097 c 128,-1,11
 622.875 1142 622.875 1142 678.875 1142 c 0,12,13
 753.875 1142 753.875 1142 778.021484375 1064 c 0,14,15
 799.782226562 993.704101562 799.782226562 993.704101562 782.087890625 881.984375 c 0,16,17
 780.1484375 869.741210938 780.1484375 869.741210938 777.735351562 857 c 1,18,-1
 642 0 l 1,19,-1
 516 0 l 1,20,-1
 641.440429688 792 l 2,21,22
 657.75390625 895 657.75390625 895 659.119140625 941.5 c 128,-1,23
 660.483398438 988 660.483398438 988 649.859375 1003 c 128,-1,24
 639.235351562 1018 639.235351562 1018 619.235351562 1018 c 0,25,26
 588.235351562 1018 588.235351562 1018 558.266601562 974 c 128,-1,27
 528.297851562 930 528.297851562 930 504.58203125 865.5 c 128,-1,28
 480.866210938 801 480.866210938 801 470.729492188 737 c 2,29,-1
 354 0 l 1,30,-1
 226 0 l 1,31,-1
 348.90625 776 l 2,32,33
 370.921875 915 370.921875 915 366.182617188 964 c 128,-1,34
 361.443359375 1013 361.443359375 1013 321.443359375 1013 c 0,35,36
 290.443359375 1013 290.443359375 1013 246.040039062 941 c 128,-1,37
 201.635742188 869 201.635742188 869 181.99609375 745 c 2,38,-1
 64 0 l 1,39,-1
 -62 0 l 1,0,-1
EndSplineSet
EndChar

StartChar: n
Encoding: 110 110 346
Width: 695
VWidth: 2441
GlyphClass: 2
Flags: HW
AnchorPoint: "Anchor-2" 268 0 basechar 0
AnchorPoint: "Anchor-0" 454.757 1116 basechar 0
LayerCount: 2
Fore
SplineSet
-62 0 m 1,0,-1
 114.756835938 1116 l 1,1,-1
 249.756835938 1116 l 1,2,-1
 220.614257812 932 l 1,3,4
 346.875 1142 346.875 1142 511.875 1142 c 0,5,6
 584.875 1142 584.875 1142 631.27734375 1103.5 c 128,-1,7
 677.6796875 1065 677.6796875 1065 691.999023438 966 c 128,-1,8
 706.319335938 867 706.319335938 867 678.443359375 691 c 2,9,-1
 569 0 l 1,10,-1
 434 0 l 1,11,-1
 542.493164062 685 l 2,12,13
 570.2109375 860 570.2109375 860 544.876953125 930.5 c 128,-1,14
 519.54296875 1001 519.54296875 1001 455.54296875 1001 c 0,15,16
 404.54296875 1001 404.54296875 1001 345.469726562 959.5 c 128,-1,17
 286.396484375 918 286.396484375 918 240.201171875 841 c 128,-1,18
 194.005859375 764 194.005859375 764 177.05859375 657 c 2,19,-1
 73 0 l 1,20,-1
 -62 0 l 1,0,-1
EndSplineSet
EndChar

StartChar: eng
Encoding: 331 331 352
Width: 625
VWidth: 2288
GlyphClass: 1
Flags: HW
LayerCount: 2
Fore
SplineSet
197.037109375 -246 m 0,0,1
 115.037109375 -246 115.037109375 -246 63.173828125 -182 c 1,2,-1
 135.081054688 -50 l 1,3,4
 142.763671875 -52 142.763671875 -52 146.650390625 -68.5 c 128,-1,5
 150.537109375 -85 150.537109375 -85 164.661132812 -100 c 128,-1,6
 178.786132812 -115 178.786132812 -115 221.786132812 -115 c 0,7,8
 295.786132812 -115 295.786132812 -115 343.9609375 -25.5 c 128,-1,9
 392.13671875 64 392.13671875 64 418.428710938 230 c 2,10,-1
 496.987304688 726 l 2,11,12
 515.518554688 843 515.518554688 843 509.416992188 905.5 c 128,-1,13
 503.31640625 968 503.31640625 968 480.275390625 993 c 128,-1,14
 457.235351562 1018 457.235351562 1018 420.235351562 1018 c 0,15,16
 373.235351562 1018 373.235351562 1018 321.400390625 978 c 128,-1,17
 269.564453125 938 269.564453125 938 228.319335938 867 c 128,-1,18
 187.07421875 796 187.07421875 796 172.02734375 701 c 2,19,-1
 82.0654296875 133 l 1,20,-1
 -40.9345703125 133 l 1,21,-1
 115.232421875 1119 l 1,22,-1
 238.232421875 1119 l 1,23,-1
 212.57421875 957 l 1,24,25
 323.875 1142 323.875 1142 461.875 1142 c 0,26,27
 521.875 1142 521.875 1142 565.751953125 1106.5 c 128,-1,28
 609.629882812 1071 609.629882812 1071 624.954101562 981.5 c 128,-1,29
 640.279296875 892 640.279296875 892 614.62109375 730 c 2,30,-1
 539.229492188 254 l 2,31,32
 495.83203125 -20 495.83203125 -20 404.934570312 -133 c 128,-1,33
 314.037109375 -246 314.037109375 -246 197.037109375 -246 c 0,0,1
EndSplineSet
EndChar

StartChar: o
Encoding: 111 111 355
Width: 768
VWidth: 2441
GlyphClass: 2
Flags: HW
AnchorPoint: "Anchor-4" 379.537 559 basechar 0
AnchorPoint: "Anchor-3" 354.801 24 basechar 0
AnchorPoint: "Anchor-2" 291 0 basechar 0
AnchorPoint: "Anchor-1" 640.68 1065 basechar 0
AnchorPoint: "Anchor-0" 467.757 1116 basechar 0
LayerCount: 2
Fore
SplineSet
309.53125 117 m 0,0,1
 404.53125 117 404.53125 117 479.453125 227 c 128,-1,2
 554.375976562 337 554.375976562 337 589.853515625 561 c 0,3,4
 625.6484375 787 625.6484375 787 585.333007812 895.5 c 128,-1,5
 545.017578125 1004 545.017578125 1004 450.017578125 1004 c 128,-1,6
 355.017578125 1004 355.017578125 1004 279.491210938 896.5 c 128,-1,7
 203.96484375 789 203.96484375 789 167.853515625 561 c 0,8,9
 132.375976562 337 132.375976562 337 171.953125 227 c 128,-1,10
 211.53125 117 211.53125 117 309.53125 117 c 0,0,1
287.990234375 -19 m 128,-1,12
 132.990234375 -19 132.990234375 -19 56.560546875 123.5 c 128,-1,13
 -19.8701171875 266 -19.8701171875 266 26.537109375 559 c 0,14,15
 73.4189453125 855 73.4189453125 855 194.98828125 997.5 c 128,-1,16
 316.55859375 1140 316.55859375 1140 471.55859375 1140 c 128,-1,17
 626.55859375 1140 626.55859375 1140 701.98828125 997.5 c 128,-1,18
 777.418945312 855 777.418945312 855 730.537109375 559 c 0,19,20
 684.129882812 266 684.129882812 266 563.560546875 123.5 c 128,-1,11
 442.990234375 -19 442.990234375 -19 287.990234375 -19 c 128,-1,12
EndSplineSet
Substitution2: "Single Substitution lookup 29 subtable" ordmasculine
Substitution2: "'aalt' Access All Alternates in Latin lookup 0 subtable" ordmasculine
EndChar

StartChar: oslash
Encoding: 248 248 383
Width: 768
VWidth: 2441
GlyphClass: 2
Flags: HW
AnchorPoint: "Anchor-4" 379.537 559 basechar 0
AnchorPoint: "Anchor-3" 354.801 24 basechar 0
AnchorPoint: "Anchor-2" 291 0 basechar 0
AnchorPoint: "Anchor-1" 640.68 1065 basechar 0
AnchorPoint: "Anchor-0" 467.757 1116 basechar 0
LayerCount: 2
Fore
SplineSet
309.53125 117 m 0,0,1
 404.53125 117 404.53125 117 479.453125 227 c 128,-1,2
 554.375976562 337 554.375976562 337 589.853515625 561 c 0,3,4
 620.421875 754 620.421875 754 593.319335938 867 c 1,5,-1
 211.18359375 159 l 1,6,7
 247.53125 117 247.53125 117 309.53125 117 c 0,0,1
167.853515625 561 m 0,8,9
 139.186523438 380 139.186523438 380 159.921875 271 c 1,10,-1
 537.474609375 969 l 1,11,12
 502.017578125 1004 502.017578125 1004 450.017578125 1004 c 0,13,14
 355.017578125 1004 355.017578125 1004 279.333007812 895.5 c 128,-1,15
 203.6484375 787 203.6484375 787 167.853515625 561 c 0,8,9
53.41015625 -130 m 1,16,-1
 -33.4130859375 -91 l 1,17,-1
 68.8388671875 100 l 1,18,19
 24.92578125 170 24.92578125 170 13.21875 285.5 c 128,-1,20
 1.51171875 401 1.51171875 401 26.537109375 559 c 0,21,22
 73.4189453125 855 73.4189453125 855 193.48828125 997.5 c 128,-1,23
 313.55859375 1140 313.55859375 1140 471.55859375 1140 c 0,24,25
 550.55859375 1140 550.55859375 1140 608.856445312 1104 c 1,26,-1
 693.248046875 1258 l 1,27,-1
 780.595703125 1216 l 1,28,-1
 683.135742188 1030 l 1,29,30
 729.048828125 960 729.048828125 960 742.938476562 842.5 c 128,-1,31
 756.829101562 725 756.829101562 725 730.537109375 559 c 0,32,33
 684.129882812 266 684.129882812 266 564.060546875 123.5 c 128,-1,34
 443.990234375 -19 443.990234375 -19 287.990234375 -19 c 0,35,36
 199.990234375 -19 199.990234375 -19 136.80078125 24 c 1,37,-1
 53.41015625 -130 l 1,16,-1
EndSplineSet
EndChar

StartChar: oe
Encoding: 339 339 389
Width: 691
VWidth: 2441
GlyphClass: 1
Flags: HW
LayerCount: 2
Fore
SplineSet
132.055664062 114 m 0,0,1
 161.055664062 114 161.055664062 114 185.228515625 143.5 c 128,-1,2
 209.400390625 173 209.400390625 173 216.369140625 217 c 0,3,4
 217.161132812 222 217.161132812 222 218.299804688 235.5 c 128,-1,5
 219.4375 249 219.4375 249 221.239257812 273 c 0,6,7
 224.860351562 359 224.860351562 359 234.213867188 437 c 128,-1,8
 243.568359375 515 243.568359375 515 254.021484375 581 c 0,9,10
 276.51171875 723 276.51171875 723 294.916015625 795 c 128,-1,11
 313.319335938 867 313.319335938 867 315.853515625 883 c 0,12,13
 323.138671875 929 323.138671875 929 311.182617188 964 c 128,-1,14
 299.225585938 999 299.225585938 999 270.225585938 999 c 0,15,16
 227.225585938 999 227.225585938 999 175.892578125 908.5 c 128,-1,17
 124.55859375 818 124.55859375 818 87.337890625 583 c 0,18,19
 46.7919921875 327 46.7919921875 327 61.923828125 220.5 c 128,-1,20
 77.0556640625 114 77.0556640625 114 132.055664062 114 c 0,0,1
378.384765625 678 m 1,21,-1
 592.384765625 678 l 1,22,23
 619.78515625 851 619.78515625 851 609.456054688 931 c 128,-1,24
 599.126953125 1011 599.126953125 1011 538.126953125 1011 c 0,25,26
 483.126953125 1011 483.126953125 1011 443.34765625 924 c 128,-1,27
 403.567382812 837 403.567382812 837 378.384765625 678 c 1,21,-1
409.248046875 -30 m 128,-1,29
 309.248046875 -30 309.248046875 -30 253.661132812 61 c 1,30,31
 180.723632812 -27 180.723632812 -27 97.7236328125 -27 c 0,32,33
 60.7236328125 -27 60.7236328125 -27 27.5244140625 -3 c 128,-1,34
 -5.673828125 21 -5.673828125 21 -27.6953125 84 c 128,-1,35
 -49.7177734375 147 -49.7177734375 147 -51.08203125 261.5 c 128,-1,36
 -52.447265625 376 -52.447265625 376 -23.7802734375 557 c 0,37,38
 11.3818359375 779 11.3818359375 779 61.4169921875 905.5 c 128,-1,39
 111.453125 1032 111.453125 1032 170.267578125 1084.5 c 128,-1,40
 229.083007812 1137 229.083007812 1137 292.083007812 1137 c 0,41,42
 378.083007812 1137 378.083007812 1137 412.927734375 1035 c 1,43,44
 481.575195312 1137.00976562 481.575195312 1137.00976562 570.357421875 1137.00976562 c 0,0,0
 571.219726562 1137.00976562 571.219726562 1137.00976562 572.083007812 1137 c 0,45,46
 662.083007812 1137 662.083007812 1137 697.5859375 1036 c 128,-1,47
 733.08984375 935 733.08984375 935 694.443359375 691 c 2,48,-1
 670.52734375 540 l 1,49,-1
 354.52734375 540 l 1,50,51
 331.126953125 367 331.126953125 367 330.739257812 273 c 128,-1,52
 330.350585938 179 330.350585938 179 354.149414062 143 c 128,-1,53
 377.947265625 107 377.947265625 107 418.947265625 107 c 0,54,55
 463.947265625 107 463.947265625 107 502.723632812 134 c 128,-1,56
 541.5 161 541.5 161 572.78515625 207 c 1,57,-1
 608.313476562 103 l 1,58,28
 509.248046875 -30 509.248046875 -30 409.248046875 -30 c 128,-1,29
EndSplineSet
EndChar

StartChar: p
Encoding: 112 112 390
Width: 687
VWidth: 2304
GlyphClass: 2
Flags: HW
AnchorPoint: "Anchor-2" 279.848 119 basechar 0
AnchorPoint: "Anchor-0" 438.074 1118 basechar 0
LayerCount: 2
Fore
SplineSet
286.161132812 222 m 0,0,1
 334.161132812 222 334.161132812 222 380.17578125 250.5 c 128,-1,2
 426.189453125 279 426.189453125 279 465.810546875 365 c 128,-1,3
 505.431640625 451 505.431640625 451 532.198242188 620 c 0,4,5
 567.201171875 841 567.201171875 841 537.005859375 925 c 128,-1,6
 506.809570312 1009 506.809570312 1009 421.28515625 1012 c 0,7,8
 419.631835938 1012.04003906 419.631835938 1012.04003906 417.981445312 1012.04003906 c 0,9,10
 337.12109375 1012.04003906 337.12109375 1012.04003906 264.580078125 916 c 0,11,12
 190.55859375 818 190.55859375 818 153.655273438 585 c 0,13,14
 124.611328125 389 124.611328125 389 162.88671875 305.5 c 128,-1,15
 201.161132812 222 201.161132812 222 286.161132812 222 c 0,0,1
-100.962890625 -246 m 1,16,-1
 115.07421875 1118 l 1,17,-1
 238.07421875 1118 l 1,18,-1
 210.990234375 947 l 1,19,20
 250.245117188 1037 250.245117188 1037 314.401367188 1088.5 c 128,-1,21
 378.55859375 1140 378.55859375 1140 452.55859375 1140 c 0,22,23
 533.55859375 1140 533.55859375 1140 591.088867188 1096 c 128,-1,24
 648.620117188 1052 648.620117188 1052 670.540039062 941 c 128,-1,25
 692.458984375 830 692.458984375 830 660.1484375 626 c 0,26,27
 629.10546875 430 629.10546875 430 571.07421875 313 c 128,-1,28
 513.04296875 196 513.04296875 196 438.307617188 144 c 128,-1,29
 363.571289062 92 363.571289062 92 282.571289062 92 c 0,30,31
 217.571289062 92 217.571289062 92 169.223632812 134 c 128,-1,32
 120.875976562 176 120.875976562 176 100.595703125 250 c 1,33,-1
 22.037109375 -246 l 1,34,-1
 -100.962890625 -246 l 1,16,-1
EndSplineSet
EndChar

StartChar: thorn
Encoding: 254 254 391
Width: 705
VWidth: 2374
GlyphClass: 1
Flags: HW
LayerCount: 2
Fore
SplineSet
296.220703125 235 m 0,0,1
 345.220703125 235 345.220703125 235 392.892578125 264.5 c 128,-1,2
 440.565429688 294 440.565429688 294 481.502929688 382 c 128,-1,3
 522.440429688 470 522.440429688 470 550 644 c 0,4,5
 585.953125 871 585.953125 871 554.653320312 957.5 c 128,-1,6
 523.353515625 1044 523.353515625 1044 435.669921875 1046 c 0,7,8
 433.990234375 1046.0390625 433.990234375 1046.0390625 432.313476562 1046.0390625 c 0,0,0
 348.5 1046.0390625 348.5 1046.0390625 274.1484375 948 c 128,-1,9
 198.309570312 848 198.309570312 848 160.297851562 608 c 0,10,11
 130.303710938 406 130.303710938 406 169.262695312 320.5 c 128,-1,12
 208.220703125 235 208.220703125 235 296.220703125 235 c 0,0,1
195.216796875 1624 m 1,13,-1
 341.216796875 1624 l 1,14,-1
 338.682617188 1608 l 1,15,16
 323.623046875 1595 323.623046875 1595 317.588867188 1579 c 128,-1,17
 311.5546875 1563 311.5546875 1563 305.536132812 1525 c 2,18,-1
 219.375 981 l 1,19,20
 258.946289062 1073 258.946289062 1073 325.76171875 1125.5 c 128,-1,21
 392.577148438 1178 392.577148438 1178 467.577148438 1178 c 0,22,23
 550.577148438 1178 550.577148438 1178 610.44921875 1133 c 128,-1,24
 670.322265625 1088 670.322265625 1088 692.766601562 974 c 128,-1,25
 715.2109375 860 715.2109375 860 681.950195312 650 c 0,26,27
 649.956054688 448 649.956054688 448 590.450195312 328 c 128,-1,28
 530.944335938 208 530.944335938 208 453.549804688 155 c 128,-1,29
 376.155273438 102 376.155273438 102 293.155273438 102 c 0,30,31
 226.155273438 102 226.155273438 102 176.38671875 144.5 c 128,-1,32
 126.618164062 187 126.618164062 187 105.813476562 264 c 1,33,-1
 25.037109375 -246 l 1,34,-1
 -100.962890625 -246 l 1,35,-1
 195.216796875 1624 l 1,13,-1
EndSplineSet
EndChar

StartChar: q
Encoding: 113 113 392
Width: 686
VWidth: 2305
GlyphClass: 1
Flags: HW
LayerCount: 2
Fore
SplineSet
285.428710938 230 m 0,0,1
 364.428710938 230 364.428710938 230 433.608398438 329 c 128,-1,2
 502.788085938 428 502.788085938 428 537.474609375 647 c 0,3,4
 570.1015625 853 570.1015625 853 533.064453125 938 c 128,-1,5
 496.02734375 1023 496.02734375 1023 421.02734375 1023 c 0,6,7
 331.02734375 1023 331.02734375 1023 263.614257812 932 c 128,-1,8
 196.201171875 841 196.201171875 841 162.624023438 629 c 0,9,10
 99.4287109375 230 99.4287109375 230 285.428710938 230 c 0,0,1
398.037109375 -246 m 1,11,-1
 478.337890625 261 l 1,12,13
 390.98046875 97.90625 390.98046875 97.90625 252.19921875 97.90625 c 0,0,0
 248.875 97.90625 248.875 97.90625 245.521484375 98 c 0,14,15
 112.838867188 100 112.838867188 100 54.5615234375 234 c 128,-1,16
 -3.71484375 368 -3.71484375 368 36.5146484375 622 c 0,17,18
 68.033203125 821 68.033203125 821 127.748046875 936 c 128,-1,19
 187.461914062 1051 187.461914062 1051 264.985351562 1098.5 c 128,-1,20
 342.508789062 1146 342.508789062 1146 426.508789062 1146 c 0,21,22
 503.508789062 1146 503.508789062 1146 543.748046875 1097 c 128,-1,23
 583.987304688 1048 583.987304688 1048 594.31640625 968 c 1,24,-1
 618.232421875 1119 l 1,25,-1
 737.232421875 1119 l 1,26,-1
 521.037109375 -246 l 1,27,-1
 398.037109375 -246 l 1,11,-1
EndSplineSet
EndChar

StartChar: r
Encoding: 114 114 393
Width: 687
VWidth: 2441
GlyphClass: 2
Flags: HW
AnchorPoint: "Anchor-2" 231 0 basechar 0
AnchorPoint: "Anchor-0" 455.074 1118 basechar 0
LayerCount: 2
Fore
SplineSet
114.756835938 1116 m 1,0,-1
 263.756835938 1116 l 1,1,-1
 231.188476562 923 l 1,2,3
 283.611328125 1033 283.611328125 1033 366.243164062 1087.5 c 128,-1,4
 448.875 1142 448.875 1142 528.875 1142 c 0,5,6
 658.875 1142 658.875 1142 722.551757812 1020 c 1,7,-1
 646.853515625 883 l 1,8,-1
 635.051757812 859 l 1,9,-1
 620.319335938 867 l 1,10,11
 613.329101562 886 613.329101562 886 613.471679688 909 c 128,-1,12
 613.614257812 932 613.614257812 932 591.366210938 962 c 1,13,14
 547.334960938 1006 547.334960938 1006 498.334960938 1006 c 0,15,16
 440.334960938 1006 440.334960938 1006 374.20703125 961 c 128,-1,17
 308.080078125 916 308.080078125 916 254.508789062 824 c 128,-1,18
 200.9375 732 200.9375 732 178.60546875 591 c 2,19,-1
 84.68359375 -2 l 1,20,-1
 -62.31640625 -2 l 1,21,-1
 114.756835938 1116 l 1,0,-1
EndSplineSet
EndChar

StartChar: uni027B
Encoding: 635 635 399
Width: 733
VWidth: 2281
GlyphClass: 1
Flags: HW
LayerCount: 2
Fore
SplineSet
445.037109375 -246 m 0,0,1
 402.037109375 -246 402.037109375 -246 359.076171875 -220.5 c 128,-1,2
 316.115234375 -195 316.115234375 -195 295.092773438 -132 c 128,-1,3
 274.071289062 -69 274.071289062 -69 292.286132812 46 c 2,4,-1
 333.40625 293 l 1,5,6
 290.834960938 201 290.834960938 201 231.12890625 155.5 c 128,-1,7
 171.421875 110 171.421875 110 106.421875 110 c 0,8,9
 59.421875 110 59.421875 110 25.1689453125 130.5 c 128,-1,10
 -9.083984375 151 -9.083984375 151 -39.53125 205 c 1,11,-1
 24.474609375 325 l 1,12,-1
 34.958984375 347 l 1,13,-1
 42.326171875 343 l 1,14,15
 45.6337890625 326 45.6337890625 326 46.51953125 309.5 c 128,-1,16
 47.40625 293 47.40625 293 62.2392578125 273 c 0,17,18
 87.4873046875 243 87.4873046875 243 136.487304688 243 c 0,19,20
 205.487304688 243 205.487304688 243 277.791992188 327 c 128,-1,21
 350.095703125 411 350.095703125 411 379.397460938 596 c 2,22,-1
 462.07421875 1118 l 1,23,-1
 589.07421875 1118 l 1,24,-1
 419.286132812 46 l 2,25,26
 406.931640625 -32 406.931640625 -32 424.9375 -73 c 128,-1,27
 442.944335938 -114 442.944335938 -114 483.944335938 -114 c 0,28,29
 498.944335938 -114 498.944335938 -114 514.736328125 -109 c 128,-1,30
 530.528320312 -104 530.528320312 -104 545.428710938 -92 c 0,31,32
 560.012695312 -82 560.012695312 -82 564.150390625 -68.5 c 128,-1,33
 568.2890625 -55 568.2890625 -55 577.922851562 -51 c 1,34,-1
 595.807617188 -178 l 1,35,36
 533.037109375 -246 533.037109375 -246 445.037109375 -246 c 0,0,1
EndSplineSet
EndChar

StartChar: uni024D
Encoding: 589 589 402
Width: 768
VWidth: 2441
GlyphClass: 2
Flags: HW
AnchorPoint: "Anchor-2" 323 0 basechar 0
AnchorPoint: "Anchor-0" 545.074 1118 basechar 0
LayerCount: 2
Fore
SplineSet
4.521484375 420 m 1,0,-1
 26.2197265625 557 l 1,1,-1
 127.219726562 557 l 1,2,-1
 215.756835938 1116 l 1,3,-1
 359.756835938 1116 l 1,4,-1
 327.188476562 923 l 1,5,6
 377.611328125 1033 377.611328125 1033 458.743164062 1087.5 c 128,-1,7
 539.875 1142 539.875 1142 616.875 1142 c 0,8,9
 742.875 1142 742.875 1142 803.551757812 1020 c 1,10,-1
 728.853515625 883 l 1,11,-1
 718.051757812 859 l 1,12,-1
 703.319335938 867 l 1,13,14
 697.329101562 886 697.329101562 886 697.471679688 909 c 128,-1,15
 697.614257812 932 697.614257812 932 675.366210938 962 c 1,16,17
 632.334960938 1006 632.334960938 1006 586.334960938 1006 c 0,18,19
 530.334960938 1006 530.334960938 1006 466.20703125 961 c 128,-1,20
 402.080078125 916 402.080078125 916 349.508789062 824 c 128,-1,21
 296.9375 732 296.9375 732 274.60546875 591 c 2,22,-1
 269.219726562 557 l 1,23,-1
 472.219726562 557 l 1,24,-1
 450.521484375 420 l 1,25,-1
 247.521484375 420 l 1,26,-1
 180.68359375 -2 l 1,27,-1
 38.68359375 -2 l 1,28,-1
 105.521484375 420 l 1,29,-1
 4.521484375 420 l 1,0,-1
EndSplineSet
EndChar

StartChar: s
Encoding: 115 115 403
Width: 723
VWidth: 2441
GlyphClass: 1
Flags: HW
LayerCount: 2
Fore
SplineSet
263.19921875 -24 m 0,0,1
 149.19921875 -24 149.19921875 -24 75.638671875 13.5 c 128,-1,2
 2.0771484375 51 2.0771484375 51 -44.2607421875 112 c 1,3,-1
 48.546875 256 l 1,4,-1
 62.03125 278 l 1,5,-1
 75.921875 271 l 1,6,7
 79.9130859375 252 79.9130859375 252 81.349609375 229.5 c 128,-1,8
 82.78515625 207 82.78515625 207 100.350585938 179 c 1,9,10
 133.807617188 144 133.807617188 144 178.21875 124.5 c 128,-1,11
 222.629882812 105 222.629882812 105 285.629882812 105 c 0,12,13
 373.629882812 105 373.629882812 105 432.4453125 157.5 c 128,-1,14
 491.260742188 210 491.260742188 210 505.515625 300 c 0,15,16
 516.602539062 370 516.602539062 370 485.30859375 415.5 c 128,-1,17
 454.015625 461 454.015625 461 357.776367188 510 c 0,18,19
 228.75390625 573 228.75390625 573 159.950195312 650 c 128,-1,20
 91.1455078125 727 91.1455078125 727 111.735351562 857 c 0,21,22
 131.692382812 983 131.692382812 983 218.783203125 1062.5 c 128,-1,23
 305.875 1142 305.875 1142 457.875 1142 c 0,24,25
 574.875 1142 574.875 1142 642.27734375 1103.5 c 128,-1,26
 709.6796875 1065 709.6796875 1065 744.375 981 c 1,27,-1
 650.84375 864 l 1,28,-1
 635.518554688 843 l 1,29,-1
 620.943359375 852 l 1,30,31
 618.953125 871 618.953125 871 620.674804688 894.5 c 128,-1,32
 622.396484375 918 622.396484375 918 605.782226562 952 c 1,33,34
 576.325195312 987 576.325195312 987 533.938476562 1003.5 c 128,-1,35
 491.551757812 1020 491.551757812 1020 445.551757812 1020 c 0,36,37
 362.551757812 1020 362.551757812 1020 313.3203125 977.5 c 128,-1,38
 264.08984375 935 264.08984375 935 253.953125 871 c 0,39,40
 242.390625 798 242.390625 798 276.60546875 752 c 128,-1,41
 310.819335938 706 310.819335938 706 430.158203125 645 c 0,42,43
 517.397460938 596 517.397460938 596 571.482421875 555.5 c 128,-1,44
 625.568359375 515 625.568359375 515 643.594726562 461.5 c 128,-1,45
 661.62109375 408 661.62109375 408 648.31640625 324 c 0,46,47
 621.708007812 156 621.708007812 156 520.453125 66 c 128,-1,48
 419.19921875 -24 419.19921875 -24 263.19921875 -24 c 0,0,1
EndSplineSet
EndChar

StartChar: germandbls
Encoding: 223 223 414
Width: 768
VWidth: 2441
GlyphClass: 1
Flags: HW
LayerCount: 2
Fore
SplineSet
330.19921875 -24 m 0,0,1
 282.19921875 -24 282.19921875 -24 236.153320312 -8.5 c 128,-1,2
 190.108398438 7 190.108398438 7 158.65234375 42 c 1,3,-1
 237.716796875 175 l 1,4,5
 279.53125 117 279.53125 117 352.53125 117 c 0,6,7
 400.53125 117 400.53125 117 446.0546875 164.5 c 128,-1,8
 491.577148438 212 491.577148438 212 527.327148438 292.5 c 128,-1,9
 563.077148438 373 563.077148438 373 578.598632812 471 c 0,10,11
 599.981445312 606 599.981445312 606 561.7109375 699 c 128,-1,12
 523.440429688 792 523.440429688 792 388.440429688 792 c 2,13,-1
 337.440429688 792 l 1,14,-1
 358.505859375 925 l 1,15,-1
 421.505859375 925 l 2,16,17
 481.505859375 925 481.505859375 925 538.354492188 993.5 c 128,-1,18
 595.204101562 1062 595.204101562 1062 616.5859375 1197 c 0,19,20
 636.225585938 1321 636.225585938 1321 605.42578125 1407.5 c 128,-1,21
 574.625976562 1494 574.625976562 1494 494.625976562 1494 c 0,22,23
 405.625976562 1494 405.625976562 1494 340.01171875 1367 c 128,-1,24
 274.396484375 1240 274.396484375 1240 242.245117188 1037 c 2,25,-1
 78 0 l 1,26,-1
 -62 0 l 1,27,-1
 101.453125 1032 l 2,28,29
 136.138671875 1251 136.138671875 1251 196.625 1383.5 c 128,-1,30
 257.110351562 1516 257.110351562 1516 335.375976562 1574.5 c 128,-1,31
 413.641601562 1633 413.641601562 1633 500.641601562 1633 c 0,32,33
 642.641601562 1633 642.641601562 1633 716.006835938 1518.5 c 128,-1,34
 789.372070312 1404 789.372070312 1404 757.6953125 1204 c 0,35,36
 741.064453125 1099 741.064453125 1099 694.626953125 1011 c 128,-1,37
 648.188476562 923 648.188476562 923 578.745117188 876 c 1,38,39
 666.092773438 834 666.092773438 834 703.541015625 729.5 c 128,-1,40
 740.990234375 625 740.990234375 625 712.005859375 442 c 0,41,42
 676.52734375 218 676.52734375 218 570.86328125 97 c 128,-1,43
 465.19921875 -24 465.19921875 -24 330.19921875 -24 c 0,0,1
EndSplineSet
EndChar

StartChar: t
Encoding: 116 116 415
Width: 718
VWidth: 2441
GlyphClass: 2
Flags: HW
AnchorPoint: "Anchor-4" 302.688 762 basechar 0
AnchorPoint: "Anchor-2" 275 0 basechar 0
AnchorPoint: "Anchor-1" 524.757 1116 basechar 0
AnchorPoint: "Anchor-0" 450.173 1428 basechar 0
LayerCount: 2
Fore
SplineSet
339.19921875 -24 m 0,0,1
 239.19921875 -24 239.19921875 -24 194.123046875 35.5 c 128,-1,2
 149.046875 95 149.046875 95 150.903320312 233 c 0,3,4
 152.389648438 343.400390625 152.389648438 343.400390625 179.70703125 515.879882812 c 0,5,6
 186.537109375 559 186.537109375 559 194.981445312 606 c 2,7,-1
 261.256835938 955 l 1,8,-1
 89.2568359375 955 l 1,9,-1
 110.797851562 1091 l 1,10,-1
 284.797851562 1091 l 1,11,-1
 344.0546875 1402 l 1,12,-1
 491.380859375 1423 l 1,13,-1
 516.172851562 1428 l 1,14,-1
 515.48046875 1411 l 1,15,16
 500.470703125 1392 500.470703125 1392 489.278320312 1375 c 128,-1,17
 478.0859375 1358 478.0859375 1358 469.43359375 1316 c 2,18,-1
 420.797851562 1091 l 1,19,-1
 687.797851562 1091 l 1,20,-1
 666.256835938 955 l 1,21,-1
 401.256835938 955 l 1,22,-1
 332.080078125 594 l 2,23,24
 319.365234375 529.122070312 319.365234375 529.122070312 310.611328125 473.8515625 c 0,25,26
 283.474609375 302.51171875 283.474609375 302.51171875 294.3984375 223.5 c 0,27,28
 308.84765625 119 308.84765625 119 384.84765625 119 c 0,29,30
 440.84765625 119 440.84765625 119 492.811523438 153.5 c 128,-1,31
 544.776367188 188 544.776367188 188 588.478515625 224 c 1,32,-1
 606.413085938 91 l 1,33,34
 538.434570312 28 538.434570312 28 471.81640625 2 c 128,-1,35
 405.19921875 -24 405.19921875 -24 339.19921875 -24 c 0,0,1
EndSplineSet
EndChar

StartChar: tbar
Encoding: 359 359 416
Width: 726
VWidth: 2441
GlyphClass: 2
Flags: HW
AnchorPoint: "Anchor-4" 310.688 762 basechar 0
AnchorPoint: "Anchor-2" 283 0 basechar 0
AnchorPoint: "Anchor-1" 531.757 1116 basechar 0
AnchorPoint: "Anchor-0" 457.173 1428 basechar 0
LayerCount: 2
Fore
SplineSet
346.19921875 -24 m 0,0,1
 251.19921875 -24 251.19921875 -24 204.671875 29.5 c 128,-1,2
 158.145507812 83 158.145507812 83 157.126953125 206 c 0,3,4
 156.19921875 318.06640625 156.19921875 318.06640625 185.518554688 503.184570312 c 0,5,6
 188.37890625 521.244140625 188.37890625 521.244140625 191.52734375 540 c 1,7,-1
 23.52734375 540 l 1,8,-1
 45.068359375 676 l 1,9,-1
 215.068359375 676 l 1,10,-1
 268.256835938 955 l 1,11,-1
 96.2568359375 955 l 1,12,-1
 117.797851562 1091 l 1,13,-1
 291.797851562 1091 l 1,14,-1
 351.0546875 1402 l 1,15,-1
 498.380859375 1423 l 1,16,-1
 523.172851562 1428 l 1,17,-1
 522.48046875 1411 l 1,18,19
 507.470703125 1392 507.470703125 1392 496.778320312 1375 c 128,-1,20
 486.0859375 1358 486.0859375 1358 476.43359375 1316 c 2,21,-1
 427.797851562 1091 l 1,22,-1
 694.797851562 1091 l 1,23,-1
 673.256835938 955 l 1,24,-1
 408.256835938 955 l 1,25,-1
 355.068359375 676 l 1,26,-1
 606.068359375 676 l 1,27,-1
 584.52734375 540 l 1,28,-1
 328.52734375 540 l 1,29,30
 322.779296875 507.97265625 322.779296875 507.97265625 318.125976562 478.59375 c 0,31,32
 288.345703125 290.567382812 288.345703125 290.567382812 303.418945312 211 c 0,33,34
 320.84765625 119 320.84765625 119 391.84765625 119 c 0,35,36
 447.84765625 119 447.84765625 119 499.811523438 153.5 c 128,-1,37
 551.776367188 188 551.776367188 188 595.478515625 224 c 1,38,-1
 614.413085938 91 l 1,39,40
 546.434570312 28 546.434570312 28 479.31640625 2 c 128,-1,41
 412.19921875 -24 412.19921875 -24 346.19921875 -24 c 0,0,1
EndSplineSet
EndChar

StartChar: u
Encoding: 117 117 423
Width: 711
VWidth: 2441
GlyphClass: 2
Flags: HW
AnchorPoint: "Anchor-3" 476 0 basechar 0
AnchorPoint: "Anchor-2" 219 0 basechar 0
AnchorPoint: "Anchor-1" 739.757 1116 basechar 0
AnchorPoint: "Anchor-0" 426.757 1116 basechar 0
LayerCount: 2
Fore
SplineSet
204.723632812 -27 m 0,0,1
 118.723632812 -27 118.723632812 -27 64.8505859375 18 c 128,-1,2
 10.978515625 63 10.978515625 63 -2.4658203125 177 c 128,-1,3
 -15.91015625 291 -15.91015625 291 16.2421875 494 c 2,4,-1
 116.756835938 1116 l 1,5,-1
 258.756835938 1116 l 1,6,-1
 160.2421875 494 l 2,7,8
 133.31640625 324 133.31640625 324 141.25 241.5 c 128,-1,9
 149.18359375 159 149.18359375 159 180.302734375 134.5 c 128,-1,10
 211.421875 110 211.421875 110 255.421875 110 c 0,11,12
 330.421875 110 330.421875 110 402.46875 205 c 128,-1,13
 474.515625 300 474.515625 300 506.350585938 501 c 2,14,-1
 603.756835938 1116 l 1,15,-1
 745.756835938 1116 l 1,16,-1
 596.400390625 173 l 2,17,18
 589.431640625 129 589.431640625 129 584.700195312 86.5 c 128,-1,19
 579.96875 44 579.96875 44 585 0 c 1,20,-1
 451 0 l 1,21,22
 445.65234375 42 445.65234375 42 447.853515625 78 c 128,-1,23
 450.055664062 114 450.055664062 114 456.708007812 156 c 1,24,25
 411.5625 73 411.5625 73 348.642578125 23 c 128,-1,26
 285.723632812 -27 285.723632812 -27 204.723632812 -27 c 0,0,1
EndSplineSet
EndChar

StartChar: v
Encoding: 118 118 446
Width: 768
VWidth: 2441
GlyphClass: 2
Flags: HW
AnchorPoint: "Anchor-2" 294 0 basechar 0
AnchorPoint: "Anchor-0" 470.757 1116 basechar 0
LayerCount: 2
Fore
SplineSet
233 0 m 1,0,-1
 114.756835938 1116 l 1,1,-1
 255.756835938 1116 l 1,2,-1
 343.021484375 259 l 1,3,-1
 518.583007812 654 l 2,4,5
 578.96484375 789 578.96484375 789 618.600585938 903.5 c 128,-1,6
 658.235351562 1018 658.235351562 1018 686.756835938 1116 c 1,7,-1
 818.756835938 1116 l 1,8,9
 788.443359375 1013 788.443359375 1013 742.620117188 891 c 128,-1,10
 696.797851562 769 696.797851562 769 632.306640625 627 c 2,11,-1
 355 0 l 1,12,-1
 233 0 l 1,0,-1
EndSplineSet
EndChar

StartChar: w
Encoding: 119 119 447
Width: 749
VWidth: 2441
GlyphClass: 2
Flags: HW
AnchorPoint: "Anchor-2" 279 0 basechar 0
AnchorPoint: "Anchor-0" 455.757 1116 basechar 0
LayerCount: 2
Fore
SplineSet
58.68359375 -2 m 1,0,-1
 101.756835938 1116 l 1,1,-1
 215.756835938 1116 l 1,2,-1
 179.021484375 259 l 1,3,-1
 387.782226562 952 l 1,4,-1
 486.782226562 952 l 1,5,-1
 501.337890625 261 l 1,6,7
 585.080078125 594 585.080078125 594 627.282226562 791 c 128,-1,8
 669.483398438 988 669.483398438 988 683.896484375 1079 c 2,9,-1
 689.756835938 1116 l 1,10,-1
 805.756835938 1116 l 1,11,12
 739.775390625 832 739.775390625 832 669.666015625 553.5 c 128,-1,13
 599.555664062 275 599.555664062 275 520.68359375 -2 c 1,14,-1
 391.68359375 -2 l 1,15,-1
 393.166992188 664 l 1,16,-1
 180.68359375 -2 l 1,17,-1
 58.68359375 -2 l 1,0,-1
EndSplineSet
EndChar

StartChar: x
Encoding: 120 120 452
Width: 761
VWidth: 2441
GlyphClass: 2
Flags: HW
AnchorPoint: "Anchor-2" 284 0 basechar 0
AnchorPoint: "Anchor-0" 460.757 1116 basechar 0
LayerCount: 2
Fore
SplineSet
-62 0 m 1,0,-1
 295.645507812 566 l 1,1,-1
 119.756835938 1116 l 1,2,-1
 263.756835938 1116 l 1,3,-1
 394.719726562 718 l 1,4,-1
 643.756835938 1116 l 1,5,-1
 778.756835938 1116 l 1,6,-1
 445.75390625 573 l 1,7,-1
 635 0 l 1,8,-1
 486 0 l 1,9,-1
 347.521484375 420 l 1,10,-1
 87 0 l 1,11,-1
 -62 0 l 1,0,-1
EndSplineSet
EndChar

StartChar: y
Encoding: 121 121 453
Width: 705
VWidth: 2286
GlyphClass: 2
Flags: HW
AnchorPoint: "Anchor-2" 485.432 129 basechar 0
AnchorPoint: "Anchor-0" 464.757 1116 basechar 0
LayerCount: 2
Fore
SplineSet
58.037109375 -246 m 0,0,1
 -38.962890625 -246 -38.962890625 -246 -87.658203125 -162 c 1,2,-1
 -23.869140625 -56 l 1,3,-1
 -9.54296875 -35 l 1,4,-1
 2.03125 -44 l 1,5,6
 5.3388671875 -61 5.3388671875 -61 10.646484375 -78 c 128,-1,7
 15.953125 -95 15.953125 -95 38.626953125 -116 c 1,8,9
 61.3603515625 -124 61.3603515625 -124 85.0439453125 -126 c 0,10,11
 145.043945312 -126 145.043945312 -126 182.313476562 -58 c 128,-1,12
 219.583984375 10 219.583984375 10 271.490234375 142 c 1,13,-1
 271.807617188 144 l 1,14,-1
 149.756835938 1116 l 1,15,-1
 278.756835938 1116 l 1,16,-1
 362.869140625 378 l 1,17,-1
 495.51171875 723 l 2,18,19
 535.192382812 822 535.192382812 822 570.634765625 919.5 c 128,-1,20
 606.077148438 1017 606.077148438 1017 629.756835938 1116 c 1,21,-1
 755.756835938 1116 l 1,22,23
 729.077148438 1017 729.077148438 1017 689.421875 915 c 128,-1,24
 649.766601562 813 649.766601562 813 609.76953125 712 c 2,25,-1
 326.850585938 18 l 2,26,27
 267.043945312 -126 267.043945312 -126 199.540039062 -186 c 128,-1,28
 132.037109375 -246 132.037109375 -246 58.037109375 -246 c 0,0,1
EndSplineSet
EndChar

StartChar: z
Encoding: 122 122 463
Width: 747
VWidth: 2441
GlyphClass: 2
Flags: HW
AnchorPoint: "Anchor-2" 316 0 basechar 0
AnchorPoint: "Anchor-0" 492.757 1116 basechar 0
LayerCount: 2
Fore
SplineSet
-44.578125 110 m 1,0,-1
 568.266601562 974 l 1,1,-1
 128.266601562 974 l 1,2,-1
 150.756835938 1116 l 1,3,-1
 755.756835938 1116 l 1,4,-1
 738.334960938 1006 l 1,5,-1
 135.015625 139 l 1,6,-1
 536.015625 139 l 2,7,8
 578.015625 139 578.015625 139 595.307617188 144 c 128,-1,9
 612.599609375 149 612.599609375 149 629.81640625 163 c 1,10,-1
 646.81640625 163 l 1,11,-1
 621 0 l 1,12,-1
 -62 0 l 1,13,-1
 -44.578125 110 l 1,0,-1
EndSplineSet
EndChar

StartChar: u.i
Encoding: 65539 -1 468
Width: 679
VWidth: 2441
GlyphClass: 2
Flags: HW
AnchorPoint: "Anchor-3" 464 0 basechar 0
AnchorPoint: "Anchor-2" 222 0 basechar 0
AnchorPoint: "Anchor-1" 698.757 1116 basechar 0
AnchorPoint: "Anchor-0" 407.757 1116 basechar 0
LayerCount: 2
Fore
SplineSet
189.723632812 -27 m 0,0,1
 108.723632812 -27 108.723632812 -27 59.3505859375 18 c 128,-1,2
 9.978515625 63 9.978515625 63 -2.9658203125 177 c 128,-1,3
 -15.91015625 291 -15.91015625 291 16.2421875 494 c 2,4,-1
 116.756835938 1116 l 1,5,-1
 251.756835938 1116 l 1,6,-1
 153.2421875 494 l 2,7,8
 126.31640625 324 126.31640625 324 132.75 241.5 c 128,-1,9
 139.18359375 159 139.18359375 159 169.302734375 134.5 c 128,-1,10
 199.421875 110 199.421875 110 241.421875 110 c 0,11,12
 311.421875 110 311.421875 110 380.46875 205 c 128,-1,13
 449.515625 300 449.515625 300 481.350585938 501 c 2,14,-1
 578.756835938 1116 l 1,15,-1
 712.756835938 1116 l 1,16,-1
 563.400390625 173 l 2,17,18
 556.431640625 129 556.431640625 129 552.200195312 86.5 c 128,-1,19
 547.96875 44 547.96875 44 553 0 c 1,20,-1
 424 0 l 1,21,22
 418.65234375 42 418.65234375 42 422.353515625 78 c 128,-1,23
 426.055664062 114 426.055664062 114 432.708007812 156 c 1,24,25
 389.5625 73 389.5625 73 329.142578125 23 c 128,-1,26
 268.723632812 -27 268.723632812 -27 189.723632812 -27 c 0,0,1
EndSplineSet
EndChar

StartChar: r.serif
Encoding: 65540 -1 469
Width: 758
VWidth: 2441
GlyphClass: 1
Flags: HW
LayerCount: 2
Fore
SplineSet
-62.31640625 -2 m 1,0,-1
 -41.41015625 130 l 1,1,-1
 58.58984375 130 l 1,2,-1
 193.05859375 979 l 1,3,-1
 98.05859375 979 l 1,4,-1
 119.756835938 1116 l 1,5,-1
 363.756835938 1116 l 1,6,-1
 327.396484375 918 l 1,7,8
 380.235351562 1018 380.235351562 1018 453.396484375 1079 c 128,-1,9
 526.55859375 1140 526.55859375 1140 612.55859375 1140 c 0,10,11
 729.55859375 1140 729.55859375 1140 793.551757812 1020 c 1,12,-1
 710.943359375 852 l 1,13,14
 694.735351562 857 694.735351562 857 688.45703125 880.5 c 128,-1,15
 682.1796875 904 682.1796875 904 673.376953125 930.5 c 128,-1,16
 664.57421875 957 664.57421875 957 640.741210938 977 c 128,-1,17
 616.909179688 997 616.909179688 997 562.909179688 997 c 128,-1,18
 508.909179688 997 508.909179688 997 447.668945312 935.5 c 128,-1,19
 386.427734375 874 386.427734375 874 337.748046875 775 c 128,-1,20
 289.068359375 676 289.068359375 676 270.853515625 561 c 2,21,-1
 202.58984375 130 l 1,22,-1
 356.58984375 130 l 1,23,-1
 335.68359375 -2 l 1,24,-1
 -62.31640625 -2 l 1,0,-1
EndSplineSet
EndChar

StartChar: ordfeminine
Encoding: 170 170 470
Width: 661
VWidth: 2441
GlyphClass: 1
Flags: HW
LayerCount: 2
Fore
SplineSet
19.2509765625 513 m 1,0,-1
 616.250976562 513 l 1,1,-1
 596.611328125 389 l 1,2,-1
 -0.388671875 389 l 1,3,-1
 19.2509765625 513 l 1,0,-1
232.645507812 888 m 0,4,5
 221.083007812 815 221.083007812 815 244.698242188 781 c 128,-1,6
 268.313476562 747 268.313476562 747 315.313476562 747 c 0,7,8
 478.313476562 747 478.313476562 747 537.412109375 1057 c 1,9,10
 489.521484375 1064 489.521484375 1064 445.6796875 1065 c 0,11,12
 357.6796875 1065 357.6796875 1065 302.922851562 1025.5 c 128,-1,13
 248.166992188 986 248.166992188 986 232.645507812 888 c 0,4,5
279.098632812 632 m 0,14,15
 184.098632812 632 184.098632812 632 141.344726562 703 c 128,-1,16
 98.58984375 774 98.58984375 774 115.219726562 879 c 0,17,18
 140.719726562 1040 140.719726562 1040 235.227539062 1109.5 c 128,-1,19
 329.735351562 1179 329.735351562 1179 458.735351562 1179 c 0,20,21
 497.735351562 1179 497.735351562 1179 552.151367188 1169 c 1,22,23
 569.958984375 1313 569.958984375 1313 545.45703125 1363.5 c 128,-1,24
 520.956054688 1414 520.956054688 1414 441.956054688 1414 c 0,25,26
 360.956054688 1414 360.956054688 1414 283.91796875 1338 c 1,27,-1
 241.6484375 1431 l 1,28,29
 342.977539062 1533.00976562 342.977539062 1533.00976562 468.366210938 1533.00976562 c 0,0,0
 469.583984375 1533.00976562 469.583984375 1533.00976562 470.803710938 1533 c 0,30,31
 553.803710938 1533 553.803710938 1533 604.259765625 1498 c 128,-1,32
 654.716796875 1463 654.716796875 1463 668.303710938 1372 c 128,-1,33
 681.890625 1281 681.890625 1281 655.282226562 1113 c 2,34,-1
 582.266601562 652 l 1,35,-1
 468.266601562 652 l 1,36,-1
 487.114257812 771 l 1,37,38
 438.493164062 685 438.493164062 685 384.295898438 658.5 c 128,-1,39
 330.098632812 632 330.098632812 632 279.098632812 632 c 0,14,15
EndSplineSet
EndChar

StartChar: ordmasculine
Encoding: 186 186 471
Width: 661
VWidth: 2441
GlyphClass: 1
Flags: HW
LayerCount: 2
Fore
SplineSet
19.2509765625 513 m 1,0,-1
 616.250976562 513 l 1,1,-1
 596.611328125 389 l 1,2,-1
 -0.388671875 389 l 1,3,-1
 19.2509765625 513 l 1,0,-1
356.580078125 755 m 0,4,5
 424.580078125 755 424.580078125 755 476.830078125 835.5 c 128,-1,6
 529.080078125 916 529.080078125 916 555.688476562 1084 c 0,7,8
 583.40625 1259 583.40625 1259 555.838867188 1337.5 c 128,-1,9
 528.272460938 1416 528.272460938 1416 461.272460938 1416 c 0,10,11
 395.272460938 1416 395.272460938 1416 341.91796875 1338 c 128,-1,12
 288.564453125 1260 288.564453125 1260 260.688476562 1084 c 0,13,14
 234.080078125 916 234.080078125 916 260.330078125 835.5 c 128,-1,15
 286.580078125 755 286.580078125 755 356.580078125 755 c 0,4,5
338.048828125 638 m 0,16,17
 219.048828125 638 219.048828125 638 160.337890625 744 c 128,-1,18
 101.626953125 850 101.626953125 850 138.213867188 1081 c 0,19,20
 175.750976562 1318 175.750976562 1318 268.27734375 1425.5 c 128,-1,21
 360.803710938 1533 360.803710938 1533 479.803710938 1533 c 0,22,23
 596.803710938 1533 596.803710938 1533 654.77734375 1425.5 c 128,-1,24
 712.750976562 1318 712.750976562 1318 675.213867188 1081 c 0,25,26
 638.46875 849 638.46875 849 546.758789062 743.5 c 128,-1,27
 455.048828125 638 455.048828125 638 338.048828125 638 c 0,16,17
EndSplineSet
EndChar

StartChar: uni2124
Encoding: 8484 8484 473
Width: 768
VWidth: 2441
GlyphClass: 1
Flags: HW
LayerCount: 2
Fore
SplineSet
778.272460938 1416 m 1,0,-1
 679.272460938 1416 l 1,1,-1
 43.3134765625 103 l 1,2,-1
 142.313476562 103 l 1,3,-1
 778.272460938 1416 l 1,0,-1
882.90234375 1521 m 1,4,-1
 864.0546875 1402 l 1,5,-1
 237.313476562 103 l 1,6,-1
 548.313476562 103 l 2,7,8
 589.313476562 103 589.313476562 103 607.526367188 107.5 c 128,-1,9
 625.739257812 112 625.739257812 112 641.956054688 126 c 1,10,-1
 659.956054688 126 l 1,11,-1
 640 0 l 1,12,-1
 -62 0 l 1,13,-1
 -43.15234375 119 l 1,14,-1
 589.272460938 1416 l 1,15,-1
 164.272460938 1416 l 1,16,-1
 180.90234375 1521 l 1,17,-1
 882.90234375 1521 l 1,4,-1
EndSplineSet
EndChar

StartChar: zero
Encoding: 48 48 474
Width: 735
VWidth: 2441
GlyphClass: 1
Flags: HW
LayerCount: 2
Fore
SplineSet
292.055664062 114 m 0,0,1
 383.055664062 114 383.055664062 114 457.842773438 270.5 c 128,-1,2
 532.629882812 427 532.629882812 427 584.10546875 752 c 0,3,4
 602.635742188 869 602.635742188 869 611.158203125 967 c 1,5,-1
 170.642578125 345 l 1,6,7
 182.055664062 114 182.055664062 114 292.055664062 114 c 0,0,1
201.10546875 752 m 0,8,9
 179.08984375 613 179.08984375 613 171.350585938 501 c 1,10,-1
 618.291015625 1132 l 1,11,12
 609.837890625 1388 609.837890625 1388 493.99609375 1389 c 0,13,14
 407.99609375 1389 407.99609375 1389 329.100585938 1225.5 c 128,-1,15
 250.204101562 1062 250.204101562 1062 201.10546875 752 c 0,8,9
269.723632812 -27 m 128,-1,17
 110.723632812 -27 110.723632812 -27 52.5546875 164.5 c 128,-1,18
 -5.615234375 356 -5.615234375 356 57.10546875 752 c 0,19,20
 117.924804688 1136 117.924804688 1136 238.206054688 1333.5 c 128,-1,21
 358.486328125 1531 358.486328125 1531 516.486328125 1531 c 0,22,23
 675.486328125 1531 675.486328125 1531 732.125976562 1333 c 128,-1,24
 788.766601562 1135 788.766601562 1135 728.10546875 752 c 0,25,26
 665.384765625 356 665.384765625 356 547.0546875 164.5 c 128,-1,16
 428.723632812 -27 428.723632812 -27 269.723632812 -27 c 128,-1,17
EndSplineSet
Substitution2: "'ss02' Style Set 2 in Latin lookup 36 subtable" zero.ss02
Substitution2: "'zero' Slashed Zero in Latin lookup 33 subtable" zero.zero
Substitution2: "'frac' Diagonal Fractions in Latin lookup 24 subtable" zero.numr
Substitution2: "'dnom' Denominators in Latin lookup 22 subtable" zero.dnom
Substitution2: "'numr' Numerators in Latin lookup 21 subtable" zero.numr
Substitution2: "'sups' Superscript in Latin lookup 20 subtable" uni2070
Substitution2: "'subs' Subscript in Latin lookup 19 subtable" uni2080
AlternateSubs2: "'aalt' Access All Alternates in Latin lookup 1 subtable" zero.zero zero.ss02 uni2080 zero.dnom zero.numr uni2070
EndChar

StartChar: one
Encoding: 49 49 475
Width: 447
VWidth: 2441
GlyphClass: 1
Flags: HW
LayerCount: 2
Fore
SplineSet
176 0 m 1,0,-1
 381.266601562 1296 l 1,1,-1
 155.01171875 1206 l 1,2,-1
 146.43359375 1316 l 1,3,-1
 466.219726562 1523 l 1,4,-1
 562.219726562 1523 l 1,5,-1
 321 0 l 1,6,-1
 176 0 l 1,0,-1
EndSplineSet
Substitution2: "'frac' Diagonal Fractions in Latin lookup 24 subtable" one.numr
Substitution2: "'dnom' Denominators in Latin lookup 22 subtable" one.dnom
Substitution2: "'numr' Numerators in Latin lookup 21 subtable" one.numr
Substitution2: "'sups' Superscript in Latin lookup 20 subtable" uni00B9
Substitution2: "'subs' Subscript in Latin lookup 19 subtable" uni2081
AlternateSubs2: "'aalt' Access All Alternates in Latin lookup 1 subtable" uni2081 one.dnom one.numr uni00B9
EndChar

StartChar: two
Encoding: 50 50 476
Width: 721
VWidth: 2441
GlyphClass: 1
Flags: HW
LayerCount: 2
Fore
SplineSet
-12.0927734375 132 m 1,0,1
 177.384765625 356 177.384765625 356 308.439453125 520.5 c 128,-1,2
 439.493164062 685 439.493164062 685 517.271484375 822.5 c 128,-1,3
 595.048828125 960 595.048828125 960 617.380859375 1101 c 0,4,5
 618.513671875 1107.625 618.513671875 1107.625 619.537109375 1114.0859375 c 0,0,0
 643.073242188 1262.6875 643.073242188 1262.6875 608.780273438 1324.5 c 128,-1,6
 572.99609375 1389 572.99609375 1389 504.99609375 1389 c 0,7,8
 443.99609375 1389 443.99609375 1389 394.561523438 1361 c 128,-1,9
 345.125976562 1333 345.125976562 1333 293.880859375 1262 c 0,10,11
 271.020507812 1225 271.020507812 1225 266.328125 1208 c 128,-1,12
 261.635742188 1191 261.635742188 1191 267.626953125 1172 c 1,13,-1
 258.409179688 1158 l 1,14,-1
 236.517578125 1165 l 1,15,-1
 132.020507812 1225 l 1,16,17
 205.51171875 1367 205.51171875 1367 304.999023438 1449 c 128,-1,18
 404.486328125 1531 404.486328125 1531 525.486328125 1531 c 0,19,20
 672.486328125 1531 672.486328125 1531 733.90625 1420 c 128,-1,21
 795.325195312 1309 795.325195312 1309 761.748046875 1097 c 0,22,23
 736.248046875 936 736.248046875 936 649.673828125 784 c 128,-1,24
 563.098632812 632 563.098632812 632 436.653320312 474.5 c 128,-1,25
 310.208007812 317 310.208007812 317 165.490234375 142 c 1,26,-1
 510.490234375 142 l 2,27,28
 549.490234375 142 549.490234375 142 568.203125 146.5 c 128,-1,29
 586.916015625 151 586.916015625 151 603.291992188 166 c 1,30,-1
 621.291992188 166 l 1,31,-1
 595 0 l 1,32,-1
 -33 0 l 1,33,-1
 -12.0927734375 132 l 1,0,1
EndSplineSet
Substitution2: "'frac' Diagonal Fractions in Latin lookup 24 subtable" two.numr
Substitution2: "'dnom' Denominators in Latin lookup 22 subtable" two.dnom
Substitution2: "'numr' Numerators in Latin lookup 21 subtable" two.numr
Substitution2: "'sups' Superscript in Latin lookup 20 subtable" uni00B2
Substitution2: "'subs' Subscript in Latin lookup 19 subtable" uni2082
AlternateSubs2: "'aalt' Access All Alternates in Latin lookup 1 subtable" uni2082 two.dnom two.numr uni00B2
EndChar

StartChar: three
Encoding: 51 51 477
Width: 693
VWidth: 2441
GlyphClass: 1
Flags: HW
LayerCount: 2
Fore
SplineSet
238.723632812 -27 m 0,0,1
 138.723632812 -27 138.723632812 -27 72.30078125 24 c 128,-1,2
 5.87890625 75 5.87890625 75 -36.18359375 163 c 1,3,-1
 84.021484375 259 l 1,4,-1
 103.555664062 275 l 1,5,-1
 114.655273438 263 l 1,6,7
 109.329101562 242 109.329101562 242 110.8984375 223.5 c 128,-1,8
 112.46875 205 112.46875 205 127.92578125 170 c 1,9,10
 150.649414062 143 150.649414062 143 181.194335938 127.5 c 128,-1,11
 211.739257812 112 211.739257812 112 255.739257812 112 c 0,12,13
 348.739257812 112 348.739257812 112 408.622070312 196.5 c 128,-1,14
 468.505859375 281 468.505859375 281 491.155273438 424 c 0,15,16
 518.555664062 597 518.555664062 597 454.776367188 671 c 128,-1,17
 403.474609375 730.521484375 403.474609375 730.521484375 299.72265625 730.521484375 c 0,0,0
 274.486328125 730.521484375 274.486328125 730.521484375 246.145507812 727 c 1,18,-1
 266.735351562 857 l 1,19,20
 380.735351562 857 380.735351562 857 441.545898438 900 c 128,-1,21
 502.356445312 943 502.356445312 943 530.28515625 1012 c 128,-1,22
 558.213867188 1081 558.213867188 1081 570.725585938 1160 c 0,23,24
 588.782226562 1274 588.782226562 1274 559.046875 1332.5 c 128,-1,25
 529.3125 1391 529.3125 1391 466.3125 1391 c 0,26,27
 368.3125 1391 368.3125 1391 274.46484375 1272 c 1,28,-1
 186.34375 1347 l 1,29,30
 327.486328125 1531 327.486328125 1531 492.486328125 1531 c 0,31,32
 622.486328125 1531 622.486328125 1531 683.806640625 1432 c 128,-1,33
 745.125976562 1333 745.125976562 1333 716.6171875 1153 c 0,34,35
 697.76953125 1034 697.76953125 1034 642.540039062 941 c 128,-1,36
 587.309570312 848 587.309570312 848 495.974609375 808 c 1,37,38
 580.322265625 766 580.322265625 766 619.038085938 669.5 c 128,-1,39
 657.75390625 573 657.75390625 573 633.045898438 417 c 0,40,41
 601.686523438 219 601.686523438 219 497.205078125 96 c 128,-1,42
 392.723632812 -27 392.723632812 -27 238.723632812 -27 c 0,0,1
EndSplineSet
Substitution2: "'frac' Diagonal Fractions in Latin lookup 24 subtable" three.numr
Substitution2: "'dnom' Denominators in Latin lookup 22 subtable" three.dnom
Substitution2: "'numr' Numerators in Latin lookup 21 subtable" three.numr
Substitution2: "'sups' Superscript in Latin lookup 20 subtable" uni00B3
Substitution2: "'subs' Subscript in Latin lookup 19 subtable" uni2083
AlternateSubs2: "'aalt' Access All Alternates in Latin lookup 1 subtable" uni2083 three.dnom three.numr uni00B3
EndChar

StartChar: four
Encoding: 52 52 478
Width: 831
VWidth: 2441
GlyphClass: 1
Flags: HW
LayerCount: 2
Fore
SplineSet
171.884765625 517 m 1,0,-1
 457.884765625 517 l 1,1,-1
 558.6171875 1153 l 1,2,-1
 171.884765625 517 l 1,0,-1
376 0 m 1,3,-1
 435.869140625 378 l 1,4,-1
 -2.130859375 378 l 1,5,-1
 16.875 498 l 1,6,-1
 643.219726562 1523 l 1,7,-1
 762.219726562 1523 l 1,8,-1
 602.568359375 515 l 1,9,-1
 723.568359375 515 l 1,10,-1
 701.552734375 376 l 1,11,-1
 580.552734375 376 l 1,12,-1
 521 0 l 1,13,-1
 376 0 l 1,3,-1
EndSplineSet
Substitution2: "'frac' Diagonal Fractions in Latin lookup 24 subtable" four.numr
Substitution2: "'dnom' Denominators in Latin lookup 22 subtable" four.dnom
Substitution2: "'numr' Numerators in Latin lookup 21 subtable" four.numr
Substitution2: "'sups' Superscript in Latin lookup 20 subtable" uni2074
Substitution2: "'subs' Subscript in Latin lookup 19 subtable" uni2084
AlternateSubs2: "'aalt' Access All Alternates in Latin lookup 1 subtable" uni2084 four.dnom four.numr uni2074
EndChar

StartChar: five
Encoding: 53 53 479
Width: 723
VWidth: 2441
GlyphClass: 1
Flags: HW
LayerCount: 2
Fore
SplineSet
257.723632812 -27 m 0,0,1
 159.723632812 -27 159.723632812 -27 82.2763671875 27 c 128,-1,2
 4.8291015625 81 4.8291015625 81 -31.431640625 193 c 1,3,-1
 86.5556640625 275 l 1,4,-1
 108.08984375 291 l 1,5,-1
 117.03125 278 l 1,6,7
 112.021484375 259 112.021484375 259 113.353515625 239 c 128,-1,8
 114.686523438 219 114.686523438 219 130.776367188 188 c 0,9,10
 181.897460938 113 181.897460938 113 282.739257812 112 c 0,11,12
 363.739257812 112 363.739257812 112 432.5234375 208.5 c 128,-1,13
 501.307617188 305 501.307617188 305 529.658203125 484 c 0,14,15
 558.80078125 668 558.80078125 668 518.372070312 760 c 128,-1,16
 477.943359375 852 477.943359375 852 391.943359375 852 c 0,17,18
 279.943359375 852 279.943359375 852 181.245117188 715 c 1,19,-1
 100.313476562 747 l 1,20,-1
 257.90234375 1521 l 1,21,-1
 795.90234375 1521 l 1,22,-1
 773.095703125 1377 l 1,23,-1
 363.095703125 1377 l 1,24,-1
 275.822265625 927 l 1,25,26
 319.098632812 954 319.098632812 954 361.395507812 968.5 c 128,-1,27
 403.692382812 983 403.692382812 983 447.692382812 983 c 0,28,29
 589.692382812 983 589.692382812 983 650.760742188 854 c 128,-1,30
 711.829101562 725 711.829101562 725 672.708007812 478 c 128,-1,31
 633.586914062 231 633.586914062 231 522.655273438 102 c 128,-1,32
 411.723632812 -27 411.723632812 -27 257.723632812 -27 c 0,0,1
EndSplineSet
Substitution2: "'frac' Diagonal Fractions in Latin lookup 24 subtable" five.numr
Substitution2: "'dnom' Denominators in Latin lookup 22 subtable" five.dnom
Substitution2: "'numr' Numerators in Latin lookup 21 subtable" five.numr
Substitution2: "'sups' Superscript in Latin lookup 20 subtable" uni2075
Substitution2: "'subs' Subscript in Latin lookup 19 subtable" uni2085
AlternateSubs2: "'aalt' Access All Alternates in Latin lookup 1 subtable" uni2085 five.dnom five.numr uni2075
EndChar

StartChar: six
Encoding: 54 54 480
Width: 702
VWidth: 2441
GlyphClass: 1
Flags: HW
LayerCount: 2
Fore
SplineSet
293.84765625 119 m 0,0,1
 361.84765625 119 361.84765625 119 422.315429688 213.5 c 128,-1,2
 482.782226562 308 482.782226562 308 510.024414062 480 c 0,3,4
 539.166992188 664 539.166992188 664 504.971679688 748 c 128,-1,5
 470.775390625 832 470.775390625 832 404.775390625 832 c 0,6,7
 343.775390625 832 343.775390625 832 287.9609375 779.5 c 128,-1,8
 232.145507812 727 232.145507812 727 183.840820312 643 c 1,9,10
 174.721679688 604.845703125 174.721679688 604.845703125 168.708007812 566.881835938 c 0,0,0
 155.178710938 481.461914062 155.178710938 481.461914062 157.37890625 397 c 128,-1,11
 160.555664062 275 160.555664062 275 195.702148438 197 c 128,-1,12
 230.84765625 119 230.84765625 119 293.84765625 119 c 0,0,1
267.19921875 -24 m 0,13,14
 108.19921875 -24 108.19921875 -24 50.0244140625 158 c 128,-1,15
 -8.1494140625 340 -8.1494140625 340 47.9189453125 694 c 0,16,17
 116.340820312 1126 116.340820312 1126 247.967773438 1332 c 128,-1,18
 379.595703125 1538 379.595703125 1538 558.595703125 1538 c 0,19,20
 639.595703125 1538 639.595703125 1538 692.314453125 1501.5 c 128,-1,21
 745.033203125 1465 745.033203125 1465 774.104492188 1396 c 1,22,-1
 675.256835938 1277 l 1,23,-1
 660.564453125 1260 l 1,24,-1
 648.672851562 1267 l 1,25,26
 649.365234375 1284 649.365234375 1284 649.954101562 1303.5 c 128,-1,27
 650.54296875 1323 650.54296875 1323 634.293945312 1353 c 1,28,29
 599.768554688 1394.0234375 599.768554688 1394.0234375 542.526367188 1394.0234375 c 0,0,0
 541.1640625 1394.0234375 541.1640625 1394.0234375 539.788085938 1394 c 0,30,31
 502.788085938 1394 502.788085938 1394 460.69921875 1374.5 c 128,-1,32
 418.611328125 1355 418.611328125 1355 374.50390625 1297.5 c 128,-1,33
 330.396484375 1240 330.396484375 1240 288.870117188 1132.5 c 128,-1,34
 247.34375 1025 247.34375 1025 219.943359375 852 c 1,35,36
 266.60546875 913 266.60546875 913 325.490234375 947 c 128,-1,37
 384.375 981 384.375 981 452.375 981 c 0,38,39
 569.375 981 569.375 981 628.755859375 844.5 c 128,-1,40
 688.135742188 708 688.135742188 708 652.658203125 484 c 0,41,42
 616.86328125 258 616.86328125 258 510.53125 117 c 128,-1,43
 404.19921875 -24 404.19921875 -24 267.19921875 -24 c 0,13,14
EndSplineSet
Substitution2: "'frac' Diagonal Fractions in Latin lookup 24 subtable" six.numr
Substitution2: "'dnom' Denominators in Latin lookup 22 subtable" six.dnom
Substitution2: "'numr' Numerators in Latin lookup 21 subtable" six.numr
Substitution2: "'sups' Superscript in Latin lookup 20 subtable" uni2076
Substitution2: "'subs' Subscript in Latin lookup 19 subtable" uni2086
AlternateSubs2: "'aalt' Access All Alternates in Latin lookup 1 subtable" uni2086 six.dnom six.numr uni2076
EndChar

StartChar: seven
Encoding: 55 55 481
Width: 666
VWidth: 2441
GlyphClass: 1
Flags: HW
LayerCount: 2
Fore
SplineSet
55 0 m 1,0,1
 185.276367188 349 185.276367188 349 315.260742188 693 c 128,-1,2
 445.245117188 1037 445.245117188 1037 589.620117188 1374 c 1,3,-1
 155.620117188 1374 l 1,4,-1
 178.90234375 1521 l 1,5,-1
 780.90234375 1521 l 1,6,-1
 767.28125 1435 l 1,7,8
 613.530273438 1083 613.530273438 1083 476.25 724.5 c 128,-1,9
 338.96875 366 338.96875 366 211 0 c 1,10,-1
 55 0 l 1,0,1
EndSplineSet
Substitution2: "'frac' Diagonal Fractions in Latin lookup 24 subtable" seven.numr
Substitution2: "'dnom' Denominators in Latin lookup 22 subtable" seven.dnom
Substitution2: "'numr' Numerators in Latin lookup 21 subtable" seven.numr
Substitution2: "'sups' Superscript in Latin lookup 20 subtable" uni2077
Substitution2: "'subs' Subscript in Latin lookup 19 subtable" uni2087
AlternateSubs2: "'aalt' Access All Alternates in Latin lookup 1 subtable" uni2087 seven.dnom seven.numr uni2077
EndChar

StartChar: eight
Encoding: 56 56 482
Width: 716
VWidth: 2441
GlyphClass: 1
Flags: HW
LayerCount: 2
Fore
SplineSet
283.53125 117 m 0,0,1
 371.53125 117 371.53125 117 431.384765625 195 c 128,-1,2
 491.239257812 273 491.239257812 273 510.245117188 393 c 0,3,4
 548.890625 637 548.890625 637 366.729492188 737 c 1,5,6
 280.760742188 693 280.760742188 693 222.71875 607.5 c 128,-1,7
 164.676757812 522 164.676757812 522 145.51171875 401 c 0,8,9
 126.6640625 282 126.6640625 282 164.59765625 199.5 c 128,-1,10
 202.53125 117 202.53125 117 283.53125 117 c 0,0,1
427.329101562 886 m 1,11,12
 498.40625 937 498.40625 937 543.364257812 1012.5 c 128,-1,13
 588.322265625 1088 588.322265625 1088 601.943359375 1174 c 0,14,15
 617.46484375 1272 617.46484375 1272 590.259765625 1337 c 128,-1,16
 563.0546875 1402 563.0546875 1402 489.0546875 1402 c 0,17,18
 416.0546875 1402 416.0546875 1402 371.91796875 1338 c 128,-1,19
 327.782226562 1274 327.782226562 1274 313.051757812 1181 c 0,20,21
 295.3125 1069 295.3125 1069 326.651367188 1008 c 128,-1,22
 357.990234375 947 357.990234375 947 427.329101562 886 c 1,11,12
258.19921875 -24 m 128,-1,24
 107.19921875 -24 107.19921875 -24 38.67578125 89.5 c 128,-1,25
 -29.84765625 203 -29.84765625 203 -1.1806640625 384 c 0,26,27
 21.626953125 528 21.626953125 528 94.3662109375 640 c 128,-1,28
 167.10546875 752 167.10546875 752 274.55859375 818 c 1,29,30
 209.635742188 869 209.635742188 869 182.866210938 962 c 128,-1,31
 156.095703125 1055 156.095703125 1055 173.517578125 1165 c 0,32,33
 199.809570312 1331 199.809570312 1331 287.361328125 1435.5 c 128,-1,34
 374.912109375 1540 374.912109375 1540 516.912109375 1540 c 0,35,36
 663.912109375 1540 663.912109375 1540 714.415039062 1439 c 128,-1,37
 764.91796875 1338 764.91796875 1338 739.735351562 1179 c 0,38,39
 722.3125 1069 722.3125 1069 666.474609375 969 c 128,-1,40
 610.635742188 869 610.635742188 869 523.450195312 811 c 1,41,42
 606.788085938 750 606.788085938 750 641 644 c 128,-1,43
 675.2109375 538 675.2109375 538 652.245117188 393 c 0,44,45
 622.46875 205 622.46875 205 515.833984375 90.5 c 128,-1,23
 409.19921875 -24 409.19921875 -24 258.19921875 -24 c 128,-1,24
EndSplineSet
Substitution2: "'frac' Diagonal Fractions in Latin lookup 24 subtable" eight.numr
Substitution2: "'dnom' Denominators in Latin lookup 22 subtable" eight.dnom
Substitution2: "'numr' Numerators in Latin lookup 21 subtable" eight.numr
Substitution2: "'sups' Superscript in Latin lookup 20 subtable" uni2078
Substitution2: "'subs' Subscript in Latin lookup 19 subtable" uni2088
AlternateSubs2: "'aalt' Access All Alternates in Latin lookup 1 subtable" uni2088 eight.dnom eight.numr uni2078
EndChar

StartChar: nine
Encoding: 57 57 483
Width: 699
VWidth: 2441
GlyphClass: 1
Flags: HW
LayerCount: 2
Fore
SplineSet
239.245117188 1037 m 0,0,1
 216.4375 893 216.4375 893 255.237304688 806.5 c 128,-1,2
 294.037109375 720 294.037109375 720 364.037109375 720 c 0,3,4
 483.037109375 720 483.037109375 720 565.55859375 818 c 1,5,6
 611.866210938 1123 611.866210938 1123 589.088867188 1257 c 128,-1,7
 566.3125 1391 566.3125 1391 468.3125 1391 c 0,8,9
 393.3125 1391 393.3125 1391 330.849609375 1306 c 128,-1,10
 268.387695312 1221 268.387695312 1221 239.245117188 1037 c 0,0,1
208.19921875 -24 m 1,11,12
 45.19921875 -24 45.19921875 -24 -30.3701171875 105 c 1,13,-1
 61.1611328125 222 l 1,14,-1
 76.6455078125 244 l 1,15,-1
 88.537109375 237 l 1,16,17
 92.2109375 216 92.2109375 216 94.8056640625 194.5 c 128,-1,18
 97.400390625 173 97.400390625 173 116.807617188 144 c 1,19,20
 155.739257812 112 155.739257812 112 216.739257812 112 c 0,21,22
 297.739257812 112 297.739257812 112 359.092773438 190 c 128,-1,23
 420.447265625 268 420.447265625 268 464.903320312 394 c 128,-1,24
 509.360351562 520 509.360351562 520 538.850585938 662 c 1,25,26
 495.673828125 623 495.673828125 623 447.84765625 602 c 128,-1,27
 400.021484375 581 400.021484375 581 340.021484375 581 c 0,28,29
 205.021484375 581 205.021484375 581 137.3984375 706.5 c 128,-1,30
 69.775390625 832 69.775390625 832 101.927734375 1035 c 0,31,32
 139.46484375 1272 139.46484375 1272 249.475585938 1401.5 c 128,-1,33
 359.486328125 1531 359.486328125 1531 485.486328125 1531 c 0,34,35
 648.486328125 1531 648.486328125 1531 705.932617188 1366.5 c 128,-1,36
 763.377929688 1202 763.377929688 1202 713.329101562 886 c 0,37,38
 637.303710938 406 637.303710938 406 513.647460938 193.5 c 128,-1,39
 389.990234375 -19 389.990234375 -19 208.19921875 -24 c 1,11,12
EndSplineSet
Substitution2: "'frac' Diagonal Fractions in Latin lookup 24 subtable" nine.numr
Substitution2: "'dnom' Denominators in Latin lookup 22 subtable" nine.dnom
Substitution2: "'numr' Numerators in Latin lookup 21 subtable" nine.numr
Substitution2: "'sups' Superscript in Latin lookup 20 subtable" uni2079
Substitution2: "'subs' Subscript in Latin lookup 19 subtable" uni2089
AlternateSubs2: "'aalt' Access All Alternates in Latin lookup 1 subtable" uni2089 nine.dnom nine.numr uni2079
EndChar

StartChar: zero.zero
Encoding: 65541 -1 484
Width: 735
VWidth: 2441
GlyphClass: 1
Flags: HW
LayerCount: 2
Fore
SplineSet
376.05859375 657 m 0,0,1
 334.05859375 657 334.05859375 657 310.047851562 688.5 c 128,-1,2
 286.037109375 720 286.037109375 720 293.005859375 764 c 0,3,4
 300.291015625 810 300.291015625 810 334.859375 842 c 128,-1,5
 369.427734375 874 369.427734375 874 410.427734375 874 c 0,6,7
 452.427734375 874 452.427734375 874 477.438476562 842.5 c 128,-1,8
 502.450195312 811 502.450195312 811 495.005859375 764 c 0,9,10
 488.037109375 720 488.037109375 720 454.047851562 688.5 c 128,-1,11
 420.05859375 657 420.05859375 657 376.05859375 657 c 0,0,1
292.055664062 114 m 0,12,13
 383.055664062 114 383.055664062 114 457.842773438 270.5 c 128,-1,14
 532.629882812 427 532.629882812 427 584.10546875 752 c 0,15,16
 633.204101562 1062 633.204101562 1062 609.100585938 1225.5 c 128,-1,17
 584.99609375 1389 584.99609375 1389 493.99609375 1389 c 0,18,19
 407.99609375 1389 407.99609375 1389 329.100585938 1225.5 c 128,-1,20
 250.204101562 1062 250.204101562 1062 201.10546875 752 c 0,21,22
 149.788085938 428 149.788085938 428 177.921875 271 c 128,-1,23
 206.055664062 114 206.055664062 114 292.055664062 114 c 0,12,13
269.723632812 -27 m 128,-1,25
 110.723632812 -27 110.723632812 -27 52.5546875 164.5 c 128,-1,26
 -5.615234375 356 -5.615234375 356 57.10546875 752 c 0,27,28
 117.924804688 1136 117.924804688 1136 238.206054688 1333.5 c 128,-1,29
 358.486328125 1531 358.486328125 1531 516.486328125 1531 c 0,30,31
 675.486328125 1531 675.486328125 1531 732.125976562 1333 c 128,-1,32
 788.766601562 1135 788.766601562 1135 728.10546875 752 c 0,33,34
 665.384765625 356 665.384765625 356 547.0546875 164.5 c 128,-1,24
 428.723632812 -27 428.723632812 -27 269.723632812 -27 c 128,-1,25
EndSplineSet
EndChar

StartChar: zero.ss02
Encoding: 65542 -1 485
Width: 735
VWidth: 2441
GlyphClass: 1
Flags: HW
LayerCount: 2
Fore
SplineSet
292.055664062 114 m 0,0,1
 383.055664062 114 383.055664062 114 457.842773438 270.5 c 128,-1,2
 532.629882812 427 532.629882812 427 584.10546875 752 c 0,3,4
 633.204101562 1062 633.204101562 1062 609.100585938 1225.5 c 128,-1,5
 584.99609375 1389 584.99609375 1389 493.99609375 1389 c 0,6,7
 407.99609375 1389 407.99609375 1389 329.100585938 1225.5 c 128,-1,8
 250.204101562 1062 250.204101562 1062 201.10546875 752 c 0,9,10
 149.788085938 428 149.788085938 428 177.921875 271 c 128,-1,11
 206.055664062 114 206.055664062 114 292.055664062 114 c 0,0,1
269.723632812 -27 m 128,-1,13
 110.723632812 -27 110.723632812 -27 52.5546875 164.5 c 128,-1,14
 -5.615234375 356 -5.615234375 356 57.10546875 752 c 0,15,16
 117.924804688 1136 117.924804688 1136 238.206054688 1333.5 c 128,-1,17
 358.486328125 1531 358.486328125 1531 516.486328125 1531 c 0,18,19
 675.486328125 1531 675.486328125 1531 732.125976562 1333 c 128,-1,20
 788.766601562 1135 788.766601562 1135 728.10546875 752 c 0,21,22
 665.384765625 356 665.384765625 356 547.0546875 164.5 c 128,-1,12
 428.723632812 -27 428.723632812 -27 269.723632812 -27 c 128,-1,13
EndSplineSet
EndChar

StartChar: uni2070
Encoding: 8304 8304 516
Width: 532
VWidth: 2441
GlyphClass: 1
Flags: HW
LayerCount: 2
Fore
SplineSet
281.126953125 689 m 0,0,1
 342.126953125 689 342.126953125 689 389.77734375 781.5 c 128,-1,2
 437.427734375 874 437.427734375 874 467.99609375 1067 c 0,3,4
 478.44921875 1133 478.44921875 1133 481.84375 1186 c 1,5,-1
 197.350585938 823 l 1,6,7
 208.126953125 689 208.126953125 689 281.126953125 689 c 0,0,1
213.99609375 1067 m 0,8,9
 202.1171875 992 202.1171875 992 197.297851562 930 c 1,10,-1
 486.216796875 1302 l 1,11,12
 477.086914062 1445.00683594 477.086914062 1445.00683594 401.913085938 1445.00683594 c 0,13,14
 401.390625 1445.00683594 401.390625 1445.00683594 400.865234375 1445 c 0,15,16
 342.865234375 1445 342.865234375 1445 293.16015625 1349 c 128,-1,17
 243.456054688 1253 243.456054688 1253 213.99609375 1067 c 0,8,9
264.337890625 583 m 128,-1,19
 154.337890625 583 154.337890625 583 111.106445312 701.5 c 128,-1,20
 67.875 820 67.875 820 106.99609375 1067 c 0,21,22
 145.325195312 1309 145.325195312 1309 226.41015625 1429.5 c 128,-1,23
 307.49609375 1550 307.49609375 1550 417.49609375 1550 c 128,-1,24
 527.49609375 1550 527.49609375 1550 570.41015625 1429.5 c 128,-1,25
 613.325195312 1309 613.325195312 1309 574.99609375 1067 c 0,26,27
 535.875 820 535.875 820 455.106445312 701.5 c 128,-1,18
 374.337890625 583 374.337890625 583 264.337890625 583 c 128,-1,19
EndSplineSet
Substitution2: "'ss02' Style Set 2 in Latin lookup 36 subtable" uni2070.ss02
Substitution2: "'zero' Slashed Zero in Latin lookup 33 subtable" uni2070.zero
AlternateSubs2: "'aalt' Access All Alternates in Latin lookup 1 subtable" uni2070.ss02 uni2070.zero
EndChar

StartChar: uni00B9
Encoding: 185 185 517
Width: 338
VWidth: 2441
GlyphClass: 1
Flags: HW
LayerCount: 2
Fore
SplineSet
195.189453125 601 m 1,0,-1
 319.520507812 1386 l 1,1,-1
 173.651367188 1330 l 1,2,-1
 162.272460938 1416 l 1,3,-1
 378.704101562 1545 l 1,4,-1
 456.704101562 1545 l 1,5,-1
 307.189453125 601 l 1,6,-1
 195.189453125 601 l 1,0,-1
EndSplineSet
EndChar

StartChar: uni00B2
Encoding: 178 178 518
Width: 521
VWidth: 2441
GlyphClass: 1
Flags: HW
LayerCount: 2
Fore
SplineSet
66.443359375 691 m 1,0,1
 193.934570312 833 193.934570312 833 281.693359375 932.5 c 128,-1,2
 369.453125 1032 369.453125 1032 419.51953125 1114.5 c 128,-1,3
 469.5859375 1197 469.5859375 1197 486.365234375 1284 c 0,4,5
 499.51171875 1367 499.51171875 1367 475.688476562 1406 c 128,-1,6
 451.865234375 1445 451.865234375 1445 406.865234375 1445 c 0,7,8
 345.865234375 1445 345.865234375 1445 298.1640625 1409 c 1,9,10
 273.620117188 1374 273.620117188 1374 265.26953125 1356 c 128,-1,11
 256.91796875 1338 256.91796875 1338 258.750976562 1318 c 1,12,-1
 250.008789062 1307 l 1,13,-1
 228.43359375 1316 l 1,14,-1
 153.877929688 1363 l 1,15,16
 204.815429688 1451 204.815429688 1451 271.15625 1500.5 c 128,-1,17
 337.49609375 1550 337.49609375 1550 423.49609375 1550 c 0,18,19
 521.49609375 1550 521.49609375 1550 568.48828125 1480.5 c 128,-1,20
 615.48046875 1411 615.48046875 1411 594.573242188 1279 c 0,21,22
 579.051757812 1181 579.051757812 1181 526.03515625 1092.5 c 128,-1,23
 473.017578125 1004 473.017578125 1004 392.05078125 909.5 c 128,-1,24
 311.083007812 815 311.083007812 815 215.819335938 706 c 1,25,-1
 398.819335938 706 l 2,26,27
 440.819335938 706 440.819335938 706 458.032226562 710.5 c 128,-1,28
 475.245117188 715 475.245117188 715 492.62109375 730 c 1,29,-1
 510.62109375 730 l 1,30,-1
 490.189453125 601 l 1,31,-1
 52.189453125 601 l 1,32,-1
 66.443359375 691 l 1,0,1
EndSplineSet
EndChar

StartChar: uni00B3
Encoding: 179 179 519
Width: 504
VWidth: 2441
GlyphClass: 1
Flags: HW
LayerCount: 2
Fore
SplineSet
240.337890625 583 m 0,0,1
 174.337890625 583 174.337890625 583 125.90625 615 c 128,-1,2
 77.474609375 647 77.474609375 647 49.02734375 701 c 1,3,-1
 130.114257812 771 l 1,4,-1
 153.96484375 789 l 1,5,-1
 160.58984375 774 l 1,6,7
 157.580078125 755 157.580078125 755 164.704101562 740 c 128,-1,8
 171.829101562 725 171.829101562 725 197.235351562 696 c 1,9,10
 219.334960938 684 219.334960938 684 251.176757812 683 c 0,11,12
 375.176757812 683 375.176757812 683 403.84375 864 c 0,13,14
 420.474609375 969 420.474609375 969 375.78515625 1012 c 0,15,16
 341.469726562 1045.01757812 341.469726562 1045.01757812 278.635742188 1045.01757812 c 0,17,18
 259.639648438 1045.01757812 259.639648438 1045.01757812 238.036132812 1042 c 1,19,-1
 253.55859375 1140 l 1,20,21
 363.55859375 1140 363.55859375 1140 401.635742188 1191 c 128,-1,22
 439.713867188 1242 439.713867188 1242 451.43359375 1316 c 0,23,24
 461.887695312 1382 461.887695312 1382 441.8515625 1416.5 c 128,-1,25
 421.815429688 1451 421.815429688 1451 379.815429688 1451 c 0,26,27
 311.815429688 1451 311.815429688 1451 251.412109375 1379 c 1,28,-1
 184.28125 1435 l 1,29,30
 281.337890625 1549 281.337890625 1549 398.49609375 1550 c 0,31,32
 489.49609375 1550 489.49609375 1550 535.333984375 1489 c 128,-1,33
 581.172851562 1428 581.172851562 1428 563.43359375 1316 c 0,34,35
 551.5546875 1241 551.5546875 1241 514.369140625 1183 c 128,-1,36
 477.182617188 1125 477.182617188 1125 420.856445312 1104 c 1,37,38
 474.580078125 1077 474.580078125 1077 502.077148438 1017 c 128,-1,39
 529.57421875 957 529.57421875 957 514.051757812 859 c 0,40,41
 494.412109375 735 494.412109375 735 422.375 659 c 128,-1,42
 350.337890625 583 350.337890625 583 240.337890625 583 c 0,0,1
EndSplineSet
EndChar

StartChar: uni2074
Encoding: 8308 8308 520
Width: 562
VWidth: 2441
GlyphClass: 1
Flags: HW
LayerCount: 2
Fore
SplineSet
202.614257812 932 m 1,0,-1
 390.614257812 932 l 1,1,-1
 447.157226562 1289 l 1,2,-1
 202.614257812 932 l 1,0,-1
336.189453125 601 m 1,3,-1
 372.458984375 830 l 1,4,-1
 69.458984375 830 l 1,5,-1
 83.080078125 916 l 1,6,-1
 509.704101562 1545 l 1,7,-1
 594.704101562 1545 l 1,8,-1
 497.614257812 932 l 1,9,-1
 583.614257812 932 l 1,10,-1
 566.984375 827 l 1,11,-1
 480.984375 827 l 1,12,-1
 445.189453125 601 l 1,13,-1
 336.189453125 601 l 1,3,-1
EndSplineSet
EndChar

StartChar: uni2075
Encoding: 8309 8309 521
Width: 523
VWidth: 2441
GlyphClass: 1
Flags: HW
LayerCount: 2
Fore
SplineSet
254.337890625 583 m 0,0,1
 186.337890625 583 186.337890625 583 131.302734375 617.5 c 128,-1,2
 76.2666015625 652 76.2666015625 652 52.8291015625 725 c 1,3,-1
 141.014648438 783 l 1,4,-1
 162.548828125 799 l 1,5,-1
 169.014648438 783 l 1,6,7
 164.005859375 764 164.005859375 764 170.971679688 748 c 128,-1,8
 177.9375 732 177.9375 732 200.344726562 703 c 1,9,10
 229.651367188 686 229.651367188 686 270.493164062 685 c 0,11,12
 324.493164062 685 324.493164062 685 369.021484375 742 c 128,-1,13
 413.548828125 799 413.548828125 799 429.704101562 901 c 0,14,15
 446.651367188 1008 446.651367188 1008 419.862304688 1063 c 128,-1,16
 393.07421875 1118 393.07421875 1118 337.07421875 1118 c 0,17,18
 262.07421875 1118 262.07421875 1118 200.245117188 1037 c 1,19,-1
 135.887695312 1060 l 1,20,-1
 233.38671875 1543 l 1,21,-1
 609.38671875 1543 l 1,22,-1
 593.073242188 1440 l 1,23,-1
 317.073242188 1440 l 1,24,-1
 266.735351562 1179 l 1,25,26
 323.595703125 1216 323.595703125 1216 382.595703125 1216 c 0,27,28
 477.595703125 1216 477.595703125 1216 520.845703125 1135.5 c 128,-1,29
 564.095703125 1055 564.095703125 1055 539.704101562 901 c 128,-1,30
 515.313476562 747 515.313476562 747 438.325195312 665 c 128,-1,31
 361.337890625 583 361.337890625 583 254.337890625 583 c 0,0,1
EndSplineSet
EndChar

StartChar: uni2076
Encoding: 8310 8310 522
Width: 509
VWidth: 2441
GlyphClass: 1
Flags: HW
LayerCount: 2
Fore
SplineSet
284.443359375 691 m 128,-1,1
 326.443359375 691 326.443359375 691 365.49609375 745 c 128,-1,2
 404.548828125 799 404.548828125 799 420.704101562 901 c 0,3,4
 437.334960938 1006 437.334960938 1006 413.75390625 1056 c 128,-1,5
 390.172851562 1106 390.172851562 1106 348.172851562 1106 c 0,6,7
 309.172851562 1106 309.172851562 1106 274.080078125 1077 c 128,-1,8
 238.987304688 1048 238.987304688 1048 208.225585938 999 c 1,9,10
 203.768554688 978.75 203.768554688 978.75 200.669921875 959.1875 c 0,11,12
 191.375 900.5 191.375 900.5 194.309570312 848 c 0,13,14
 198.22265625 778 198.22265625 778 220.333007812 734.5 c 128,-1,0
 242.443359375 691 242.443359375 691 284.443359375 691 c 128,-1,1
262.971679688 587 m 0,15,16
 150.971679688 587 150.971679688 587 108.7109375 699 c 128,-1,17
 66.4501953125 811 66.4501953125 811 101.135742188 1030 c 0,18,19
 143.266601562 1296 143.266601562 1296 234.856445312 1426 c 128,-1,20
 326.446289062 1556 326.446289062 1556 447.446289062 1556 c 0,21,22
 552.446289062 1556 552.446289062 1556 605.033203125 1465 c 1,23,-1
 529.887695312 1382 l 1,24,-1
 515.194335938 1365 l 1,25,-1
 504.620117188 1374 l 1,26,27
 505.3125 1391 505.3125 1391 500.688476562 1406 c 128,-1,28
 496.064453125 1421 496.064453125 1421 471.390625 1442 c 0,29,30
 464.70703125 1444 464.70703125 1444 455.444335938 1445.5 c 128,-1,31
 446.182617188 1447 446.182617188 1447 435.182617188 1447 c 0,32,33
 405.182617188 1447 405.182617188 1447 366.77734375 1425.5 c 128,-1,34
 328.372070312 1404 328.372070312 1404 290.522460938 1335.5 c 128,-1,35
 252.672851562 1267 252.672851562 1267 227.291015625 1132 c 1,36,37
 290.803710938 1211 290.803710938 1211 383.803710938 1211 c 0,38,39
 464.803710938 1211 464.803710938 1211 506.895507812 1129.5 c 128,-1,40
 548.987304688 1048 548.987304688 1048 526.1796875 904 c 0,41,42
 503.688476562 762 503.688476562 762 432.330078125 674.5 c 128,-1,43
 360.971679688 587 360.971679688 587 262.971679688 587 c 0,15,16
EndSplineSet
EndChar

StartChar: uni2077
Encoding: 8311 8311 523
Width: 487
VWidth: 2441
GlyphClass: 1
Flags: HW
LayerCount: 2
Fore
SplineSet
109.189453125 601 m 1,0,1
 194.2421875 816 194.2421875 816 279.369140625 1022 c 128,-1,2
 364.49609375 1228 364.49609375 1228 458.28125 1435 c 1,3,-1
 165.28125 1435 l 1,4,-1
 182.38671875 1543 l 1,5,-1
 605.38671875 1543 l 1,6,-1
 594.6171875 1475 l 1,7,8
 394.669921875 1046 394.669921875 1046 231.189453125 601 c 1,9,-1
 109.189453125 601 l 1,0,1
EndSplineSet
EndChar

StartChar: uni2078
Encoding: 8312 8312 524
Width: 521
VWidth: 2441
GlyphClass: 1
Flags: HW
LayerCount: 2
Fore
SplineSet
276.443359375 691 m 0,0,1
 332.443359375 691 332.443359375 691 371.016601562 732.5 c 128,-1,2
 409.58984375 774 409.58984375 774 421.309570312 848 c 0,3,4
 443.80078125 990 443.80078125 990 318.987304688 1048 c 1,5,6
 268.7109375 1021 268.7109375 1021 229.94921875 972 c 128,-1,7
 191.188476562 923 191.188476562 923 179.943359375 852 c 0,8,9
 168.381835938 779 168.381835938 779 195.412109375 735 c 128,-1,10
 222.443359375 691 222.443359375 691 276.443359375 691 c 0,0,1
364.93359375 1155 m 1,11,12
 457.595703125 1216 457.595703125 1216 475.017578125 1326 c 0,13,14
 483.887695312 1382 483.887695312 1382 463.509765625 1417.5 c 128,-1,15
 443.1328125 1453 443.1328125 1453 397.1328125 1453 c 128,-1,16
 351.1328125 1453 351.1328125 1453 322.509765625 1417.5 c 128,-1,17
 293.887695312 1382 293.887695312 1382 285.651367188 1330 c 0,18,19
 274.880859375 1262 274.880859375 1262 297.94140625 1224.5 c 128,-1,20
 321.001953125 1187 321.001953125 1187 364.93359375 1155 c 1,11,12
256.971679688 587 m 0,21,22
 151.971679688 587 151.971679688 587 102.400390625 656 c 128,-1,23
 52.8291015625 725 52.8291015625 725 70.5673828125 837 c 0,24,25
 84.98046875 928 84.98046875 928 132.48828125 997.5 c 128,-1,26
 179.99609375 1067 179.99609375 1067 250.6484375 1109 c 1,27,28
 159.619140625 1178.32714844 159.619140625 1178.32714844 181.78515625 1318.27636719 c 0,29,30
 198.844726562 1425.98730469 198.844726562 1425.98730469 260.151367188 1491 c 128,-1,31
 321.446289062 1556 321.446289062 1556 419.446289062 1556 c 0,32,33
 519.446289062 1556 519.446289062 1556 557.809570312 1492 c 128,-1,34
 596.172851562 1428 596.172851562 1428 580.651367188 1330 c 0,35,36
 569.564453125 1260 569.564453125 1260 532.82421875 1198.5 c 128,-1,37
 496.083007812 1137 496.083007812 1137 439.380859375 1101 c 1,38,39
 556.869140625 1022 556.869140625 1022 528.834960938 845 c 0,40,41
 510.303710938 728 510.303710938 728 437.137695312 657.5 c 128,-1,42
 363.971679688 587 363.971679688 587 256.971679688 587 c 0,21,22
EndSplineSet
EndChar

StartChar: uni2079
Encoding: 8313 8313 525
Width: 509
VWidth: 2441
GlyphClass: 1
Flags: HW
LayerCount: 2
Fore
SplineSet
239.396484375 1240 m 0,0,1
 225.775390625 1154 225.775390625 1154 251.935546875 1104.5 c 128,-1,2
 278.095703125 1055 278.095703125 1055 327.095703125 1055 c 0,3,4
 402.095703125 1055 402.095703125 1055 455.96484375 1111 c 1,5,6
 483.424804688 1297 483.424804688 1297 465.803710938 1372 c 128,-1,7
 448.182617188 1447 448.182617188 1447 386.182617188 1447 c 0,8,9
 335.182617188 1447 335.182617188 1447 295.762695312 1397 c 128,-1,10
 256.34375 1347 256.34375 1347 239.396484375 1240 c 0,0,1
223.971679688 587 m 0,11,12
 106.971679688 587 106.971679688 587 50.958984375 669 c 1,13,-1
 123.580078125 755 l 1,14,-1
 139.58984375 774 l 1,15,-1
 152.005859375 764 l 1,16,17
 153.99609375 745 153.99609375 745 162.12109375 730 c 128,-1,18
 170.245117188 715 170.245117188 715 198.443359375 691 c 0,19,20
 203.126953125 689 203.126953125 689 212.810546875 687 c 128,-1,21
 222.493164062 685 222.493164062 685 232.493164062 685 c 0,22,23
 305.493164062 685 305.493164062 685 355.9609375 779.5 c 128,-1,24
 406.427734375 874 406.427734375 874 436.54296875 1001 c 1,25,26
 377.782226562 952 377.782226562 952 305.782226562 952 c 0,27,28
 212.782226562 952 212.782226562 952 163.21484375 1030.5 c 128,-1,29
 113.6484375 1109 113.6484375 1109 134.713867188 1242 c 0,30,31
 157.99609375 1389 157.99609375 1389 234.74609375 1469.5 c 128,-1,32
 311.49609375 1550 311.49609375 1550 400.49609375 1550 c 0,33,34
 514.49609375 1550 514.49609375 1550 555.26171875 1447.5 c 128,-1,35
 596.02734375 1345 596.02734375 1345 564.508789062 1146 c 0,36,37
 518.1015625 853 518.1015625 853 433.1953125 721 c 128,-1,38
 348.288085938 589 348.288085938 589 223.971679688 587 c 0,11,12
EndSplineSet
EndChar

StartChar: fraction
Encoding: 8260 8260 526
Width: 697
VWidth: 2441
GlyphClass: 1
Flags: HW
LayerCount: 2
Fore
SplineSet
9.6865234375 -103 m 1,0,-1
 -70.552734375 -54 l 1,1,-1
 737.216796875 1624 l 1,2,-1
 819.98046875 1572 l 1,3,-1
 9.6865234375 -103 l 1,0,-1
EndSplineSet
EndChar

StartChar: onehalf
Encoding: 189 189 527
Width: 735
VWidth: 2441
GlyphClass: 1
Flags: HW
LayerCount: 2
Fore
SplineSet
286.07421875 -170 m 1,0,-1
 298.270507812 -93 l 1,1,2
 389.009765625 19 389.009765625 19 450.86328125 97 c 128,-1,3
 512.716796875 175 512.716796875 175 548.116210938 237.5 c 128,-1,4
 583.515625 300 583.515625 300 594.28515625 368 c 0,5,6
 603.947265625 429 603.947265625 429 590.198242188 459 c 128,-1,7
 576.450195312 489 576.450195312 489 543.450195312 489 c 0,8,9
 511.450195312 489 511.450195312 489 483.624023438 468 c 128,-1,10
 455.797851562 447 455.797851562 447 428.245117188 393 c 1,11,-1
 369.421875 432 l 1,12,13
 406.192382812 500 406.192382812 500 453.606445312 540.5 c 128,-1,14
 501.021484375 581 501.021484375 581 560.021484375 581 c 0,15,16
 629.021484375 581 629.021484375 581 661.810546875 526 c 128,-1,17
 694.598632812 471 694.598632812 471 677.96875 366 c 0,18,19
 659.4375 249 659.4375 249 588.2578125 150 c 128,-1,20
 517.077148438 51 517.077148438 51 414.170898438 -81 c 1,21,-1
 609.170898438 -81 l 1,22,-1
 595.07421875 -170 l 1,23,-1
 286.07421875 -170 l 1,0,-1
61.6865234375 -103 m 1,24,-1
 -7.552734375 -54 l 1,25,-1
 734.216796875 1624 l 1,26,-1
 804.98046875 1572 l 1,27,-1
 61.6865234375 -103 l 1,24,-1
173.822265625 927 m 1,28,-1
 270.912109375 1540 l 1,29,-1
 171.625976562 1494 l 1,30,-1
 166.98046875 1572 l 1,31,-1
 318.293945312 1675 l 1,32,-1
 380.293945312 1675 l 1,33,-1
 261.822265625 927 l 1,34,-1
 173.822265625 927 l 1,28,-1
EndSplineSet
EndChar

StartChar: onequarter
Encoding: 188 188 528
Width: 712
VWidth: 2441
GlyphClass: 1
Flags: HW
LayerCount: 2
Fore
SplineSet
368.521484375 98 m 1,0,-1
 485.521484375 98 l 1,1,-1
 526.860351562 359 l 1,2,-1
 368.521484375 98 l 1,0,-1
441.07421875 -170 m 1,3,-1
 469.108398438 7 l 1,4,-1
 267.108398438 7 l 1,5,-1
 279.145507812 83 l 1,6,-1
 581.229492188 576 l 1,7,-1
 643.229492188 576 l 1,8,-1
 567.521484375 98 l 1,9,-1
 625.521484375 98 l 1,10,-1
 610.791992188 5 l 1,11,-1
 552.791992188 5 l 1,12,-1
 525.07421875 -170 l 1,13,-1
 441.07421875 -170 l 1,3,-1
46.6865234375 -103 m 1,14,-1
 -21.552734375 -54 l 1,15,-1
 713.216796875 1624 l 1,16,-1
 782.98046875 1572 l 1,17,-1
 46.6865234375 -103 l 1,14,-1
159.822265625 927 m 1,18,-1
 256.912109375 1540 l 1,19,-1
 158.625976562 1494 l 1,20,-1
 154.98046875 1572 l 1,21,-1
 304.293945312 1675 l 1,22,-1
 364.293945312 1675 l 1,23,-1
 245.822265625 927 l 1,24,-1
 159.822265625 927 l 1,18,-1
EndSplineSet
EndChar

StartChar: threequarters
Encoding: 190 190 529
Width: 691
VWidth: 2441
GlyphClass: 1
Flags: HW
LayerCount: 2
Fore
SplineSet
469.521484375 98 m 1,0,-1
 510.860351562 359 l 1,1,-1
 355.521484375 98 l 1,2,-1
 469.521484375 98 l 1,0,-1
453.108398438 7 m 1,3,-1
 257.108398438 7 l 1,4,-1
 269.145507812 83 l 1,5,-1
 564.229492188 576 l 1,6,-1
 625.229492188 576 l 1,7,-1
 549.521484375 98 l 1,8,-1
 605.521484375 98 l 1,9,-1
 590.791992188 5 l 1,10,-1
 534.791992188 5 l 1,11,-1
 507.07421875 -170 l 1,12,-1
 425.07421875 -170 l 1,13,-1
 453.108398438 7 l 1,3,-1
41.6865234375 -103 m 1,14,-1
 -24.552734375 -54 l 1,15,-1
 697.216796875 1624 l 1,16,-1
 764.98046875 1572 l 1,17,-1
 41.6865234375 -103 l 1,14,-1
174.080078125 916 m 0,18,19
 129.080078125 916 129.080078125 916 96.3818359375 940 c 128,-1,20
 63.6826171875 964 63.6826171875 964 45.3349609375 1006 c 1,21,-1
 103.99609375 1067 l 1,22,-1
 123.688476562 1084 l 1,23,-1
 128.421875 1076 l 1,24,25
 127.38671875 1072.625 127.38671875 1072.625 126.837890625 1069.15625 c 0,0,0
 122.9921875 1044.875 122.9921875 1044.875 142.918945312 1016 c 0,26,27
 156.701171875 1002 156.701171875 1002 183.54296875 1001 c 0,28,29
 261.54296875 1001 261.54296875 1001 282.766601562 1135 c 0,30,31
 295.912109375 1218 295.912109375 1218 269.401367188 1249.5 c 128,-1,32
 248.782226562 1274 248.782226562 1274 204.62109375 1274 c 0,0,0
 192.00390625 1274 192.00390625 1274 177.46484375 1272 c 1,33,-1
 191.0859375 1358 l 1,34,35
 194.63671875 1357.90332031 194.63671875 1357.90332031 198.079101562 1357.90332031 c 0,0,0
 266.05859375 1357.90332031 266.05859375 1357.90332031 291.525390625 1395.5 c 128,-1,36
 318.28125 1435 318.28125 1435 326.833984375 1489 c 0,37,38
 334.912109375 1540 334.912109375 1540 321.451171875 1565.5 c 128,-1,39
 307.989257812 1591 307.989257812 1591 280.989257812 1591 c 0,40,41
 235.989257812 1591 235.989257812 1591 197.120117188 1535 c 1,42,-1
 151.356445312 1587 l 1,43,44
 183.641601562 1633 183.641601562 1633 222.364257812 1656.5 c 128,-1,45
 261.0859375 1680 261.0859375 1680 298.0859375 1680 c 0,46,47
 359.0859375 1680 359.0859375 1680 390.325195312 1631 c 128,-1,48
 421.564453125 1582 421.564453125 1582 407.151367188 1491 c 0,49,50
 387.194335938 1365 387.194335938 1365 309.017578125 1326 c 1,51,52
 342.69140625 1305 342.69140625 1305 359.748046875 1258 c 128,-1,53
 376.803710938 1211 376.803710938 1211 364.291015625 1132 c 0,54,55
 348.453125 1032 348.453125 1032 298.266601562 974 c 128,-1,56
 248.080078125 916 248.080078125 916 174.080078125 916 c 0,18,19
EndSplineSet
EndChar

StartChar: uni2070.ss02
Encoding: 65566 -1 533
Width: 532
VWidth: 2441
GlyphClass: 1
Flags: HW
LayerCount: 2
Fore
SplineSet
281.126953125 689 m 0,0,1
 342.126953125 689 342.126953125 689 389.77734375 781.5 c 128,-1,2
 437.427734375 874 437.427734375 874 467.99609375 1067 c 0,3,4
 497.456054688 1253 497.456054688 1253 480.16015625 1349 c 128,-1,5
 462.865234375 1445 462.865234375 1445 400.865234375 1445 c 0,6,7
 342.865234375 1445 342.865234375 1445 293.16015625 1349 c 128,-1,8
 243.456054688 1253 243.456054688 1253 213.99609375 1067 c 0,9,10
 183.427734375 874 183.427734375 874 203.27734375 781.5 c 128,-1,11
 223.126953125 689 223.126953125 689 281.126953125 689 c 0,0,1
264.337890625 583 m 128,-1,13
 154.337890625 583 154.337890625 583 111.106445312 701.5 c 128,-1,14
 67.875 820 67.875 820 106.99609375 1067 c 0,15,16
 145.325195312 1309 145.325195312 1309 226.41015625 1429.5 c 128,-1,17
 307.49609375 1550 307.49609375 1550 417.49609375 1550 c 128,-1,18
 527.49609375 1550 527.49609375 1550 570.41015625 1429.5 c 128,-1,19
 613.325195312 1309 613.325195312 1309 574.99609375 1067 c 0,20,21
 535.875 820 535.875 820 455.106445312 701.5 c 128,-1,12
 374.337890625 583 374.337890625 583 264.337890625 583 c 128,-1,13
EndSplineSet
EndChar

StartChar: uni2070.zero
Encoding: 65570 -1 537
Width: 532
VWidth: 2441
GlyphClass: 1
Flags: HW
LayerCount: 2
Fore
SplineSet
339.453125 1032 m 128,-1,1
 315.453125 1032 315.453125 1032 300.620117188 1052 c 128,-1,2
 285.788085938 1072 285.788085938 1072 290.064453125 1099 c 128,-1,3
 294.340820312 1126 294.340820312 1126 315.9296875 1145.5 c 128,-1,4
 337.517578125 1165 337.517578125 1165 360.517578125 1165 c 0,5,6
 384.517578125 1165 384.517578125 1165 400.350585938 1145 c 128,-1,7
 416.182617188 1125 416.182617188 1125 412.064453125 1099 c 0,8,9
 407.788085938 1072 407.788085938 1072 385.620117188 1052 c 128,-1,0
 363.453125 1032 363.453125 1032 339.453125 1032 c 128,-1,1
281.126953125 689 m 0,10,11
 342.126953125 689 342.126953125 689 389.77734375 781.5 c 128,-1,12
 437.427734375 874 437.427734375 874 467.99609375 1067 c 0,13,14
 497.456054688 1253 497.456054688 1253 480.16015625 1349 c 128,-1,15
 462.865234375 1445 462.865234375 1445 400.865234375 1445 c 0,16,17
 342.865234375 1445 342.865234375 1445 293.16015625 1349 c 128,-1,18
 243.456054688 1253 243.456054688 1253 213.99609375 1067 c 0,19,20
 183.427734375 874 183.427734375 874 203.27734375 781.5 c 128,-1,21
 223.126953125 689 223.126953125 689 281.126953125 689 c 0,10,11
264.337890625 583 m 128,-1,23
 154.337890625 583 154.337890625 583 111.106445312 701.5 c 128,-1,24
 67.875 820 67.875 820 106.99609375 1067 c 0,25,26
 145.325195312 1309 145.325195312 1309 226.41015625 1429.5 c 128,-1,27
 307.49609375 1550 307.49609375 1550 417.49609375 1550 c 128,-1,28
 527.49609375 1550 527.49609375 1550 570.41015625 1429.5 c 128,-1,29
 613.325195312 1309 613.325195312 1309 574.99609375 1067 c 0,30,31
 535.875 820 535.875 820 455.106445312 701.5 c 128,-1,22
 374.337890625 583 374.337890625 583 264.337890625 583 c 128,-1,23
EndSplineSet
EndChar

StartChar: period
Encoding: 46 46 538
Width: 281
VWidth: 2607
GlyphClass: 1
Flags: HW
LayerCount: 2
Fore
SplineSet
69.5400390625 136 m 0,0,1
 23.5400390625 136 23.5400390625 136 -2.599609375 173 c 128,-1,2
 -28.7392578125 210 -28.7392578125 210 -20.978515625 259 c 128,-1,3
 -13.2177734375 308 -13.2177734375 308 23.826171875 343 c 128,-1,4
 60.869140625 378 60.869140625 378 107.869140625 378 c 0,5,6
 151.869140625 378 151.869140625 378 177.826171875 343 c 128,-1,7
 203.782226562 308 203.782226562 308 196.021484375 259 c 128,-1,8
 188.260742188 210 188.260742188 210 150.900390625 173 c 128,-1,9
 113.540039062 136 113.540039062 136 69.5400390625 136 c 0,0,1
EndSplineSet
EndChar

StartChar: comma
Encoding: 44 44 539
Width: 318
VWidth: 2607
GlyphClass: 1
Flags: HW
LayerCount: 2
Fore
SplineSet
-34.6455078125 -244 m 1,0,-1
 -90.984375 -183 l 1,1,2
 -32.005859375 -120 -32.005859375 -120 9.7890625 -55 c 128,-1,3
 51.583984375 10 51.583984375 10 58.869140625 56 c 0,4,5
 64.4130859375 91 64.4130859375 91 46.2138671875 115 c 128,-1,6
 28.015625 139 28.015625 139 10.6875 168.5 c 128,-1,7
 -6.6396484375 198 -6.6396484375 198 0.1708984375 241 c 0,8,9
 9.83203125 302 9.83203125 302 47.8505859375 340 c 128,-1,10
 85.869140625 378 85.869140625 378 128.869140625 378 c 0,11,12
 174.869140625 378 174.869140625 378 206.400390625 334 c 128,-1,13
 237.931640625 290 237.931640625 290 223.834960938 201 c 0,14,15
 208.313476562 103 208.313476562 103 143.024414062 -3 c 128,-1,16
 77.736328125 -109 77.736328125 -109 -34.6455078125 -244 c 1,0,-1
EndSplineSet
EndChar

StartChar: colon
Encoding: 58 58 540
Width: 285
VWidth: 2716
GlyphClass: 1
Flags: HW
LayerCount: 2
Fore
SplineSet
86.8037109375 245 m 128,-1,1
 40.8037109375 245 40.8037109375 245 14.505859375 281 c 128,-1,2
 -11.7919921875 317 -11.7919921875 317 -3.71484375 368 c 0,3,4
 4.0458984375 417 4.0458984375 417 42.58984375 452 c 128,-1,5
 81.1328125 487 81.1328125 487 125.1328125 487 c 128,-1,6
 169.1328125 487 169.1328125 487 197.08984375 452 c 128,-1,7
 225.045898438 417 225.045898438 417 217.28515625 368 c 128,-1,8
 209.524414062 319 209.524414062 319 171.1640625 282 c 128,-1,0
 132.803710938 245 132.803710938 245 86.8037109375 245 c 128,-1,1
213.669921875 1046 m 128,-1,10
 169.669921875 1046 169.669921875 1046 142.372070312 1082 c 128,-1,11
 115.07421875 1118 115.07421875 1118 122.834960938 1167 c 128,-1,12
 130.595703125 1216 130.595703125 1216 169.296875 1252 c 128,-1,13
 207.999023438 1288 207.999023438 1288 251.999023438 1288 c 128,-1,14
 295.999023438 1288 295.999023438 1288 323.638671875 1251 c 128,-1,15
 351.278320312 1214 351.278320312 1214 343.834960938 1167 c 0,16,17
 336.07421875 1118 336.07421875 1118 296.872070312 1082 c 128,-1,9
 257.669921875 1046 257.669921875 1046 213.669921875 1046 c 128,-1,10
EndSplineSet
EndChar

StartChar: semicolon
Encoding: 59 59 541
Width: 318
VWidth: 2716
GlyphClass: 1
Flags: HW
LayerCount: 2
Fore
SplineSet
-17.3818359375 -135 m 1,0,-1
 -73.720703125 -74 l 1,1,2
 -14.7421875 -11 -14.7421875 -11 27.052734375 54 c 128,-1,3
 68.84765625 119 68.84765625 119 76.1337890625 165 c 0,4,5
 81.6767578125 200 81.6767578125 200 63.478515625 224 c 128,-1,6
 45.279296875 248 45.279296875 248 27.9521484375 277.5 c 128,-1,7
 10.6240234375 307 10.6240234375 307 17.4345703125 350 c 0,8,9
 27.095703125 411 27.095703125 411 64.6142578125 449 c 128,-1,10
 102.1328125 487 102.1328125 487 146.1328125 487 c 0,11,12
 192.1328125 487 192.1328125 487 223.6640625 443 c 128,-1,13
 255.1953125 399 255.1953125 399 241.099609375 310 c 0,14,15
 225.577148438 212 225.577148438 212 160.2890625 106 c 128,-1,16
 95 0 95 0 -17.3818359375 -135 c 1,0,-1
234.669921875 1046 m 128,-1,18
 190.669921875 1046 190.669921875 1046 163.372070312 1082 c 128,-1,19
 136.07421875 1118 136.07421875 1118 143.834960938 1167 c 128,-1,20
 151.595703125 1216 151.595703125 1216 190.296875 1252 c 128,-1,21
 228.999023438 1288 228.999023438 1288 272.999023438 1288 c 128,-1,22
 316.999023438 1288 316.999023438 1288 344.638671875 1251 c 128,-1,23
 372.278320312 1214 372.278320312 1214 364.834960938 1167 c 0,24,25
 357.07421875 1118 357.07421875 1118 317.872070312 1082 c 128,-1,17
 278.669921875 1046 278.669921875 1046 234.669921875 1046 c 128,-1,18
EndSplineSet
EndChar

StartChar: ellipsis
Encoding: 8230 8230 542
Width: 751
VWidth: 2441
GlyphClass: 1
Flags: HW
LayerCount: 2
Fore
SplineSet
8.248046875 -30 m 0,0,1
 -32.751953125 -30 -32.751953125 -30 -54.3916015625 7 c 128,-1,2
 -76.03125 44 -76.03125 44 -68.2705078125 93 c 128,-1,3
 -60.509765625 142 -60.509765625 142 -27.4658203125 177 c 128,-1,4
 5.5771484375 212 5.5771484375 212 46.5771484375 212 c 0,5,6
 85.5771484375 212 85.5771484375 212 108.534179688 177 c 128,-1,7
 131.490234375 142 131.490234375 142 123.729492188 93 c 128,-1,8
 115.96875 44 115.96875 44 81.6083984375 7 c 128,-1,9
 47.248046875 -30 47.248046875 -30 8.248046875 -30 c 0,0,1
262.248046875 -30 m 0,10,11
 221.248046875 -30 221.248046875 -30 199.608398438 7 c 128,-1,12
 177.96875 44 177.96875 44 185.729492188 93 c 128,-1,13
 193.490234375 142 193.490234375 142 226.534179688 177 c 128,-1,14
 259.577148438 212 259.577148438 212 300.577148438 212 c 0,15,16
 339.577148438 212 339.577148438 212 362.034179688 177 c 128,-1,17
 384.490234375 142 384.490234375 142 376.729492188 93 c 128,-1,18
 368.96875 44 368.96875 44 335.108398438 7 c 128,-1,19
 301.248046875 -30 301.248046875 -30 262.248046875 -30 c 0,10,11
519.248046875 -30 m 0,20,21
 480.248046875 -30 480.248046875 -30 457.108398438 7 c 128,-1,22
 433.96875 44 433.96875 44 441.729492188 93 c 128,-1,23
 449.490234375 142 449.490234375 142 484.034179688 177 c 128,-1,24
 518.577148438 212 518.577148438 212 557.577148438 212 c 0,25,26
 598.577148438 212 598.577148438 212 621.034179688 177 c 128,-1,27
 643.490234375 142 643.490234375 142 635.729492188 93 c 128,-1,28
 627.96875 44 627.96875 44 594.108398438 7 c 128,-1,29
 560.248046875 -30 560.248046875 -30 519.248046875 -30 c 0,20,21
EndSplineSet
EndChar

StartChar: exclam
Encoding: 33 33 543
Width: 286
VWidth: 2441
GlyphClass: 1
Flags: HW
LayerCount: 2
Fore
SplineSet
43.248046875 -30 m 0,0,1
 -0.751953125 -30 -0.751953125 -30 -27.8916015625 7 c 128,-1,2
 -55.03125 44 -55.03125 44 -47.2705078125 93 c 128,-1,3
 -39.509765625 142 -39.509765625 142 -0.728515625 178.5 c 128,-1,4
 38.052734375 215 38.052734375 215 82.052734375 215 c 0,5,6
 128.052734375 215 128.052734375 215 155.271484375 178.5 c 128,-1,7
 182.490234375 142 182.490234375 142 174.729492188 93 c 128,-1,8
 166.96875 44 166.96875 44 128.108398438 7 c 128,-1,9
 89.248046875 -30 89.248046875 -30 43.248046875 -30 c 0,0,1
75.916015625 473 m 1,10,-1
 186.250976562 1479 l 2,11,12
 197.337890625 1549 197.337890625 1549 229.831054688 1590 c 128,-1,13
 262.325195312 1631 262.325195312 1631 308.325195312 1631 c 0,14,15
 352.325195312 1631 352.325195312 1631 373.91015625 1590.5 c 0,16,17
 394.056640625 1552.70019531 394.056640625 1552.70019531 380.688476562 1468.29589844 c 0,18,19
 379.733398438 1462.26660156 379.733398438 1462.26660156 378.607421875 1456 c 2,20,-1
 171.916015625 473 l 1,21,-1
 75.916015625 473 l 1,10,-1
EndSplineSet
EndChar

StartChar: question
Encoding: 63 63 545
Width: 699
VWidth: 2441
GlyphClass: 1
Flags: HW
LayerCount: 2
Fore
SplineSet
273.248046875 -30 m 0,0,1
 229.248046875 -30 229.248046875 -30 202.108398438 7 c 128,-1,2
 174.96875 44 174.96875 44 182.729492188 93 c 128,-1,3
 190.490234375 142 190.490234375 142 229.034179688 177 c 128,-1,4
 267.577148438 212 267.577148438 212 311.577148438 212 c 0,5,6
 357.577148438 212 357.577148438 212 383.534179688 177 c 128,-1,7
 409.490234375 142 409.490234375 142 401.729492188 93 c 128,-1,8
 393.96875 44 393.96875 44 356.608398438 7 c 128,-1,9
 319.248046875 -30 319.248046875 -30 273.248046875 -30 c 0,0,1
291.2109375 538 m 2,10,11
 308.6328125 648 308.6328125 648 343.298828125 718.5 c 128,-1,12
 377.96484375 789 377.96484375 789 420.622070312 840.5 c 128,-1,13
 463.279296875 892 463.279296875 892 506.356445312 943 c 128,-1,14
 549.434570312 994 549.434570312 994 583.545898438 1061 c 128,-1,15
 617.657226562 1128 617.657226562 1128 633.8125 1230 c 0,16,17
 651.235351562 1340 651.235351562 1340 617.138671875 1412 c 128,-1,18
 583.04296875 1484 583.04296875 1484 501.04296875 1484 c 0,19,20
 384.04296875 1484 384.04296875 1484 295.412109375 1379 c 1,21,22
 272.869140625 1344 272.869140625 1344 266.096679688 1326.5 c 128,-1,23
 259.325195312 1309 259.325195312 1309 265.157226562 1289 c 1,24,-1
 253.782226562 1274 l 1,25,-1
 234.682617188 1286 l 1,26,-1
 155.303710938 1372 l 1,27,28
 229.833984375 1489 229.833984375 1489 315.025390625 1556.5 c 128,-1,29
 400.216796875 1624 400.216796875 1624 528.216796875 1624 c 0,30,31
 665.216796875 1624 665.216796875 1624 732.986328125 1531 c 128,-1,32
 800.756835938 1438 800.756835938 1438 769.713867188 1242 c 0,33,34
 750.866210938 1123 750.866210938 1123 715.51171875 1045 c 128,-1,35
 680.158203125 967 680.158203125 967 635.288085938 911 c 128,-1,36
 590.418945312 855 590.418945312 855 548.658203125 806 c 128,-1,37
 506.897460938 757 506.897460938 757 472.998046875 694.5 c 128,-1,38
 439.098632812 632 439.098632812 632 424.2109375 538 c 2,39,-1
 408.213867188 437 l 1,40,-1
 275.213867188 437 l 1,41,-1
 291.2109375 538 l 2,10,11
EndSplineSet
EndChar

StartChar: periodcentered
Encoding: 183 183 547
Width: 283
VWidth: 2441
GlyphClass: 1
Flags: HW
LayerCount: 2
Fore
SplineSet
157.126953125 689 m 128,-1,1
 111.126953125 689 111.126953125 689 84.669921875 724 c 128,-1,2
 58.2138671875 759 58.2138671875 759 66.4501953125 811 c 0,3,4
 74.2109375 860 74.2109375 860 112.75390625 895 c 128,-1,5
 151.297851562 930 151.297851562 930 195.297851562 930 c 128,-1,6
 239.297851562 930 239.297851562 930 266.174804688 894.5 c 128,-1,7
 293.051757812 859 293.051757812 859 285.450195312 811 c 0,8,9
 277.688476562 762 277.688476562 762 240.408203125 725.5 c 128,-1,0
 203.126953125 689 203.126953125 689 157.126953125 689 c 128,-1,1
EndSplineSet
Substitution2: "Single Substitution lookup 11 subtable" periodcentered.loclCAT
Substitution2: "Single Substitution lookup 10 subtable" periodcentered.loclCAT
Substitution2: "'aalt' Access All Alternates in Latin lookup 0 subtable" periodcentered.loclCAT
EndChar

StartChar: bullet
Encoding: 8226 8226 548
Width: 364
VWidth: 2441
GlyphClass: 1
Flags: HW
LayerCount: 2
Fore
SplineSet
174.427734375 552 m 0,0,1
 113.427734375 552 113.427734375 552 77.34765625 602 c 128,-1,2
 41.2666015625 652 41.2666015625 652 51.7197265625 718 c 0,3,4
 62.806640625 788 62.806640625 788 115.067382812 837 c 128,-1,5
 167.329101562 886 167.329101562 886 227.329101562 886 c 0,6,7
 288.329101562 886 288.329101562 886 325.409179688 836 c 128,-1,8
 362.490234375 786 362.490234375 786 351.719726562 718 c 0,9,10
 341.266601562 652 341.266601562 652 289.34765625 602 c 128,-1,11
 237.427734375 552 237.427734375 552 174.427734375 552 c 0,0,1
EndSplineSet
EndChar

StartChar: asterisk
Encoding: 42 42 549
Width: 768
VWidth: 2441
GlyphClass: 1
Flags: HW
LayerCount: 2
Fore
SplineSet
149.515625 300 m 1,0,-1
 62.720703125 396 l 1,1,-1
 342.114257812 771 l 1,2,-1
 80.7041015625 901 l 1,3,-1
 153.036132812 1042 l 1,4,-1
 381.745117188 876 l 1,5,-1
 427.325195312 1309 l 1,6,-1
 572.325195312 1309 l 1,7,-1
 471.745117188 876 l 1,8,-1
 761.245117188 1037 l 1,9,-1
 784.704101562 901 l 1,10,-1
 475.114257812 771 l 1,11,-1
 635.720703125 396 l 1,12,-1
 518.990234375 303 l 1,13,-1
 395.126953125 689 l 1,14,-1
 149.515625 300 l 1,0,-1
EndSplineSet
Substitution2: "'ss01' Style Set 1 in Latin lookup 35 subtable" asterisk.ss01
Substitution2: "'salt' Stylistic Alternatives in Latin lookup 34 subtable" asterisk.ss01
Substitution2: "'aalt' Access All Alternates in Latin lookup 0 subtable" asterisk.ss01
EndChar

StartChar: uni2E12
Encoding: 11794 11794 550
Width: 272
VWidth: 2212
GlyphClass: 1
Flags: HW
LayerCount: 2
Fore
SplineSet
-100.962890625 -246 m 1,0,-1
 -83.3818359375 -135 l 1,1,2
 -33.3818359375 -135 -33.3818359375 -135 3.56640625 -78.5 c 128,-1,3
 40.515625 -22 40.515625 -22 51.4443359375 47 c 0,4,5
 62.53125 117 62.53125 117 44.6376953125 174.5 c 128,-1,6
 26.7451171875 232 26.7451171875 232 -25.2548828125 232 c 1,7,-1
 -8.1494140625 340 l 1,8,9
 78.8505859375 340 78.8505859375 340 127.234375 263.5 c 128,-1,10
 175.618164062 187 175.618164062 187 153.126953125 45 c 0,11,12
 131.428710938 -92 131.428710938 -92 59.7333984375 -169 c 128,-1,13
 -11.962890625 -246 -11.962890625 -246 -100.962890625 -246 c 1,0,-1
EndSplineSet
EndChar

StartChar: numbersign
Encoding: 35 35 551
Width: 768
VWidth: 2441
GlyphClass: 1
Flags: HW
LayerCount: 2
Fore
SplineSet
288.545898438 578 m 1,0,-1
 449.545898438 578 l 1,1,-1
 548.225585938 999 l 1,2,-1
 386.225585938 999 l 1,3,-1
 288.545898438 578 l 1,0,-1
319.80078125 24 m 1,4,-1
 423.916015625 473 l 1,5,-1
 260.916015625 473 l 1,6,-1
 157.54296875 35 l 1,7,-1
 57.068359375 32 l 1,8,-1
 157.124023438 468 l 1,9,-1
 12.1240234375 468 l 1,10,-1
 35.75390625 573 l 1,11,-1
 182.75390625 573 l 1,12,-1
 281.909179688 997 l 1,13,-1
 117.909179688 997 l 1,14,-1
 136.856445312 1104 l 1,15,-1
 306.856445312 1104 l 1,16,-1
 405.219726562 1523 l 1,17,-1
 511.01171875 1528 l 1,18,-1
 412.6484375 1109 l 1,19,-1
 574.6484375 1109 l 1,20,-1
 669.5859375 1519 l 1,21,-1
 777.90234375 1521 l 1,22,-1
 682.282226562 1113 l 1,23,-1
 818.282226562 1113 l 1,24,-1
 792.017578125 1004 l 1,25,-1
 656.017578125 1004 l 1,26,-1
 555.971679688 587 l 1,27,-1
 705.971679688 587 l 1,28,-1
 680.024414062 480 l 1,29,-1
 532.024414062 480 l 1,30,-1
 425.54296875 35 l 1,31,-1
 319.80078125 24 l 1,4,-1
EndSplineSet
EndChar

StartChar: slash
Encoding: 47 47 552
Width: 730
VWidth: 2441
GlyphClass: 1
Flags: HW
LayerCount: 2
Fore
SplineSet
47.6865234375 -103 m 1,0,-1
 -69.2861328125 -46 l 1,1,-1
 731.216796875 1624 l 1,2,-1
 851.5546875 1563 l 1,3,-1
 47.6865234375 -103 l 1,0,-1
EndSplineSet
Substitution2: "'frac' Diagonal Fractions in Latin lookup 23 subtable" fraction
Substitution2: "'aalt' Access All Alternates in Latin lookup 0 subtable" fraction
EndChar

StartChar: backslash
Encoding: 92 92 553
Width: 730
VWidth: 2441
GlyphClass: 1
Flags: HW
LayerCount: 2
Fore
SplineSet
460.686523438 -103 m 1,0,-1
 185.5546875 1563 l 1,1,-1
 321.216796875 1624 l 1,2,-1
 596.713867188 -46 l 1,3,-1
 460.686523438 -103 l 1,0,-1
EndSplineSet
EndChar

StartChar: asterisk.ss01
Encoding: 65572 -1 555
Width: 768
VWidth: 2441
GlyphClass: 1
Flags: HW
LayerCount: 2
Fore
SplineSet
172.797851562 447 m 1,0,-1
 85.8447265625 542 l 1,1,-1
 365.396484375 918 l 1,2,-1
 103.987304688 1048 l 1,3,-1
 176.319335938 1189 l 1,4,-1
 405.02734375 1023 l 1,5,-1
 450.607421875 1456 l 1,6,-1
 595.607421875 1456 l 1,7,-1
 495.02734375 1023 l 1,8,-1
 784.52734375 1184 l 1,9,-1
 807.987304688 1048 l 1,10,-1
 498.396484375 918 l 1,11,-1
 658.844726562 542 l 1,12,-1
 542.114257812 449 l 1,13,-1
 418.092773438 834 l 1,14,-1
 172.797851562 447 l 1,0,-1
EndSplineSet
EndChar

StartChar: parenleft
Encoding: 40 40 556
Width: 591
VWidth: 2449
GlyphClass: 1
Flags: HW
LayerCount: 2
Fore
SplineSet
377.037109375 -246 m 1,0,1
 250.083984375 -151 250.083984375 -151 166.92578125 9 c 128,-1,2
 83.7666015625 169 83.7666015625 169 56.181640625 370.5 c 128,-1,3
 28.595703125 572 28.595703125 572 62.96484375 789 c 128,-1,4
 97.3349609375 1006 97.3349609375 1006 187.95703125 1202.5 c 128,-1,5
 278.580078125 1399 278.580078125 1399 408.129882812 1554 c 128,-1,6
 537.678710938 1709 537.678710938 1709 691.409179688 1802 c 1,7,-1
 723.452148438 1676 l 1,8,9
 599.831054688 1590 599.831054688 1590 490.657226562 1450 c 128,-1,10
 381.483398438 1310 381.483398438 1310 305.162109375 1137.5 c 128,-1,11
 228.840820312 965 228.840820312 965 199.856445312 782 c 0,12,13
 170.713867188 598 170.713867188 598 192.313476562 425 c 128,-1,14
 213.913085938 252 213.913085938 252 279.501953125 110.5 c 128,-1,15
 345.08984375 -31 345.08984375 -31 446.310546875 -118 c 1,16,-1
 377.037109375 -246 l 1,0,1
EndSplineSet
EndChar

StartChar: parenright
Encoding: 41 41 557
Width: 591
VWidth: 2449
GlyphClass: 1
Flags: HW
LayerCount: 2
Fore
SplineSet
-51.962890625 -246 m 1,0,1
 105.083984375 -151 105.083984375 -151 237.42578125 9 c 0,2,3
 370.766601562 169 370.766601562 169 463.602539062 370 c 0,4,5
 555.4375 571 555.4375 571 589.96484375 789 c 0,6,7
 624.334960938 1006 624.334960938 1006 595.377929688 1202 c 0,8,9
 566.580078125 1399 566.580078125 1399 487.129882812 1554 c 0,10,11
 406.678710938 1709 406.678710938 1709 281.409179688 1802 c 1,12,-1
 210.452148438 1676 l 1,13,14
 306.831054688 1590 306.831054688 1590 371.499023438 1449 c 0,15,16
 436.166992188 1308 436.166992188 1308 457.083007812 1137 c 0,17,18
 478.40625 968.440429688 478.40625 968.440429688 450.03515625 789.315429688 c 0,0,0
 449.456054688 785.66015625 449.456054688 785.66015625 448.856445312 782 c 0,1,2
 419.713867188 598 419.713867188 598 344.313476562 425 c 0,3,4
 267.913085938 252 267.913085938 252 158.581054688 111 c 0,5,6
 48.08984375 -31 48.08984375 -31 -80.689453125 -118 c 1,7,-1
 -51.962890625 -246 l 1,0,1
EndSplineSet
EndChar

StartChar: braceleft
Encoding: 123 123 558
Width: 681
VWidth: 2486
GlyphClass: 1
Flags: HW
LayerCount: 2
Fore
SplineSet
462.381835938 -187 m 2,0,1
 340.381835938 -187 340.381835938 -187 260.504882812 -151.5 c 128,-1,2
 180.626953125 -116 180.626953125 -116 153.778320312 -23.5 c 128,-1,3
 129.2890625 60.8681640625 129.2890625 60.8681640625 153.126953125 211.373046875 c 0,0,0
 155.423828125 225.87890625 155.423828125 225.87890625 158.170898438 241 c 2,4,-1
 201.81640625 485 l 2,5,6
 227.31640625 646 227.31640625 646 197.685546875 702 c 128,-1,7
 168.055664062 758 168.055664062 758 91.0556640625 758 c 2,8,-1
 58.0556640625 758 l 1,9,-1
 79.75390625 895 l 1,10,-1
 112.75390625 895 l 2,11,12
 191.75390625 895 191.75390625 895 241.915039062 956 c 128,-1,13
 292.077148438 1017 292.077148438 1017 314.092773438 1156 c 1,14,-1
 335.809570312 1331 l 1,15,16
 369.38671875 1543 369.38671875 1543 470.833984375 1650 c 128,-1,17
 572.28125 1757 572.28125 1757 726.28125 1757 c 2,18,-1
 833.28125 1757 l 1,19,-1
 811.899414062 1622 l 1,20,-1
 684.899414062 1622 l 2,21,22
 523.899414062 1622 523.899414062 1622 482.244140625 1359 c 1,23,-1
 460.001953125 1187 l 1,24,25
 417.555664062 919 417.555664062 919 248.825195312 826 c 1,26,27
 386.73828125 756 386.73828125 756 337.956054688 448 c 2,28,-1
 303.487304688 243 l 2,29,30
 277.1953125 77 277.1953125 77 314.2421875 11 c 128,-1,31
 351.2890625 -55 351.2890625 -55 458.2890625 -55 c 2,32,-1
 544.2890625 -55 l 1,33,-1
 523.381835938 -187 l 1,34,-1
 462.381835938 -187 l 2,0,1
EndSplineSet
EndChar

StartChar: braceright
Encoding: 125 125 559
Width: 681
VWidth: 2486
GlyphClass: 1
Flags: HW
LayerCount: 2
Fore
SplineSet
-28.6181640625 -187 m 2,0,1
 93.3818359375 -187 93.3818359375 -187 184.92578125 -152 c 0,2,3
 276.626953125 -116 276.626953125 -116 332.357421875 -23 c 0,4,5
 383.051757812 60.1064453125 383.051757812 60.1064453125 406.080078125 205.5 c 0,0,0
 408.821289062 222.80859375 408.821289062 222.80859375 411.170898438 241 c 2,1,-1
 444.81640625 485 l 2,2,3
 470.31640625 646 470.31640625 646 517.185546875 702 c 0,4,5
 565.055664062 758 565.055664062 758 642.055664062 758 c 2,6,-1
 675.055664062 758 l 1,7,-1
 696.75390625 895 l 1,8,-1
 663.75390625 895 l 2,9,10
 584.75390625 895 584.75390625 895 554.415039062 956 c 0,11,12
 524.534179688 1014.16308594 524.534179688 1014.16308594 544.978515625 1143.23828125 c 0,0,0
 545.975585938 1149.53515625 545.975585938 1149.53515625 547.092773438 1156 c 2,1,-1
 578.809570312 1331 l 1,2,3
 612.38671875 1543 612.38671875 1543 545.493164062 1651 c 0,4,5
 477.28125 1757 477.28125 1757 323.28125 1757 c 2,6,-1
 216.28125 1757 l 1,7,-1
 194.899414062 1622 l 1,8,-1
 322.899414062 1622 l 2,9,10
 483.899414062 1622 483.899414062 1622 441.244140625 1359 c 1,11,-1
 410.001953125 1187 l 1,12,13
 367.555664062 919 367.555664062 919 505.825195312 826 c 1,14,15
 345.73828125 756 345.73828125 756 296.956054688 448 c 1,16,-1
 267.487304688 243 l 2,17,18
 241.1953125 77 241.1953125 77 182.583984375 10 c 0,19,20
 125.002929688 -55.0146484375 125.002929688 -55.0146484375 20.4677734375 -55.0146484375 c 0,0,0
 18.8837890625 -55.0146484375 18.8837890625 -55.0146484375 17.2890625 -55 c 2,1,-1
 -68.7109375 -55 l 1,2,-1
 -89.6181640625 -187 l 1,3,-1
 -28.6181640625 -187 l 2,0,1
EndSplineSet
EndChar

StartChar: bracketleft
Encoding: 91 91 560
Width: 567
VWidth: 2516
GlyphClass: 1
Flags: HW
LayerCount: 2
Fore
SplineSet
-84.490234375 -142 m 1,0,-1
 208.99609375 1711 l 1,1,-1
 709.99609375 1711 l 1,2,-1
 687.504882812 1569 l 1,3,-1
 321.504882812 1569 l 1,4,-1
 71.7333984375 -8 l 1,5,-1
 439.733398438 -8 l 1,6,-1
 418.509765625 -142 l 1,7,-1
 -84.490234375 -142 l 1,0,-1
EndSplineSet
EndChar

StartChar: bracketright
Encoding: 93 93 561
Width: 567
VWidth: 2516
GlyphClass: 1
Flags: HW
LayerCount: 2
Fore
SplineSet
418.509765625 -142 m 1,0,-1
 711.99609375 1711 l 1,1,-1
 210.99609375 1711 l 1,2,-1
 188.504882812 1569 l 1,3,-1
 554.504882812 1569 l 1,4,-1
 304.733398438 -8 l 1,5,-1
 -63.2666015625 -8 l 1,6,-1
 -84.490234375 -142 l 1,7,-1
 418.509765625 -142 l 1,0,-1
EndSplineSet
EndChar

StartChar: hyphen
Encoding: 45 45 562
Width: 542
VWidth: 2441
GlyphClass: 1
Flags: HW
LayerCount: 2
Fore
SplineSet
48.7109375 699 m 1,0,-1
 72.626953125 850 l 1,1,-1
 550.626953125 850 l 1,2,-1
 526.7109375 699 l 1,3,-1
 48.7109375 699 l 1,0,-1
EndSplineSet
EndChar

StartChar: endash
Encoding: 8211 8211 564
Width: 679
VWidth: 2441
GlyphClass: 1
Flags: HW
LayerCount: 2
Fore
SplineSet
48.7109375 699 m 1,0,-1
 72.626953125 850 l 1,1,-1
 687.626953125 850 l 1,2,-1
 663.7109375 699 l 1,3,-1
 48.7109375 699 l 1,0,-1
EndSplineSet
EndChar

StartChar: emdash
Encoding: 8212 8212 565
Width: 713
VWidth: 2441
GlyphClass: 1
Flags: HW
LayerCount: 2
Fore
SplineSet
12.7109375 699 m 1,0,-1
 36.626953125 850 l 1,1,-1
 740.626953125 850 l 1,2,-1
 716.7109375 699 l 1,3,-1
 12.7109375 699 l 1,0,-1
EndSplineSet
EndChar

StartChar: underscore
Encoding: 95 95 569
Width: 768
VWidth: 2441
GlyphClass: 1
Flags: HW
LayerCount: 2
Fore
SplineSet
-92.568359375 -193 m 1,0,-1
 -70.0771484375 -51 l 1,1,-1
 633.922851562 -51 l 1,2,-1
 611.431640625 -193 l 1,3,-1
 -92.568359375 -193 l 1,0,-1
EndSplineSet
EndChar

StartChar: quotedblleft
Encoding: 8220 8220 572
Width: 668
VWidth: 2441
GlyphClass: 1
Flags: HW
LayerCount: 2
Fore
SplineSet
371.762695312 1558 m 1,0,-1
 426.943359375 1496 l 1,1,2
 365.96484375 1433 365.96484375 1433 321.853515625 1366 c 128,-1,3
 277.741210938 1299 277.741210938 1299 269.188476562 1245 c 0,4,5
 263.645507812 1210 263.645507812 1210 282.84375 1186 c 128,-1,6
 302.04296875 1162 302.04296875 1162 320.845703125 1135.5 c 128,-1,7
 339.6484375 1109 339.6484375 1109 332.99609375 1067 c 0,8,9
 323.809570312 1009 323.809570312 1009 288.94921875 972 c 128,-1,10
 254.08984375 935 254.08984375 935 208.08984375 935 c 0,11,12
 159.08984375 935 159.08984375 935 130.271484375 983.5 c 128,-1,13
 101.453125 1032 101.453125 1032 113.96484375 1111 c 0,14,15
 129.486328125 1209 129.486328125 1209 190.93359375 1316 c 128,-1,16
 252.380859375 1423 252.380859375 1423 371.762695312 1558 c 1,0,-1
725.762695312 1558 m 1,17,-1
 778.943359375 1496 l 1,18,19
 714.96484375 1433 714.96484375 1433 673.353515625 1366 c 128,-1,20
 631.741210938 1299 631.741210938 1299 623.188476562 1245 c 0,21,22
 617.645507812 1210 617.645507812 1210 636.84375 1186 c 128,-1,23
 656.04296875 1162 656.04296875 1162 675.345703125 1135.5 c 128,-1,24
 694.6484375 1109 694.6484375 1109 687.99609375 1067 c 0,25,26
 678.809570312 1009 678.809570312 1009 643.44921875 972 c 128,-1,27
 608.08984375 935 608.08984375 935 562.08984375 935 c 0,28,29
 513.08984375 935 513.08984375 935 484.271484375 983.5 c 128,-1,30
 455.453125 1032 455.453125 1032 467.96484375 1111 c 0,31,32
 483.486328125 1209 483.486328125 1209 544.93359375 1316 c 128,-1,33
 606.380859375 1423 606.380859375 1423 725.762695312 1558 c 1,17,-1
EndSplineSet
EndChar

StartChar: quoteleft
Encoding: 8216 8216 574
Width: 316
VWidth: 2441
GlyphClass: 1
Flags: HW
LayerCount: 2
Fore
SplineSet
372.762695312 1558 m 1,0,-1
 426.943359375 1496 l 1,1,2
 365.96484375 1433 365.96484375 1433 322.353515625 1366 c 128,-1,3
 278.741210938 1299 278.741210938 1299 270.188476562 1245 c 0,4,5
 264.645507812 1210 264.645507812 1210 283.84375 1186 c 128,-1,6
 303.04296875 1162 303.04296875 1162 321.345703125 1135.5 c 128,-1,7
 339.6484375 1109 339.6484375 1109 332.99609375 1067 c 0,8,9
 323.809570312 1009 323.809570312 1009 288.94921875 972 c 128,-1,10
 254.08984375 935 254.08984375 935 208.08984375 935 c 0,11,12
 159.08984375 935 159.08984375 935 130.271484375 983.5 c 128,-1,13
 101.453125 1032 101.453125 1032 113.96484375 1111 c 0,14,15
 129.486328125 1209 129.486328125 1209 191.43359375 1316 c 128,-1,16
 253.380859375 1423 253.380859375 1423 372.762695312 1558 c 1,0,-1
EndSplineSet
EndChar

StartChar: quoteright
Encoding: 8217 8217 575
Width: 318
VWidth: 2441
GlyphClass: 1
Flags: HW
LayerCount: 2
Fore
SplineSet
153.08984375 935 m 1,0,-1
 95.9091796875 997 l 1,1,2
 159.887695312 1060 159.887695312 1060 202.737304688 1128.5 c 128,-1,3
 245.5859375 1197 245.5859375 1197 253.98046875 1250 c 0,4,5
 259.524414062 1285 259.524414062 1285 240.087890625 1307.5 c 128,-1,6
 220.651367188 1330 220.651367188 1330 201.427734375 1357 c 128,-1,7
 182.204101562 1384 182.204101562 1384 188.856445312 1426 c 0,8,9
 198.04296875 1484 198.04296875 1484 234.40234375 1521 c 128,-1,10
 270.762695312 1558 270.762695312 1558 316.762695312 1558 c 128,-1,11
 362.762695312 1558 362.762695312 1558 393.239257812 1510.5 c 128,-1,12
 423.716796875 1463 423.716796875 1463 410.887695312 1382 c 0,13,14
 395.840820312 1287 395.840820312 1287 332.65625 1178.5 c 128,-1,15
 269.471679688 1070 269.471679688 1070 153.08984375 935 c 1,0,-1
EndSplineSet
EndChar

StartChar: guillemotleft
Encoding: 171 171 576
Width: 726
VWidth: 2441
GlyphClass: 1
Flags: HW
LayerCount: 2
Fore
SplineSet
539.599609375 149 m 1,0,-1
 338.853515625 561 l 1,1,-1
 347.723632812 617 l 1,2,-1
 661.583007812 976 l 1,3,-1
 728.745117188 876 l 1,4,-1
 476.288085938 589 l 1,5,-1
 639.12109375 247 l 1,6,-1
 539.599609375 149 l 1,0,-1
232.599609375 149 m 1,7,-1
 26.853515625 561 l 1,8,-1
 35.7236328125 617 l 1,9,-1
 353.583007812 976 l 1,10,-1
 418.745117188 876 l 1,11,-1
 166.288085938 589 l 1,12,-1
 331.12109375 247 l 1,13,-1
 232.599609375 149 l 1,7,-1
EndSplineSet
EndChar

StartChar: guilsinglleft
Encoding: 8249 8249 578
Width: 416
VWidth: 2441
GlyphClass: 1
Flags: HW
LayerCount: 2
Fore
SplineSet
229.599609375 149 m 1,0,-1
 26.853515625 561 l 1,1,-1
 35.7236328125 617 l 1,2,-1
 351.583007812 976 l 1,3,-1
 417.219726562 879 l 1,4,-1
 162.288085938 589 l 1,5,-1
 328.645507812 244 l 1,6,-1
 229.599609375 149 l 1,0,-1
EndSplineSet
EndChar

StartChar: guilsinglright
Encoding: 8250 8250 579
Width: 416
VWidth: 2441
GlyphClass: 1
Flags: HW
LayerCount: 2
Fore
SplineSet
43.599609375 149 m 1,0,-1
 -23.3544921875 244 l 1,1,-1
 253.288085938 589 l 1,2,-1
 87.2197265625 879 l 1,3,-1
 184.583007812 976 l 1,4,-1
 387.723632812 617 l 1,5,-1
 378.853515625 561 l 1,6,-1
 43.599609375 149 l 1,0,-1
EndSplineSet
EndChar

StartChar: quotedbl
Encoding: 34 34 580
Width: 490
VWidth: 2441
GlyphClass: 1
Flags: HW
LayerCount: 2
Fore
SplineSet
195.216796875 1624 m 1,0,-1
 346.216796875 1624 l 1,1,2
 322.93359375 1477 322.93359375 1477 306.99609375 1389 c 0,3,4
 291.05859375 1301 291.05859375 1301 277.5546875 1241 c 0,5,6
 264.051757812 1181 264.051757812 1181 250.499023438 1127 c 0,7,8
 235.788085938 1072 235.788085938 1072 218.434570312 994 c 1,9,-1
 125.434570312 994 l 1,10,11
 132.946289062 1073 132.946289062 1073 135.499023438 1127 c 0,12,13
 138.209960938 1182 138.209960938 1182 142.396484375 1240 c 0,14,15
 147.583007812 1298 147.583007812 1298 159.837890625 1388 c 0,16,17
 171.93359375 1477 171.93359375 1477 195.216796875 1624 c 1,0,-1
469.216796875 1624 m 1,18,-1
 621.216796875 1624 l 1,19,20
 597.93359375 1477 597.93359375 1477 580.99609375 1389 c 0,21,22
 565.05859375 1301 565.05859375 1301 550.5546875 1241 c 0,23,24
 537.051757812 1181 537.051757812 1181 522.499023438 1127 c 0,25,26
 507.788085938 1072 507.788085938 1072 491.434570312 994 c 1,27,-1
 398.434570312 994 l 1,28,29
 405.946289062 1073 405.946289062 1073 408.499023438 1127 c 0,30,31
 411.209960938 1182 411.209960938 1182 417.396484375 1240 c 0,32,33
 422.583007812 1298 422.583007812 1298 434.837890625 1388 c 0,34,35
 445.93359375 1477 445.93359375 1477 469.216796875 1624 c 1,18,-1
EndSplineSet
Substitution2: "'ss03' Style Set 3 in Latin lookup 37 subtable" quotedbl.ss03
Substitution2: "'aalt' Access All Alternates in Latin lookup 0 subtable" quotedbl.ss03
EndChar

StartChar: quotesingle
Encoding: 39 39 581
Width: 215
VWidth: 2441
GlyphClass: 1
Flags: HW
LayerCount: 2
Fore
SplineSet
195.216796875 1624 m 1,0,-1
 346.216796875 1624 l 1,1,2
 322.93359375 1477 322.93359375 1477 307.075195312 1389.5 c 128,-1,3
 291.216796875 1302 291.216796875 1302 277.634765625 1241.5 c 128,-1,4
 264.051757812 1181 264.051757812 1181 248.919921875 1126.5 c 128,-1,5
 233.788085938 1072 233.788085938 1072 217.434570312 994 c 1,6,-1
 124.434570312 994 l 1,7,8
 131.946289062 1073 131.946289062 1073 134.499023438 1127 c 128,-1,9
 137.051757812 1181 137.051757812 1181 142.896484375 1240 c 128,-1,10
 148.741210938 1299 148.741210938 1299 160.337890625 1388 c 128,-1,11
 171.93359375 1477 171.93359375 1477 195.216796875 1624 c 1,0,-1
EndSplineSet
Substitution2: "'ss03' Style Set 3 in Latin lookup 37 subtable" quotesingle.ss03
Substitution2: "'aalt' Access All Alternates in Latin lookup 0 subtable" quotesingle.ss03
EndChar

StartChar: quotesingle.ss03
Encoding: 65574 -1 583
Width: 257
VWidth: 2441
GlyphClass: 1
Flags: HW
LayerCount: 2
Fore
SplineSet
191.225585938 999 m 1,0,-1
 99.2353515625 1018 l 1,1,2
 162.52734375 1184 162.52734375 1184 183.6875 1295.5 c 128,-1,3
 204.846679688 1407 204.846679688 1407 218.151367188 1491 c 0,4,5
 239.057617188 1623 239.057617188 1623 314.216796875 1624 c 0,6,7
 387.216796875 1624 387.216796875 1624 367.943359375 1496 c 0,8,9
 358.756835938 1438 358.756835938 1438 338.541015625 1373.5 c 128,-1,10
 318.325195312 1309 318.325195312 1309 282.966796875 1221.5 c 128,-1,11
 247.608398438 1134 247.608398438 1134 191.225585938 999 c 1,0,-1
EndSplineSet
EndChar

StartChar: hyphen_greater.dlig
Encoding: 65575 -1 584
Width: 768
VWidth: 2441
GlyphClass: 1
Flags: HW
LayerCount: 2
Fore
SplineSet
50.1357421875 708 m 1,0,-1
 72.943359375 852 l 1,1,-1
 552.943359375 852 l 1,2,-1
 530.135742188 708 l 1,3,-1
 50.1357421875 708 l 1,0,-1
255.413085938 91 m 1,4,-1
 283.129882812 266 l 1,5,-1
 697.22265625 778 l 1,6,-1
 441.564453125 1260 l 1,7,-1
 468.96484375 1433 l 1,8,-1
 775.04296875 840 l 1,9,-1
 756.353515625 722 l 1,10,-1
 255.413085938 91 l 1,4,-1
EndSplineSet
Ligature2: "'dlig' Discretionary Ligatures in Latin lookup 32 subtable" hyphen greater
EndChar

